<svg width="284" height="46" viewBox="0 0 284 46" fill="none" xmlns="http://www.w3.org/2000/svg">
<path d="M23.4957 0C10.5191 0 0 10.2972 0 23C0 35.7029 10.5191 46 23.4957 46C36.4724 46 47 35.7112 47 23C47 10.2888 36.4809 0 23.4957 0ZM35.9026 27.9197C35.3073 29.5679 34.3125 30.9414 33.1984 32.1235C32.0845 33.3055 30.7409 34.2295 29.1677 34.8788C28.5724 35.1285 27.9602 35.3283 27.3225 35.4781V40.5227H24.8308V35.8361C24.5587 35.8528 24.2866 35.861 24.0145 35.861C23.2151 35.861 22.4327 35.8028 21.676 35.6779V40.4394H19.1844V35.0286C18.4871 34.7789 17.8152 34.4709 17.1774 34.1213C16.1741 33.5635 15.2641 32.8977 14.4307 32.1235C13.606 31.3493 12.9001 30.4836 12.3133 29.5345C11.7267 28.5856 11.2759 27.5617 10.9528 26.4712C10.6296 25.3807 10.4681 24.2403 10.4681 23.05C10.4681 21.8596 10.6296 20.7191 10.9528 19.6286C11.2759 18.5382 11.7352 17.5143 12.3133 16.5653C12.9001 15.6164 13.606 14.7506 14.4307 13.9765C15.2556 13.2023 16.1741 12.5363 17.1774 11.987C17.8152 11.6374 18.4871 11.3294 19.1844 11.0797V5.85198H21.676V10.4387C22.4327 10.3138 23.2151 10.2555 24.0145 10.2555C24.2866 10.2555 24.5587 10.2638 24.8308 10.2805V5.85198H27.3225V10.6218C28.0112 10.78 28.683 10.9881 29.3293 11.2461C30.9875 11.9037 32.4757 12.886 33.8022 14.1846L31.5743 16.3739C29.9076 14.4843 27.5605 13.2023 24.8988 12.886H24.8308V12.8776C24.4397 12.836 24.04 12.8111 23.6318 12.8111C17.8323 12.8111 13.1382 17.4144 13.1382 23.0832C13.1382 28.7521 17.8408 33.3554 23.6318 33.3554C28.9806 33.3554 33.258 29.5013 34.0318 24.3902H24.7118V22.101H36.2088H37.0507C37.0592 24.1321 36.5234 26.2049 35.9026 27.9197ZM23.8699 28.1695C26.0298 28.1695 27.8921 26.9207 28.734 25.1144H31.1151C30.8854 25.9302 30.5283 26.6461 30.0265 27.2704C29.5334 27.8947 28.9551 28.4274 28.3003 28.852C27.6455 29.2766 26.9398 29.6012 26.1914 29.826C25.4346 30.0424 24.6863 30.1589 23.938 30.1589C23.2321 30.1589 22.5518 30.0757 21.9056 29.9008C21.2593 29.7344 20.647 29.4929 20.0857 29.1766C19.5246 28.8603 19.0058 28.4858 18.5381 28.0529C18.0704 27.62 17.6707 27.1288 17.3475 26.5961C17.0159 26.0633 16.7608 25.4889 16.5823 24.873C16.3952 24.257 16.3101 23.616 16.3101 22.9418C16.3101 22.2675 16.4037 21.6265 16.5823 21.0106C16.7694 20.3946 17.0244 19.8201 17.3475 19.2873C17.6792 18.7547 18.0704 18.2635 18.5381 17.8306C19.0058 17.3977 19.5246 17.0232 20.0857 16.7069C20.647 16.3988 21.2593 16.1574 21.9056 15.9827C22.5518 15.8161 23.2321 15.7246 23.938 15.7246C24.6863 15.7246 25.4346 15.8328 26.1914 16.0409C26.9483 16.2574 27.6455 16.5737 28.3003 16.9982C28.9551 17.4227 29.5249 18.0471 30.0265 18.6797C30.5198 19.3123 30.979 20.4278 31.2086 21.2685L28.9721 21.3601C28.2918 19.2375 26.2595 17.6974 23.8614 17.6974C20.9021 17.6974 18.5041 20.0449 18.5041 22.9418C18.5211 25.822 20.9191 28.1695 23.8699 28.1695Z" fill="white"/>
<path d="M259 25H221V28H259V25Z" fill="white"/>
<path d="M192 26.8394C192 25.4802 192.239 24.2044 192.728 23.012C193.216 21.8196 193.9 20.7773 194.799 19.8851C195.689 18.9928 196.767 18.2924 198.016 17.7754C199.266 17.2585 200.651 17 202.184 17C202.919 17 203.622 17.075 204.28 17.2168C204.939 17.3585 205.556 17.5587 206.129 17.8004C206.702 18.0507 207.223 18.3341 207.712 18.6677C208.191 19.0012 208.619 19.3431 208.986 19.7016L209.337 17.5587H213V34.3441C213 35.6282 212.795 36.8539 212.393 38.0297C211.982 39.197 211.365 40.2227 210.536 41.1066C209.706 41.9905 208.653 42.6909 207.396 43.2162C206.129 43.7415 204.639 44 202.911 44C201.251 44 199.813 43.7833 198.615 43.3497C197.417 42.916 196.424 42.3573 195.637 41.6736C194.859 40.9898 194.259 40.2227 193.857 39.3805C193.455 38.5383 193.207 37.6962 193.122 36.8706L197.426 36.8539C197.563 37.3126 197.768 37.7461 198.05 38.1715C198.332 38.5884 198.7 38.9635 199.146 39.2888C199.599 39.614 200.13 39.8725 200.746 40.0643C201.362 40.2561 202.072 40.3561 202.885 40.3561C204.066 40.3561 205.024 40.156 205.769 39.7641C206.505 39.3721 207.087 38.8719 207.498 38.2882C207.909 37.7044 208.191 37.0791 208.336 36.4287C208.482 35.7783 208.559 35.1862 208.559 34.6525V33.8271C208.165 34.1856 207.729 34.5275 207.249 34.836C206.77 35.1445 206.248 35.4198 205.675 35.6532C205.11 35.8867 204.502 36.0701 203.844 36.2118C203.194 36.3537 202.5 36.4204 201.773 36.4204C200.352 36.4204 199.052 36.1785 197.854 35.6949C196.656 35.2112 195.629 34.5359 194.756 33.6853C193.891 32.8348 193.207 31.8258 192.72 30.6501C192.239 29.4577 192 28.1986 192 26.8394ZM196.51 26.8227C196.51 27.715 196.673 28.5238 196.99 29.2743C197.306 30.0164 197.751 30.6585 198.298 31.1921C198.855 31.7258 199.497 32.1427 200.241 32.4345C200.978 32.7264 201.773 32.8765 202.628 32.8765C203.468 32.8765 204.254 32.7264 204.99 32.4345C205.727 32.1427 206.377 31.7258 206.924 31.1921C207.473 30.6585 207.909 30.0247 208.225 29.2826C208.542 28.5405 208.704 27.7233 208.704 26.8227C208.704 25.9471 208.542 25.1383 208.225 24.4046C207.909 23.6625 207.464 23.0371 206.916 22.5034C206.36 21.978 205.718 21.5611 204.973 21.2609C204.237 20.9607 203.442 20.8107 202.611 20.8107C201.764 20.8107 200.96 20.9607 200.215 21.2526C199.471 21.5445 198.821 21.9614 198.273 22.495C197.725 23.0287 197.298 23.6625 196.981 24.4046C196.665 25.1383 196.51 25.9471 196.51 26.8227Z" fill="white"/>
<path d="M266.008 11H270.456V26.8068L278.206 17.745H283.416L276.818 25.4101L284 36H278.68L273.615 28.2445L270.448 31.7772V35.9918H266V11H266.008Z" fill="white"/>
<path d="M233.653 29.0404C232.572 31.0265 230.319 32.392 227.702 32.392C224.039 32.392 221.077 29.7108 221.077 26.3924C221.077 23.074 224.047 20.3929 227.702 20.3929C231.357 20.3929 234.328 23.074 234.328 26.3924C234.328 26.9717 234.235 27.5343 234.067 28.0723H237.857C237.949 27.5592 238 27.0296 238 26.4999C238 21.2535 233.299 17 227.5 17C221.701 17 217 21.2535 217 26.4999C217 31.7464 221.701 36 227.5 36C232.328 36 236.388 33.054 237.62 29.0488H233.653V29.0404Z" fill="white"/>
<path d="M257.86 29.0406C256.831 31.0266 254.685 32.392 252.193 32.392C248.704 32.392 245.883 29.7108 245.883 26.3925C245.883 23.0741 248.712 20.3929 252.193 20.3929C255.682 20.3929 258.503 23.0741 258.503 26.3925C258.503 26.9717 258.415 27.5344 258.254 28.0723H261.863C261.952 27.5593 262 27.0297 262 26.5001C262 21.2536 257.523 17 252 17C246.477 17 242 21.2536 242 26.5001C242 31.7465 246.477 36 252 36C256.598 36 260.464 33.054 261.638 29.0488H257.86V29.0406Z" fill="white"/>
<path d="M79.3544 19.774C79.0293 18.9891 78.593 18.2868 78.0454 17.6673C77.4979 17.0476 76.8734 16.5272 76.1803 16.0975C75.4788 15.6679 74.726 15.3456 73.9132 15.1226C73.1004 14.8996 72.2705 14.7922 71.4149 14.7922C70.1915 14.7922 69.0365 15.0152 67.9586 15.4613C66.8806 15.9075 65.948 16.5189 65.1437 17.3037C64.3396 18.0803 63.7065 19.0056 63.2359 20.0714C62.7653 21.1371 62.5344 22.2855 62.5344 23.5166C62.5344 24.7476 62.7653 25.8959 63.2359 26.9534C63.7065 28.0192 64.3396 28.9362 65.1437 29.7129C65.948 30.4894 66.8806 31.1091 67.9586 31.5553C69.0365 32.0014 70.1829 32.2244 71.4149 32.2244C72.2619 32.2244 73.0918 32.117 73.9046 31.9022C74.7089 31.6874 75.4617 31.3652 76.1632 30.9439C76.8648 30.5225 77.4808 30.002 78.0283 29.3823C78.5759 28.7628 79.0122 28.0688 79.3373 27.2756H84C83.5979 28.6802 82.9648 29.9277 82.0921 31.0182C81.2195 32.1005 80.2185 33.0175 79.0635 33.7529C77.9171 34.4881 76.6766 35.0499 75.3591 35.4299C74.0329 35.81 72.7154 36 71.4064 36C70.1658 36 68.9766 35.8513 67.8387 35.5622C66.7009 35.273 65.6315 34.8517 64.639 34.3063C63.6465 33.7611 62.7397 33.1084 61.9269 32.3566C61.1056 31.5966 60.404 30.7621 59.8308 29.8285C59.2577 28.9032 58.8042 27.9035 58.4791 26.8378C58.1539 25.772 58 24.6567 58 23.4917C58 22.3268 58.1626 21.2198 58.4791 20.1457C58.8042 19.08 59.2491 18.0803 59.8308 17.155C60.404 16.2297 61.1056 15.3869 61.9269 14.6269C62.7482 13.8668 63.6551 13.2224 64.639 12.6854C65.6315 12.1484 66.6924 11.7271 67.8387 11.4378C68.9766 11.1487 70.1744 11 71.4064 11C72.7154 11 74.0329 11.1817 75.3591 11.5536C76.6851 11.9253 77.9171 12.4705 79.0635 13.2059C80.2099 13.9412 81.2195 14.8582 82.0921 15.9488C82.9648 17.0476 83.5979 18.3199 84 19.774H79.3544Z" fill="white"/>
<path d="M101 20.9283L98.8424 20.9457C97.9979 20.9457 97.237 21.0757 96.5595 21.3272C95.8822 21.5788 95.3052 21.9516 94.8202 22.4546C94.3352 22.9576 93.9672 23.5733 93.7164 24.319C93.4571 25.0648 93.3317 25.9233 93.3317 26.8945V36H89V17H92.5122L92.9052 19.2721C93.5241 18.6216 94.3017 18.0754 95.2467 17.6504C96.1917 17.2168 97.3122 17 98.6 17H100.983V20.9283H101Z" fill="white"/>
<path d="M122 17L111.11 42H106.381L109.704 34.8389L102 17H106.855L111.805 28.8332L112.025 29.776L117.296 17.017L122 17Z" fill="white"/>
<path d="M146 26.6391C146 27.9697 145.768 29.2256 145.314 30.4065C144.858 31.5791 144.204 32.6021 143.369 33.4837C142.524 34.357 141.515 35.0472 140.34 35.5546C139.157 36.0619 137.841 36.3197 136.385 36.3197C135.07 36.3197 133.902 36.1035 132.893 35.6793C131.883 35.2552 131.015 34.7062 130.286 34.0326V42H126V17.5406H129.492L129.823 19.6697C130.187 19.3121 130.601 18.9794 131.056 18.6551C131.511 18.3307 132.016 18.0479 132.562 17.7985C133.108 17.549 133.696 17.3577 134.324 17.2162C134.954 17.0749 135.615 17 136.31 17C137.759 17 139.075 17.2496 140.265 17.7569C141.457 18.2558 142.475 18.9461 143.328 19.8194C144.171 20.6927 144.833 21.7156 145.305 22.8965C145.768 24.0526 146 25.3084 146 26.6391ZM141.722 26.6557C141.722 25.7825 141.573 24.9758 141.267 24.2439C140.961 23.512 140.547 22.8799 140.017 22.356C139.488 21.832 138.876 21.4246 138.164 21.1334C137.461 20.8424 136.708 20.701 135.905 20.701C135.094 20.701 134.332 20.8424 133.629 21.1334C132.926 21.4246 132.313 21.832 131.784 22.356C131.263 22.8799 130.85 23.5037 130.543 24.2355C130.237 24.9591 130.088 25.7659 130.088 26.6557C130.088 27.5206 130.237 28.3107 130.543 29.0343C130.85 29.7578 131.263 30.3816 131.792 30.9055C132.322 31.4212 132.935 31.8287 133.646 32.1281C134.349 32.4275 135.111 32.5689 135.921 32.5689C136.733 32.5689 137.494 32.4274 138.197 32.1364C138.901 31.8453 139.513 31.4378 140.042 30.9139C140.563 30.3899 140.978 29.7662 141.276 29.0426C141.573 28.3273 141.722 27.5372 141.722 26.6557Z" fill="white"/>
<path d="M153.306 12.0169L156.537 12V17.2769H162.497V21.057H156.52V28.6427C156.52 29.3868 156.606 30.0042 156.785 30.4863C156.963 30.9767 157.194 31.3572 157.492 31.6364C157.79 31.9155 158.141 32.1184 158.533 32.2283C158.933 32.3467 159.359 32.3974 159.802 32.3974H163L162.966 36H159.385C158.379 36 157.432 35.8986 156.554 35.6956C155.667 35.4926 154.9 35.1204 154.244 34.5708C153.587 34.0211 153.075 33.277 152.692 32.3297C152.309 31.3826 152.121 30.1649 152.121 28.6765V21.057H149V17.6744L152.019 16.8457L153.306 12.0169Z" fill="white"/>
<path d="M167 26.5123C167 25.2047 167.248 23.9707 167.736 22.8103C168.233 21.658 168.921 20.6529 169.806 19.7866C170.692 18.9285 171.751 18.2503 172.969 17.7518C174.193 17.2533 175.526 17 176.967 17C178.423 17 179.764 17.2533 180.998 17.7518C182.223 18.2503 183.283 18.9285 184.168 19.7866C185.055 20.6447 185.75 21.6498 186.246 22.8103C186.742 23.9626 187 25.1966 187 26.5123C187 27.8361 186.751 29.0701 186.263 30.2223C185.766 31.3746 185.079 32.3717 184.185 33.2296C183.291 34.0877 182.231 34.766 181.007 35.2564C179.781 35.7467 178.431 36 176.959 36C175.51 36 174.185 35.7549 172.969 35.2564C171.751 34.766 170.7 34.0877 169.822 33.2296C168.945 32.3717 168.249 31.3665 167.753 30.206C167.248 29.0537 167 27.8197 167 26.5123ZM171.288 26.4959C171.288 27.3539 171.437 28.1385 171.735 28.8577C172.033 29.5686 172.446 30.1897 172.96 30.7045C173.473 31.2194 174.086 31.6279 174.773 31.9139C175.468 32.2081 176.213 32.3471 177.017 32.3471C177.819 32.3471 178.564 32.2081 179.26 31.9221C179.955 31.6362 180.559 31.2357 181.073 30.7208C181.586 30.206 181.999 29.585 182.297 28.8658C182.595 28.1467 182.744 27.3539 182.744 26.4959C182.744 25.646 182.595 24.8696 182.297 24.1587C181.999 23.4477 181.586 22.8349 181.073 22.32C180.551 21.8133 179.947 21.4129 179.252 21.1187C178.555 20.8326 177.811 20.6855 177.025 20.6855C176.221 20.6855 175.477 20.8245 174.782 21.1105C174.086 21.3965 173.482 21.7969 172.969 22.3118C172.446 22.8266 172.041 23.4396 171.743 24.1587C171.437 24.8696 171.288 25.646 171.288 26.4959Z" fill="white"/>
</svg>
