<svg width="20" height="19" viewBox="0 0 20 19" fill="none" xmlns="http://www.w3.org/2000/svg">
<path d="M13.7909 9.5L19.4767 4.22287C20.1744 3.57529 20.1744 2.52535 19.4767 1.87725L18.2131 0.704434C17.5153 0.0568555 16.3841 0.0568555 15.6858 0.704434L10 5.98156L4.3142 0.704434C3.61648 0.0568555 2.48523 0.0568555 1.78693 0.704434L0.523295 1.87725C-0.174432 2.52482 -0.174432 3.57477 0.523295 4.22287L6.20909 9.5L0.523295 14.7771C-0.174432 15.4247 -0.174432 16.4746 0.523295 17.1228L1.78693 18.2956C2.48466 18.9431 3.61648 18.9431 4.3142 18.2956L10 13.0184L15.6858 18.2956C16.3835 18.9431 17.5153 18.9431 18.2131 18.2956L19.4767 17.1228C20.1744 16.4752 20.1744 15.4252 19.4767 14.7771L13.7909 9.5Z" fill="white"/>
</svg>
