<svg width="134" height="24" viewBox="0 0 134 24" fill="none" xmlns="http://www.w3.org/2000/svg">
<path d="M6.36408 19.022C3.50136 19.022 0.699219 16.9621 0.699219 12.312C0.699219 7.64684 3.50136 5.61719 6.36408 5.61719C7.77272 5.61719 8.87843 5.98071 9.66606 6.4957L8.8027 8.38903C8.27256 8.01036 7.48493 7.76802 6.69731 7.76802C4.97058 7.76802 3.39533 9.13122 3.39533 12.2817C3.39533 15.4322 5.01602 16.8257 6.69731 16.8257C7.48493 16.8257 8.27256 16.5834 8.8027 16.2047L9.66606 18.1435C8.84813 18.6888 7.77272 19.022 6.36408 19.022Z" fill="black"/>
<path d="M16.2235 19.022C12.5731 19.022 10.5586 16.129 10.5586 12.312C10.5586 8.49506 12.558 5.61719 16.2235 5.61719C19.8738 5.61719 21.8883 8.47991 21.8883 12.312C21.8883 16.129 19.8738 19.022 16.2235 19.022ZM16.2235 7.69228C14.1938 7.69228 13.1941 9.50989 13.1941 12.2817C13.1941 15.0536 14.1938 16.8863 16.2235 16.8863C18.2531 16.8863 19.2528 15.0536 19.2528 12.2817C19.2528 9.50989 18.2531 7.69228 16.2235 7.69228Z" fill="black"/>
<path d="M25.4039 3.54688C24.5405 3.54688 23.8438 2.88042 23.8438 2.0625C23.8438 1.24458 24.5405 0.578125 25.4039 0.578125C26.2672 0.578125 26.964 1.24458 26.964 2.0625C26.964 2.88042 26.2521 3.54688 25.4039 3.54688ZM24.0861 5.87947H26.7216V18.7541H24.0861V5.87947Z" fill="black"/>
<path d="M37.0509 18.7494V10.1612C37.0509 8.66167 36.1421 7.72258 34.3548 7.72258C33.4006 7.72258 32.5221 7.88919 31.9919 8.10124V18.7645H29.3867V6.52599C30.6742 5.99585 32.3252 5.61719 34.3397 5.61719C37.9446 5.61719 39.6865 7.19244 39.6865 9.91885V18.7645H37.0509" fill="black"/>
<path d="M46.6054 19.0242C44.9393 19.0242 43.2883 18.6153 42.2734 18.1154V0H44.8787V6.21014C45.4997 5.92235 46.4994 5.68001 47.393 5.68001C50.7101 5.68001 52.967 8.07318 52.967 12.0113C52.967 16.8734 50.4526 19.0242 46.6054 19.0242ZM46.9386 7.72481C46.2267 7.72481 45.3785 7.89142 44.8787 8.14892V16.6008C45.2573 16.7674 45.9995 16.934 46.7417 16.934C48.8168 16.934 50.3466 15.4951 50.3466 12.2082C50.3618 9.39095 49.0289 7.72481 46.9386 7.72481Z" fill="black"/>
<path d="M60.0584 19.022C56.3626 19.022 54.4844 17.5225 54.4844 14.9778C54.4844 11.3881 58.3013 10.7519 62.194 10.5399V9.72194C62.194 8.10124 61.1186 7.52567 59.4676 7.52567C58.2559 7.52567 56.7715 7.90434 55.9082 8.3133L55.2417 6.52599C56.2717 6.07159 58.0136 5.61719 59.7403 5.61719C62.8151 5.61719 64.6932 6.81378 64.6932 9.99458V18.1132C63.7693 18.613 61.876 19.022 60.0584 19.022ZM62.2092 12.2817C59.5737 12.418 56.9533 12.6452 56.9533 14.9324C56.9533 16.2956 57.9984 17.1287 59.9826 17.1287C60.8157 17.1287 61.8002 16.9923 62.2092 16.7954V12.2817Z" fill="black"/>
<path d="M70.5725 19.022C69.0729 19.022 67.4977 18.613 66.5586 18.1132L67.4371 16.1138C68.1036 16.5228 69.5122 16.9469 70.4967 16.9469C71.9054 16.9469 72.8445 16.2502 72.8445 15.1747C72.8445 14.0085 71.8599 13.5541 70.5573 13.0694C68.8306 12.418 66.907 11.6304 66.907 9.2221C66.907 7.10156 68.558 5.61719 71.4207 5.61719C72.9808 5.61719 74.2683 5.99585 75.1771 6.52599L74.3591 8.34359C73.7836 7.98007 72.6324 7.58626 71.7085 7.58626C70.3453 7.58626 69.5879 8.29815 69.5879 9.23725C69.5879 10.4035 70.5422 10.8125 71.8145 11.2972C73.6018 11.9636 75.586 12.7058 75.586 15.2202C75.5709 17.5073 73.7987 19.022 70.5725 19.022Z" fill="black"/>
<path d="M88.2812 12.2549L79.7234 13.4515C79.9809 15.7689 81.4955 16.9352 83.6615 16.9352C84.949 16.9352 86.3425 16.6171 87.221 16.1476L87.9783 18.1015C86.9786 18.6316 85.2519 19.0103 83.4798 19.0103C79.4204 19.0103 77.1484 16.4051 77.1484 12.3003C77.1484 8.36217 79.3447 5.60547 82.9496 5.60547C86.297 5.60547 88.2812 7.80174 88.2812 11.2703C88.3115 11.5884 88.3115 11.9216 88.2812 12.2549ZM82.9345 7.5291C80.9351 7.5291 79.6173 9.05891 79.5719 11.7399L85.8123 10.8765C85.782 8.63481 84.646 7.5291 82.9345 7.5291Z" fill="black"/>
<path fill-rule="evenodd" clip-rule="evenodd" d="M97.4922 23.5149V0.460938H98.3221V23.5149H97.4922Z" fill="black"/>
<path d="M109.448 13.6516V18.9079H108.508V5.85938H111.874C113.404 5.85938 114.557 6.19443 115.332 6.86453C116.113 7.53463 116.503 8.49061 116.503 9.73245C116.503 10.3042 116.395 10.8298 116.18 11.3093C115.971 11.7889 115.667 12.2038 115.267 12.5543C114.868 12.8985 114.382 13.169 113.81 13.3658C113.238 13.5563 112.593 13.6516 111.874 13.6516H109.448ZM109.448 12.8955H111.874C112.452 12.8955 112.968 12.8155 113.423 12.6557C113.878 12.4959 114.262 12.2745 114.576 11.9917C114.895 11.7089 115.138 11.377 115.304 10.9958C115.476 10.6085 115.562 10.1874 115.562 9.73245C115.562 8.73037 115.252 7.95883 114.631 7.41783C114.016 6.87683 113.097 6.60632 111.874 6.60632H109.448V12.8955Z" fill="black"/>
<path d="M118.739 18.9079V9.73245H119.2C119.305 9.73245 119.379 9.75397 119.422 9.797C119.471 9.84003 119.498 9.91381 119.505 10.0183L119.578 11.9549C119.873 11.211 120.267 10.63 120.759 10.212C121.251 9.78778 121.856 9.57568 122.575 9.57568C122.852 9.57568 123.107 9.60642 123.341 9.6679C123.574 9.72323 123.796 9.80622 124.005 9.91688L123.885 10.5255C123.866 10.6239 123.805 10.6731 123.7 10.6731C123.664 10.6731 123.611 10.6608 123.544 10.6362C123.476 10.6116 123.39 10.5839 123.285 10.5532C123.187 10.5224 123.064 10.4948 122.917 10.4702C122.769 10.4456 122.6 10.4333 122.409 10.4333C121.715 10.4333 121.143 10.6485 120.694 11.0788C120.252 11.5091 119.892 12.1301 119.615 12.9416V18.9079H118.739Z" fill="black"/>
<path d="M129.565 9.5849C130.222 9.5849 130.81 9.69864 131.326 9.9261C131.849 10.1474 132.288 10.464 132.645 10.8759C133.001 11.2878 133.272 11.7858 133.456 12.3698C133.647 12.9477 133.742 13.5963 133.742 14.3156C133.742 15.0349 133.647 15.6835 133.456 16.2613C133.272 16.8392 133.001 17.3341 132.645 17.746C132.288 18.1579 131.849 18.4745 131.326 18.6958C130.81 18.9172 130.222 19.0278 129.565 19.0278C128.907 19.0278 128.317 18.9172 127.794 18.6958C127.278 18.4745 126.838 18.1579 126.475 17.746C126.119 17.3341 125.845 16.8392 125.655 16.2613C125.47 15.6835 125.378 15.0349 125.378 14.3156C125.378 13.5963 125.47 12.9477 125.655 12.3698C125.845 11.7858 126.119 11.2878 126.475 10.8759C126.838 10.464 127.278 10.1474 127.794 9.9261C128.317 9.69864 128.907 9.5849 129.565 9.5849ZM129.565 18.3362C130.112 18.3362 130.588 18.244 130.994 18.0596C131.406 17.869 131.747 17.5985 132.018 17.2481C132.294 16.8976 132.5 16.4765 132.635 15.9847C132.771 15.4867 132.838 14.9304 132.838 14.3156C132.838 13.707 132.771 13.1537 132.635 12.6557C132.5 12.1577 132.294 11.7335 132.018 11.3831C131.747 11.0265 131.406 10.753 130.994 10.5624C130.588 10.3718 130.112 10.2765 129.565 10.2765C129.017 10.2765 128.538 10.3718 128.126 10.5624C127.72 10.753 127.379 11.0265 127.102 11.3831C126.832 11.7335 126.626 12.1577 126.485 12.6557C126.349 13.1537 126.282 13.707 126.282 14.3156C126.282 14.9304 126.349 15.4867 126.485 15.9847C126.626 16.4765 126.832 16.8976 127.102 17.2481C127.379 17.5985 127.72 17.869 128.126 18.0596C128.538 18.244 129.017 18.3362 129.565 18.3362Z" fill="black"/>
</svg>
