<svg width="227" height="37" viewBox="0 0 227 37" fill="none" xmlns="http://www.w3.org/2000/svg">
<path d="M18.78 0C8.40787 0 0 8.23051 0 18.3838C0 28.5372 8.40787 36.7676 18.78 36.7676C29.1522 36.7676 37.5669 28.5438 37.5669 18.3838C37.5669 8.22379 29.159 0 18.78 0ZM28.6968 22.3161C28.221 23.6335 27.4258 24.7313 26.5353 25.6762C25.645 26.6209 24.5711 27.3595 23.3136 27.8785C22.8378 28.0781 22.3485 28.2378 21.8388 28.3575V32.3896H19.8472V28.6436C19.6297 28.657 19.4122 28.6635 19.1947 28.6635C18.5557 28.6635 17.9304 28.617 17.3255 28.5172V32.323H15.334V27.9982C14.7767 27.7986 14.2396 27.5524 13.7298 27.273C12.9279 26.8272 12.2005 26.295 11.5344 25.6762C10.8752 25.0574 10.311 24.3654 9.84197 23.6068C9.3731 22.8484 9.01278 22.03 8.75453 21.1583C8.49619 20.2867 8.36711 19.3752 8.36711 18.4238C8.36711 17.4723 8.49619 16.5607 8.75453 15.6891C9.01278 14.8175 9.3799 13.9991 9.84197 13.2406C10.311 12.4821 10.8752 11.7901 11.5344 11.1714C12.1937 10.5525 12.9279 10.0202 13.7298 9.58116C14.2396 9.30173 14.7767 9.05554 15.334 8.85596V4.67746H17.3255V8.34361C17.9304 8.24378 18.5557 8.19718 19.1947 8.19718C19.4122 8.19718 19.6297 8.20381 19.8472 8.21716V4.67746H21.8388V8.48996C22.3892 8.61641 22.9262 8.78274 23.4428 8.98896C24.7682 9.51458 25.9577 10.2997 27.018 11.3377L25.2372 13.0876C23.905 11.5772 22.029 10.5525 19.9015 10.2997H19.8472V10.293C19.5345 10.2598 19.2151 10.2399 18.8888 10.2399C14.2533 10.2399 10.5013 13.9193 10.5013 18.4503C10.5013 22.9814 14.2601 26.6608 18.8888 26.6608C23.1641 26.6608 26.583 23.5803 27.2015 19.495H19.752V17.6652H28.9415H29.6145C29.6213 19.2887 29.193 20.9455 28.6968 22.3161ZM19.0791 22.5158C20.8055 22.5158 22.294 21.5176 22.967 20.0738H24.8702C24.6866 20.7259 24.4011 21.2981 24.0001 21.7971C23.6059 22.2961 23.1437 22.7219 22.6203 23.0613C22.0969 23.4007 21.5329 23.6601 20.9347 23.8398C20.3298 24.0128 19.7317 24.1059 19.1335 24.1059C18.5693 24.1059 18.0256 24.0394 17.5091 23.8996C16.9925 23.7666 16.5031 23.5735 16.0544 23.3207C15.6059 23.0679 15.1913 22.7686 14.8174 22.4226C14.4436 22.0765 14.1241 21.6839 13.8658 21.2582C13.6007 20.8323 13.3968 20.3732 13.2542 19.8809C13.1046 19.3885 13.0366 18.8762 13.0366 18.3373C13.0366 17.7983 13.1114 17.286 13.2542 16.7937C13.4037 16.3013 13.6075 15.8421 13.8658 15.4163C14.1309 14.9906 14.4436 14.5979 14.8174 14.2519C15.1913 13.9059 15.6059 13.6066 16.0544 13.3538C16.5031 13.1075 16.9925 12.9145 17.5091 12.7749C18.0256 12.6417 18.5693 12.5686 19.1335 12.5686C19.7317 12.5686 20.3298 12.6551 20.9347 12.8214C21.5397 12.9945 22.0969 13.2473 22.6203 13.5866C23.1437 13.9259 23.5991 14.425 24.0001 14.9306C24.3943 15.4362 24.7614 16.3279 24.9449 16.9998L23.1573 17.073C22.6135 15.3765 20.9891 14.1455 19.0723 14.1455C16.707 14.1455 14.7902 16.0218 14.7902 18.3373C14.8038 20.6394 16.7205 22.5158 19.0791 22.5158Z" fill="white"/>
<path d="M207.018 19.9824H176.645V22.3803H207.018V19.9824Z" fill="white"/>
<path d="M153.465 21.4525C153.465 20.3661 153.656 19.3463 154.047 18.3933C154.437 17.4402 154.984 16.6071 155.702 15.8939C156.413 15.1807 157.275 14.6209 158.273 14.2077C159.273 13.7945 160.38 13.5879 161.605 13.5879C162.192 13.5879 162.754 13.6478 163.28 13.7612C163.807 13.8744 164.3 14.0345 164.758 14.2276C165.216 14.4277 165.633 14.6542 166.023 14.9209C166.406 15.1874 166.748 15.4607 167.042 15.7473L167.322 14.0345H170.25V27.451C170.25 28.4773 170.086 29.457 169.765 30.3968C169.436 31.3299 168.943 32.1497 168.281 32.8562C167.617 33.5627 166.776 34.1225 165.771 34.5424C164.758 34.9623 163.567 35.1689 162.186 35.1689C160.859 35.1689 159.71 34.9957 158.752 34.6491C157.795 34.3024 157.001 33.8559 156.372 33.3094C155.75 32.7628 155.27 32.1497 154.949 31.4765C154.628 30.8034 154.43 30.1303 154.362 29.4704L157.802 29.457C157.911 29.8237 158.075 30.1702 158.301 30.5102C158.526 30.8434 158.82 31.1432 159.177 31.4032C159.539 31.6632 159.963 31.8698 160.455 32.0231C160.948 32.1764 161.515 32.2563 162.165 32.2563C163.109 32.2563 163.875 32.0964 164.47 31.7831C165.059 31.4698 165.524 31.07 165.852 30.6035C166.181 30.1368 166.406 29.637 166.522 29.1172C166.639 28.5973 166.7 28.124 166.7 27.6975V27.0377C166.385 27.3243 166.037 27.5975 165.653 27.8441C165.27 28.0907 164.853 28.3108 164.395 28.4973C163.944 28.6839 163.458 28.8305 162.932 28.9438C162.412 29.0572 161.857 29.1105 161.276 29.1105C160.141 29.1105 159.101 28.9172 158.144 28.5306C157.186 28.144 156.365 27.6043 155.668 26.9244C154.976 26.2446 154.43 25.4381 154.04 24.4984C153.656 23.5453 153.465 22.5389 153.465 21.4525ZM157.07 21.4391C157.07 22.1523 157.2 22.7988 157.453 23.3987C157.706 23.9918 158.062 24.5051 158.499 24.9316C158.944 25.3582 159.457 25.6914 160.052 25.9246C160.641 26.1579 161.276 26.2779 161.96 26.2779C162.631 26.2779 163.259 26.1579 163.848 25.9246C164.437 25.6914 164.956 25.3582 165.394 24.9316C165.832 24.5051 166.181 23.9985 166.433 23.4053C166.687 22.8122 166.816 22.159 166.816 21.4391C166.816 20.7393 166.687 20.0928 166.433 19.5064C166.181 18.9132 165.825 18.4133 165.387 17.9867C164.943 17.5668 164.43 17.2336 163.834 16.9936C163.246 16.7537 162.61 16.6338 161.946 16.6338C161.269 16.6338 160.627 16.7537 160.031 16.987C159.436 17.2203 158.917 17.5535 158.479 17.98C158.041 18.4066 157.7 18.9132 157.446 19.5064C157.194 20.0928 157.07 20.7393 157.07 21.4391Z" fill="white"/>
<path d="M212.619 8.79297H216.174V21.4273L222.369 14.1842H226.533L221.259 20.3109L227 28.7754H222.747L218.699 22.5764L216.168 25.4001V28.7688H212.612V8.79297H212.619Z" fill="white"/>
<path d="M186.758 23.2117C185.894 24.7992 184.093 25.8906 182.001 25.8906C179.074 25.8906 176.706 23.7476 176.706 21.0952C176.706 18.4428 179.08 16.2998 182.001 16.2998C184.923 16.2998 187.297 18.4428 187.297 21.0952C187.297 21.5582 187.223 22.0079 187.089 22.4379H190.118C190.192 22.0278 190.232 21.6045 190.232 21.1811C190.232 16.9877 186.475 13.5879 181.84 13.5879C177.205 13.5879 173.447 16.9877 173.447 21.1811C173.447 25.3746 177.205 28.7745 181.84 28.7745C185.699 28.7745 188.944 26.4198 189.929 23.2184H186.758V23.2117Z" fill="white"/>
<path d="M206.107 23.2119C205.284 24.7993 203.569 25.8906 201.577 25.8906C198.788 25.8906 196.533 23.7476 196.533 21.0953C196.533 18.4429 198.795 16.2998 201.577 16.2998C204.366 16.2998 206.62 18.4429 206.62 21.0953C206.62 21.5582 206.55 22.008 206.421 22.4379H209.306C209.377 22.0279 209.416 21.6046 209.416 21.1813C209.416 16.9878 205.837 13.5879 201.423 13.5879C197.008 13.5879 193.43 16.9878 193.43 21.1813C193.43 25.3747 197.008 28.7745 201.423 28.7745C205.098 28.7745 208.188 26.4198 209.126 23.2184H206.107V23.2119Z" fill="white"/>
<path d="M63.4279 15.806C63.168 15.1786 62.8193 14.6173 62.3816 14.1221C61.944 13.6268 61.4448 13.2108 60.8908 12.8674C60.3301 12.524 59.7284 12.2664 59.0787 12.0881C58.4291 11.9099 57.7657 11.8241 57.0818 11.8241C56.104 11.8241 55.1808 12.0023 54.3192 12.3589C53.4576 12.7155 52.7122 13.2042 52.0693 13.8315C51.4266 14.4522 50.9206 15.1918 50.5444 16.0437C50.1683 16.8955 49.9837 17.8134 49.9837 18.7974C49.9837 19.7814 50.1683 20.6992 50.5444 21.5445C50.9206 22.3963 51.4266 23.1293 52.0693 23.7501C52.7122 24.3708 53.4576 24.8661 54.3192 25.2227C55.1808 25.5793 56.0971 25.7575 57.0818 25.7575C57.7589 25.7575 58.4222 25.6717 59.0719 25.5C59.7147 25.3283 60.3164 25.0708 60.8771 24.734C61.4379 24.3972 61.9303 23.9812 62.3679 23.4859C62.8056 22.9907 63.1543 22.436 63.4142 21.802H67.1411C66.8197 22.9247 66.3136 23.9218 65.6161 24.7934C64.9186 25.6585 64.1185 26.3915 63.1953 26.9793C62.279 27.5669 61.2875 28.016 60.2344 28.3197C59.1744 28.6235 58.1213 28.7754 57.0751 28.7754C56.0834 28.7754 55.1329 28.6565 54.2234 28.4254C53.314 28.1943 52.4592 27.8575 51.6659 27.4216C50.8726 26.9858 50.1478 26.4641 49.4981 25.8632C48.8417 25.2557 48.2809 24.5887 47.8227 23.8425C47.3646 23.1029 47.0022 22.3039 46.7423 21.4521C46.4824 20.6002 46.3594 19.7087 46.3594 18.7775C46.3594 17.8464 46.4893 16.9616 46.7423 16.1031C47.0022 15.2513 47.3578 14.4522 47.8227 13.7126C48.2809 12.973 48.8417 12.2994 49.4981 11.6919C50.1546 11.0844 50.8795 10.5693 51.6659 10.1401C52.4592 9.71088 53.3072 9.37414 54.2234 9.1429C55.1329 8.91182 56.0903 8.79297 57.0751 8.79297C58.1213 8.79297 59.1744 8.9382 60.2344 9.23546C61.2943 9.53256 62.279 9.96833 63.1953 10.5561C64.1117 11.1439 64.9186 11.8768 65.6161 12.7485C66.3136 13.6268 66.8197 14.6437 67.1411 15.806H63.4279Z" fill="white"/>
<path d="M80.7292 16.7278L79.0047 16.7417C78.3297 16.7417 77.7215 16.8456 77.18 17.0466C76.6386 17.2477 76.1774 17.5457 75.7898 17.9477C75.4021 18.3498 75.108 18.8419 74.9075 19.4379C74.7002 20.0341 74.6 20.7202 74.6 21.4965V28.7745H71.1377V13.5879H73.945L74.2591 15.404C74.7538 14.884 75.3753 14.4475 76.1307 14.1078C76.886 13.7612 77.7816 13.5879 78.8109 13.5879H80.7157V16.7278H80.7292Z" fill="white"/>
<path d="M97.5142 13.5879L88.8099 33.5703H85.03L87.6861 27.8464L81.5283 13.5879H85.4089L89.3654 23.0461L89.5413 23.7997L93.7543 13.6015L97.5142 13.5879Z" fill="white"/>
<path d="M116.697 21.2924C116.697 22.3559 116.511 23.3598 116.149 24.3036C115.784 25.2409 115.261 26.0586 114.594 26.7632C113.919 27.4613 113.112 28.0129 112.173 28.4185C111.227 28.824 110.175 29.03 109.012 29.03C107.961 29.03 107.027 28.8572 106.22 28.5182C105.413 28.1792 104.719 27.7404 104.137 27.202V33.5703H100.711V14.02H103.502L103.767 15.7218C104.058 15.4359 104.388 15.17 104.752 14.9108C105.116 14.6515 105.519 14.4255 105.956 14.2261C106.392 14.0267 106.862 13.8738 107.364 13.7607C107.868 13.6478 108.396 13.5879 108.952 13.5879C110.11 13.5879 111.162 13.7874 112.113 14.1929C113.066 14.5916 113.879 15.1434 114.561 15.8414C115.235 16.5395 115.764 17.357 116.141 18.3009C116.511 19.225 116.697 20.2288 116.697 21.2924ZM113.277 21.3057C113.277 20.6077 113.158 19.9629 112.914 19.3779C112.669 18.7929 112.338 18.2877 111.915 17.8689C111.492 17.4501 111.003 17.1245 110.434 16.8917C109.872 16.6591 109.27 16.5461 108.628 16.5461C107.98 16.5461 107.371 16.6591 106.809 16.8917C106.247 17.1245 105.757 17.4501 105.334 17.8689C104.918 18.2877 104.588 18.7863 104.342 19.3712C104.098 19.9496 103.978 20.5944 103.978 21.3057C103.978 21.997 104.098 22.6285 104.342 23.2069C104.588 23.7851 104.918 24.2837 105.34 24.7025C105.764 25.1147 106.254 25.4404 106.822 25.6797C107.384 25.919 107.993 26.032 108.641 26.032C109.29 26.032 109.898 25.9189 110.46 25.6863C111.023 25.4537 111.512 25.128 111.935 24.7092C112.351 24.2904 112.683 23.7919 112.921 23.2135C113.158 22.6418 113.277 22.0102 113.277 21.3057Z" fill="white"/>
<path d="M122.536 9.60531L125.119 9.5918V13.8096H129.883V16.831H125.105V22.8942C125.105 23.489 125.174 23.9825 125.317 24.3678C125.46 24.7598 125.644 25.0639 125.882 25.2871C126.121 25.5102 126.401 25.6723 126.714 25.7602C127.034 25.8548 127.375 25.8954 127.729 25.8954H130.285L130.258 28.7749H127.395C126.591 28.7749 125.834 28.6938 125.133 28.5316C124.424 28.3693 123.811 28.0718 123.286 27.6325C122.761 27.1932 122.352 26.5984 122.046 25.8412C121.74 25.0842 121.589 24.1109 121.589 22.9213V16.831H119.095V14.1273L121.508 13.4649L122.536 9.60531Z" fill="white"/>
<path d="M133.482 21.191C133.482 20.1459 133.681 19.1595 134.071 18.232C134.468 17.311 135.018 16.5076 135.725 15.8152C136.433 15.1293 137.28 14.5873 138.253 14.1888C139.232 13.7904 140.297 13.5879 141.449 13.5879C142.613 13.5879 143.685 13.7904 144.671 14.1888C145.65 14.5873 146.497 15.1293 147.205 15.8152C147.914 16.5011 148.469 17.3045 148.866 18.232C149.262 19.1531 149.468 20.1394 149.468 21.191C149.468 22.2491 149.269 23.2355 148.879 24.1564C148.482 25.0774 147.933 25.8744 147.218 26.5601C146.504 27.246 145.656 27.7882 144.678 28.1802C143.698 28.5721 142.619 28.7745 141.443 28.7745C140.284 28.7745 139.225 28.5786 138.253 28.1802C137.28 27.7882 136.44 27.246 135.738 26.5601C135.037 25.8744 134.481 25.071 134.084 24.1434C133.681 23.2224 133.482 22.236 133.482 21.191ZM136.91 21.1779C136.91 21.8637 137.029 22.4908 137.267 23.0657C137.505 23.6339 137.835 24.1304 138.246 24.5418C138.656 24.9534 139.146 25.2799 139.695 25.5085C140.251 25.7437 140.846 25.8548 141.489 25.8548C142.13 25.8548 142.725 25.7437 143.282 25.5151C143.837 25.2865 144.32 24.9664 144.731 24.5549C145.141 24.1434 145.471 23.647 145.709 23.0722C145.947 22.4974 146.067 21.8637 146.067 21.1779C146.067 20.4986 145.947 19.878 145.709 19.3098C145.471 18.7415 145.141 18.2517 144.731 17.8401C144.314 17.4351 143.831 17.1151 143.275 16.88C142.718 16.6513 142.124 16.5337 141.495 16.5337C140.853 16.5337 140.258 16.6448 139.703 16.8734C139.146 17.102 138.663 17.422 138.253 17.8336C137.835 18.2451 137.512 18.735 137.273 19.3098C137.029 19.878 136.91 20.4986 136.91 21.1779Z" fill="white"/>
</svg>
