<svg width="124" height="32" viewBox="0 0 124 32" fill="none" xmlns="http://www.w3.org/2000/svg">
<path d="M115.585 27.3035C113.845 27.3035 112.138 27.3035 110.431 27.3035C110.431 26.4695 110.431 25.6996 110.431 24.8655C111.945 24.8655 113.427 24.8655 114.908 24.8655C114.908 24.3523 114.908 23.9673 114.908 23.4541C113.394 23.4541 111.912 23.4541 110.431 23.4541C110.431 22.62 110.431 21.9143 110.431 21.0802C112.138 21.0802 113.813 21.0802 115.456 21.0802C115.456 20.5991 115.456 20.182 115.456 19.765C113.233 19.765 111.043 19.765 108.82 19.765C108.82 22.7804 108.82 25.7317 108.82 28.715C111.075 28.715 113.298 28.715 115.521 28.715C115.585 28.2338 115.585 27.8168 115.585 27.3035ZM69.0018 23.6465C67.4876 23.6465 66.0057 23.6465 64.5238 23.6465C64.5238 22.7804 64.5238 22.0105 64.5238 21.1444C66.2635 21.1444 67.9387 21.1444 69.5816 21.1444C69.5816 20.6311 69.5816 20.182 69.5816 19.765C67.3266 19.765 65.1359 19.765 62.9131 19.765C62.9131 22.7804 62.9131 25.7317 62.9131 28.715C63.4285 28.715 63.9118 28.715 64.4594 28.715C64.4594 27.496 64.4594 26.3091 64.4594 25.058C66.038 25.058 67.4876 25.058 69.0018 25.058C69.0018 24.5447 69.0018 24.1277 69.0018 23.6465ZM83.4342 21.1765C83.4342 23.7428 83.4342 26.2128 83.4342 28.715C83.9819 28.715 84.4651 28.715 85.045 28.715C85.045 26.2128 85.045 23.7428 85.045 21.1765C86.0436 21.1765 86.9457 21.1765 87.8477 21.1765C87.8477 20.6632 87.8477 20.2141 87.8477 19.765C85.3993 19.765 83.0154 19.765 80.5993 19.765C80.5993 20.2462 80.5993 20.6953 80.5993 21.1765C81.5657 21.1765 82.4355 21.1765 83.4342 21.1765Z" fill="white"/>
<path d="M74.6193 28.8679C74.4974 28.8679 74.124 28.7791 74.0596 28.7791C72.3522 28.4263 71.418 27.3356 71.3213 25.6675C71.2247 23.7107 71.2891 21.7539 71.2891 19.765C71.7723 19.765 72.2233 19.765 72.8032 19.765C72.8032 20.0216 72.8032 20.2783 72.8032 20.5349C72.8354 22.1709 72.8032 23.839 72.8999 25.475C72.9643 26.694 73.8341 27.3997 75.0261 27.4318C76.3791 27.4639 77.3134 26.694 77.3778 25.3467C77.4422 23.7749 77.41 22.1709 77.41 20.5991C77.41 20.3424 77.41 20.0858 77.41 19.7971C77.9577 19.7971 78.4087 19.7971 78.8919 19.7971C78.9241 19.8292 78.9563 19.8613 78.9563 19.8933C78.9563 21.8501 79.0208 23.8069 78.9241 25.7637C78.8275 27.3677 77.7966 28.4263 76.218 28.8112C76.1214 28.8433 76.1131 28.846 75.8387 28.8679C75.0766 28.9286 74.6498 28.8679 74.6193 28.8679Z" fill="black"/>
<path d="M92.9084 28.8679C92.7865 28.8679 92.4131 28.7791 92.3487 28.7791C90.6413 28.4263 89.707 27.3356 89.6104 25.6675C89.5137 23.7107 89.5782 21.7539 89.5782 19.765C90.0614 19.765 90.5124 19.765 91.0923 19.765C91.0923 20.0216 91.0923 20.2783 91.0923 20.5349C91.1245 22.1709 91.0923 23.839 91.1889 25.475C91.2534 26.694 92.1232 27.3997 93.3151 27.4318C94.6682 27.4639 95.6024 26.694 95.6668 25.3467C95.7313 23.7749 95.6991 22.1709 95.6991 20.5991C95.6991 20.3424 95.6991 20.0858 95.6991 19.7971C96.2467 19.7971 96.6977 19.7971 97.181 19.7971C97.2132 19.8292 97.2454 19.8613 97.2454 19.8933C97.2454 21.8501 97.3098 23.8069 97.2132 25.7637C97.1165 27.3677 96.0856 28.4263 94.5071 28.8112C94.4105 28.8433 94.4022 28.846 94.1278 28.8679C93.3657 28.9286 92.9389 28.8679 92.9084 28.8679Z" fill="black"/>
<path d="M120.042 28.8367C119.218 28.8063 117.603 28.0171 117.292 27.7197C117.163 27.6555 117.067 27.5272 116.938 27.3989C117.26 27.046 117.55 26.6932 117.776 26.4044C118.432 26.7553 119.047 27.1253 119.837 27.3347C120.224 27.463 120.707 27.463 121.126 27.431C121.738 27.3668 122.221 27.1102 122.35 26.4365C122.447 25.8591 122.157 25.4742 121.416 25.2175C120.707 24.993 119.934 24.8326 119.225 24.576C117.776 24.0627 117.163 23.1966 117.325 21.9455C117.486 20.6303 118.484 19.7642 119.902 19.6038C121.351 19.4754 122.64 19.8283 123.671 20.7265C123.413 21.0794 123.156 21.4322 122.962 21.753C122.571 21.4067 121.132 20.9917 120.739 20.9831C120.346 20.9746 120.192 20.9511 119.902 21.0152C119.386 21.1115 119.032 21.4002 118.935 21.9455C118.871 22.5229 119.193 22.8437 119.676 23.0362C120.16 23.2287 120.675 23.357 121.158 23.4853C121.545 23.6136 121.899 23.7098 122.286 23.8381C123.542 24.3514 124.025 25.0571 123.993 26.2441C123.961 27.3989 123.284 28.2329 122.092 28.6179C121.899 28.682 121.126 28.8367 121.126 28.8367C121.126 28.8367 120.468 28.8524 120.042 28.8367Z" fill="black"/>
<path d="M107.145 28.7467C106.533 28.7467 105.622 28.7467 105.622 28.7467H105.379C104.831 28.041 103.758 26.3087 103.275 25.5709H102.345C102.345 25.5709 101.572 25.5709 101.088 25.5709C101.088 26.6295 101.088 27.7202 101.088 28.7467C100.541 28.7467 100.057 28.7467 99.542 28.7467C99.542 25.7955 99.542 22.748 99.542 19.7005C100.219 19.7005 100.863 19.7005 101.539 19.7005C102.377 19.7005 103.215 19.6684 104.02 19.7326C105.566 19.7968 106.629 20.695 106.855 22.0423C107.113 23.4858 106.432 24.6441 104.982 25.2856C104.918 25.3177 104.761 25.3464 104.761 25.3464C105.502 26.4691 106.275 27.5277 107.145 28.7467ZM101.088 24.1321C101.088 24.1321 103.118 24.1915 104.084 24.0632C104.858 23.967 105.276 23.2933 105.244 22.5555C105.212 21.8177 104.696 21.2403 103.923 21.2082C102.989 21.1441 102.055 21.2082 101.088 21.2082C101.088 22.2027 101.088 23.0735 101.088 24.1321Z" fill="black"/>
<path d="M115.585 27.3035C115.585 27.8168 115.585 28.2338 115.585 28.715C113.329 28.715 111.139 28.715 108.884 28.715C108.884 25.7317 108.884 22.7804 108.884 19.765C111.074 19.765 113.265 19.765 115.52 19.765C115.52 20.182 115.52 20.5991 115.52 21.0802C113.845 21.0802 112.202 21.0802 110.495 21.0802C110.495 21.8822 110.495 22.62 110.495 23.4541C111.976 23.4541 113.458 23.4541 114.972 23.4541C114.972 23.9673 114.972 24.3523 114.972 24.8655C113.491 24.8655 112.009 24.8655 110.495 24.8655C110.495 25.6996 110.495 26.4695 110.495 27.3035C112.138 27.3035 113.845 27.3035 115.585 27.3035Z" fill="black"/>
<path d="M69.0018 23.6465C69.0018 24.1598 69.0018 24.5768 69.0018 25.058C67.5199 25.058 66.038 25.058 64.4594 25.058C64.4594 26.3091 64.4594 27.496 64.4594 28.715C63.9118 28.715 63.4285 28.715 62.9131 28.715C62.9131 25.7317 62.9131 22.7804 62.9131 19.765C65.1359 19.765 67.3266 19.765 69.5816 19.765C69.5816 20.2141 69.5816 20.6311 69.5816 21.1444C67.9064 21.1444 66.2313 21.1444 64.5238 21.1444C64.5238 21.9784 64.5238 22.7804 64.5238 23.6465C66.0057 23.6465 67.4876 23.6465 69.0018 23.6465Z" fill="black"/>
<path d="M83.4341 21.1765C82.4354 21.1765 81.5334 21.1765 80.5991 21.1765C80.5991 20.6953 80.5991 20.2462 80.5991 19.765C83.0153 19.765 85.3992 19.765 87.8476 19.765C87.8476 20.2141 87.8476 20.6311 87.8476 21.1765C86.9455 21.1765 86.0435 21.1765 85.0448 21.1765C85.0448 23.7428 85.0448 26.2128 85.0448 28.715C84.465 28.715 83.9817 28.715 83.4341 28.715C83.4341 26.2128 83.4341 23.7428 83.4341 21.1765Z" fill="black"/>
<path d="M10.6702 13.7455L16.8149 7.63943L22.9629 13.7488L26.5384 10.1957L16.8149 0.532715L7.09473 10.1924L10.6702 13.7455Z" fill="black"/>
<path d="M8.14569 16.254L4.57031 12.7009L0.994756 16.2541L4.57014 19.8072L8.14569 16.254Z" fill="black"/>
<path d="M10.6705 18.7635L16.8153 24.8696L22.963 18.7605L26.5405 22.3116L26.5387 22.3136L16.8153 31.9763L7.09484 22.3168L7.08984 22.3119L10.6705 18.7635Z" fill="black"/>
<path d="M29.0612 19.8087L32.6367 16.2555L29.0613 12.7024L25.4858 16.2557L29.0612 19.8087Z" fill="black"/>
<path d="M20.4421 16.2526H20.4436L16.8155 12.6471L14.1342 15.3116H14.1339L13.8261 15.6178L13.1905 16.2494L13.1855 16.2543L13.1905 16.2596L16.8155 19.8618L20.4436 16.2563L20.4454 16.2543L20.4421 16.2526Z" fill="black"/>
<path d="M39.7231 4.46179H45.0766C46.4053 4.46179 47.41 4.80263 48.0909 5.4843C48.6179 6.01223 48.8813 6.66656 48.8813 7.44712V7.48013C48.8813 7.80996 48.8405 8.10144 48.7584 8.35423C48.6765 8.60737 48.5671 8.83522 48.4304 9.03866C48.2939 9.24226 48.1353 9.42094 47.955 9.57467C47.7745 9.72876 47.5806 9.86083 47.373 9.97054C48.0409 10.2237 48.5666 10.5671 48.9499 11.0015C49.3331 11.436 49.5249 12.0381 49.5249 12.8076V12.8405C49.5249 13.3684 49.4234 13.8301 49.2202 14.2262C49.017 14.6219 48.7259 14.9519 48.3469 15.2158C47.9679 15.4798 47.5122 15.6776 46.9795 15.8096C46.4469 15.9415 45.8566 16.0074 45.2089 16.0074H39.7231V4.46179ZM44.5414 9.12946C45.1026 9.12946 45.5481 9.0335 45.8779 8.8409C46.2079 8.64847 46.3729 8.33773 46.3729 7.90902V7.876C46.3729 7.49131 46.2298 7.19725 45.9438 6.99364C45.6577 6.79021 45.2452 6.6884 44.7063 6.6884H42.1981V9.12946H44.5414ZM45.218 13.781C45.779 13.781 46.2188 13.6795 46.5381 13.4759C46.857 13.2725 47.0167 12.9562 47.0167 12.5273V12.4945C47.0167 12.1096 46.868 11.8046 46.5711 11.5789C46.274 11.3538 45.7955 11.241 45.1354 11.241H42.1981V13.7811H45.218V13.781Z" fill="black"/>
<path d="M52.7524 4.46179H55.5017V16.0074H52.7524V4.46179Z" fill="black"/>
<path d="M59.4463 4.46179H61.7929L67.214 11.5706V4.46179H69.7262V16.0074H67.5612L61.9583 8.66778V16.0074H59.4463V4.46179Z" fill="black"/>
<path d="M77.4537 4.22388H79.8096L84.7875 16.0075H82.1161L81.0541 13.3835H76.1428L75.081 16.0075H72.4756L77.4537 4.22388ZM80.1416 11.1101L78.5983 7.316L77.0556 11.1101H80.1416Z" fill="black"/>
<path d="M87.7759 4.46179H90.1502L95.634 11.5706V4.46179H98.1753V16.0074H95.9852L90.3172 8.66778V16.0074H87.7759V4.46179Z" fill="black"/>
<path d="M107.328 16.2456C106.464 16.2456 105.661 16.0905 104.92 15.7808C104.179 15.4711 103.539 15.0474 103.001 14.5104C102.462 13.9736 102.041 13.3398 101.738 12.6092C101.435 11.8785 101.283 11.0981 101.283 10.2678V10.2347C101.283 9.40445 101.435 8.62698 101.738 7.90178C102.041 7.17676 102.462 6.54021 103.001 5.99228C103.539 5.44436 104.185 5.01243 104.937 4.69701C105.689 4.38159 106.52 4.22388 107.429 4.22388C107.979 4.22388 108.481 4.26837 108.936 4.35666C109.391 4.44547 109.803 4.567 110.174 4.72194C110.544 4.87705 110.886 5.06523 111.201 5.28648C111.515 5.50807 111.807 5.75148 112.076 6.01721L110.427 7.89347C109.966 7.48405 109.497 7.16274 109.02 6.93041C108.543 6.69809 108.007 6.58175 107.412 6.58175C106.918 6.58175 106.461 6.67593 106.04 6.86411C105.619 7.05229 105.257 7.31231 104.954 7.64436C104.651 7.9764 104.415 8.36124 104.246 8.79837C104.078 9.23584 103.994 9.70343 103.994 10.2015V10.2346C103.994 10.7326 104.078 11.2033 104.246 11.6458C104.415 12.0888 104.648 12.4761 104.946 12.8081C105.243 13.1402 105.602 13.4033 106.023 13.597C106.444 13.7909 106.907 13.8875 107.412 13.8875C108.086 13.8875 108.655 13.7658 109.121 13.5223C109.587 13.279 110.05 12.9468 110.511 12.526L112.161 14.1699C111.858 14.491 111.543 14.7789 111.218 15.0332C110.892 15.2881 110.536 15.5065 110.148 15.6894C109.761 15.8718 109.337 16.0105 108.877 16.1043C108.417 16.1983 107.9 16.2456 107.328 16.2456Z" fill="black"/>
<path d="M115.149 4.46179H123.911V6.72153H117.676V9.06363H123.163V11.3232H117.676V13.7478H123.994V16.0074H115.149V4.46179Z" fill="black"/>
<rect x="39.7231" y="23.6251" width="17.691" height="1.42832" fill="black"/>
</svg>
