<svg width="17" height="30" viewBox="0 0 17 30" fill="none" xmlns="http://www.w3.org/2000/svg">
<path d="M12.9068 5.80807H16.1335C16.489 5.80807 16.7789 5.51818 16.7789 5.16273V0.81424C16.7789 0.476443 16.5192 0.196628 16.1814 0.171419C15.1554 0.0983139 13.1488 0 11.7069 0C7.7441 0 5.16273 2.37466 5.16273 6.69038V10.9708H0.645342C0.2899 10.9708 0 11.2607 0 11.6161V16.1335C0 16.489 0.2899 16.7789 0.645342 16.7789H5.16273V29.0404C5.16273 29.3958 5.45263 29.6857 5.80807 29.6857H10.3255C10.6809 29.6857 10.9708 29.3958 10.9708 29.0404V16.7789H15.6319C15.9596 16.7789 16.2369 16.5318 16.2722 16.2041L16.7738 11.6867C16.8167 11.3061 16.5192 10.9708 16.1335 10.9708H10.9708V7.7441C10.9708 6.67525 11.838 5.80807 12.9068 5.80807Z" fill="#2F7BFC"/>
</svg>
