<svg width="30" height="25" viewBox="0 0 30 25" fill="none" xmlns="http://www.w3.org/2000/svg">
<path d="M29.6857 3.68262C28.5935 4.14667 27.4197 4.45919 26.1877 4.60007C27.4457 3.87913 28.4117 2.73676 28.8656 1.37539C27.6894 2.04305 26.3857 2.52841 24.9978 2.79003C23.8883 1.65713 22.3039 0.949219 20.5524 0.949219C16.6203 0.949219 13.7309 4.46038 14.619 8.10531C9.5588 7.86263 5.07131 5.54237 2.06687 2.01583C0.471261 4.63558 1.23938 8.06269 3.95067 9.79814C2.95373 9.76736 2.01368 9.50574 1.19361 9.06892C1.12682 11.7692 3.14916 14.2954 6.07815 14.8577C5.22097 15.0803 4.28216 15.1324 3.32727 14.9572C4.10158 17.2727 6.35027 18.9572 9.01704 19.0046C6.45664 20.9259 3.2308 21.7841 0 21.4195C2.69522 23.0733 5.89756 24.0381 9.33616 24.0381C20.6439 24.0381 27.0326 14.898 26.6466 6.70013C27.8365 5.87739 28.8694 4.85103 29.6857 3.68262Z" fill="#2F7BFC"/>
</svg>
