<svg width="31" height="23" viewBox="0 0 31 23" fill="none" xmlns="http://www.w3.org/2000/svg">
<path fill-rule="evenodd" clip-rule="evenodd" d="M27.6064 1.29228C28.9331 1.64948 29.9792 2.69556 30.3364 4.0223C30.9998 6.44615 30.9743 11.498 30.9743 11.498C30.9743 11.498 30.9743 16.5243 30.3364 18.9481C29.9792 20.2749 28.9331 21.321 27.6064 21.6782C25.1826 22.316 15.4871 22.316 15.4871 22.316C15.4871 22.316 5.81725 22.316 3.36788 21.6526C2.04114 21.2954 0.995055 20.2494 0.637856 18.9226C0 16.5243 0 11.4725 0 11.4725C0 11.4725 0 6.44615 0.637856 4.0223C0.995055 2.69556 2.06665 1.62396 3.36788 1.26676C5.79173 0.628906 15.4871 0.628906 15.4871 0.628906C15.4871 0.628906 25.1826 0.628906 27.6064 1.29228ZM20.4638 11.4778L12.4013 16.1214V6.83423L20.4638 11.4778Z" fill="#2F7BFC"/>
</svg>
