<svg width="36" height="37" viewBox="0 0 36 37" fill="none" xmlns="http://www.w3.org/2000/svg">
<path d="M19.356 14.9107C16.8795 16.4727 14.403 18.039 11.9252 19.6002C11.875 19.6316 11.8199 19.6561 11.7641 19.6814C12.0885 20.7188 12.413 21.7565 12.7365 22.7947C12.9677 23.5252 13.2075 24.254 13.4262 24.9876C13.5165 25.2918 13.6729 25.4547 14.0029 25.3971C14.0945 24.1556 14.1821 22.915 14.2758 21.6732C14.2866 21.5283 14.2737 21.0965 14.2913 20.9517C14.3768 20.8636 14.4623 20.7738 14.5478 20.6844C14.5783 20.656 14.6101 20.6272 14.6398 20.5989C14.6828 20.5542 14.7244 20.5095 14.767 20.4652C14.972 20.2744 15.1761 20.0802 15.3811 19.8885C15.4979 19.7781 15.6161 19.6672 15.7334 19.5572C16.0514 19.2594 16.369 18.9621 16.6926 18.669C17.5151 17.9213 18.3543 17.1908 19.1785 16.4461C20.2292 15.4955 21.2773 14.5416 22.3181 13.5803C22.3946 13.4741 22.444 13.3375 22.511 13.2206C22.3245 13.2455 22.1058 13.2146 21.9575 13.3018C21.0813 13.8239 20.2193 14.3667 19.356 14.9107ZM36 18.4258C36 28.3669 27.941 36.4258 17.9998 36.4258C8.05816 36.4258 0 28.3669 0 18.4258C0 8.48427 8.05816 0.425781 17.9998 0.425781C27.941 0.425781 36 8.48427 36 18.4258ZM26.0377 11.2547C26.0283 11.1859 26.0214 11.1154 26.0077 11.048C25.8491 10.2839 25.4305 10.0532 24.6811 10.3097C24.5711 10.3467 24.4585 10.3707 24.3468 10.4012C23.9287 10.574 23.5148 10.7588 23.0907 10.9173C22.3877 11.1825 21.6778 11.4304 20.9687 11.6861C20.5364 11.8661 20.1071 12.0544 19.671 12.225C18.5782 12.6521 17.4833 13.0711 16.3888 13.4939C14.1362 14.3624 11.8831 15.2304 9.62879 16.0989C9.12258 16.2944 8.61207 16.4796 8.11101 16.688C7.67055 16.8698 7.22106 17.046 6.8154 17.29C6.63577 17.3979 6.4381 17.6815 6.45873 17.8616C6.4785 18.0433 6.75653 18.1989 6.9267 18.3613C6.95764 18.391 7.01049 18.4004 7.05518 18.4142C8.24938 18.7837 9.44358 19.1533 10.6386 19.522C10.6322 19.6466 10.6464 19.7738 10.6855 19.8997L11.1199 21.2933L11.691 23.1217C11.7581 23.334 11.8255 23.5424 11.8917 23.7508C12.0541 24.2601 12.223 24.786 12.3764 25.3008C12.7108 26.4177 13.6123 26.504 13.8809 26.504C13.9209 26.504 13.9634 26.5015 14.0055 26.4997C14.0468 26.5015 14.088 26.5027 14.1288 26.5027C14.8185 26.5027 15.2616 26.1229 15.5254 25.8956C15.574 25.853 15.6204 25.8139 15.6539 25.7881C15.7085 25.7473 15.7596 25.703 15.8035 25.6536C15.8379 25.618 15.8692 25.581 15.9032 25.5458C15.9586 25.4839 16.0106 25.4259 16.0566 25.3803C16.4575 24.9833 16.8576 24.5875 17.2594 24.1913L17.7355 23.7216C17.8025 23.768 17.8696 23.814 17.937 23.86C19.0204 24.6687 20.102 25.4813 21.1892 26.2857C22.0005 26.8856 22.5677 26.7301 22.9605 25.8135C23.1277 25.0404 23.294 24.2656 23.4598 23.4943C23.612 22.723 23.7624 21.9538 23.9128 21.1841C24.0095 20.7613 24.1049 20.3372 24.2003 19.9148C24.4538 18.7236 24.7069 17.5311 24.9591 16.3395C25.0412 15.9592 25.1216 15.5793 25.2032 15.199C25.223 15.1088 25.2466 15.0181 25.2647 14.927C25.5234 13.7028 25.7803 12.4794 26.0377 11.2547Z" fill="#1274BB"/>
</svg>
