<svg width="303" height="80" viewBox="0 0 303 80" fill="none" xmlns="http://www.w3.org/2000/svg">
<path d="M126.16 21.4577V53.8123H120.012L103.881 34.1684V53.8123H96.4857V21.4577H102.679L118.764 41.1016V21.4577H126.16Z" fill="white"/>
<path d="M157.665 41.4713C157.665 41.5638 157.618 42.2109 157.526 43.4126H138.714C139.053 44.9533 139.854 46.1704 141.117 47.064C142.381 47.9577 143.952 48.4045 145.832 48.4045C147.126 48.4045 148.266 48.2196 149.252 47.8498C150.269 47.4492 151.209 46.8329 152.072 46.001L155.908 50.1609C153.566 52.8417 150.146 54.1821 145.647 54.1821C142.843 54.1821 140.362 53.6428 138.206 52.5643C136.049 51.455 134.385 49.9297 133.214 47.9885C132.043 46.0472 131.457 43.844 131.457 41.3789C131.457 38.9446 132.027 36.7568 133.167 34.8155C134.338 32.8434 135.925 31.3181 137.928 30.2396C139.962 29.1303 142.227 28.5757 144.723 28.5757C147.157 28.5757 149.36 29.0995 151.332 30.1472C153.304 31.1949 154.845 32.7048 155.954 34.6768C157.094 36.6181 157.665 38.883 157.665 41.4713ZM144.769 34.0298C143.136 34.0298 141.765 34.492 140.655 35.4164C139.546 36.3408 138.868 37.6042 138.622 39.2065H150.87C150.624 37.635 149.946 36.387 148.836 35.4626C147.727 34.5074 146.371 34.0298 144.769 34.0298Z" fill="white"/>
<path d="M201.948 28.9455L192.935 53.8123H186.002L180.41 38.3745L174.632 53.8123H167.699L158.732 28.9455H165.526L171.396 45.7699L177.498 28.9455H183.599L189.515 45.7699L195.57 28.9455H201.948Z" fill="white"/>
<path d="M213.305 54.1821C211.241 54.1821 209.223 53.9356 207.251 53.4425C205.278 52.9187 203.707 52.2716 202.536 51.5013L204.939 46.3245C206.049 47.0332 207.389 47.6187 208.961 48.0809C210.532 48.5123 212.073 48.728 213.583 48.728C216.633 48.728 218.159 47.9731 218.159 46.4632C218.159 45.7545 217.743 45.246 216.911 44.9379C216.079 44.6297 214.8 44.3678 213.074 44.1521C211.041 43.844 209.361 43.4896 208.036 43.0891C206.711 42.6885 205.556 41.9798 204.57 40.9629C203.614 39.946 203.137 38.4978 203.137 36.6181C203.137 35.0466 203.584 33.66 204.477 32.4582C205.402 31.2257 206.727 30.2705 208.452 29.5925C210.209 28.9146 212.273 28.5757 214.646 28.5757C216.402 28.5757 218.143 28.776 219.869 29.1766C221.625 29.5463 223.073 30.0702 224.214 30.7481L221.81 35.8786C219.622 34.646 217.234 34.0298 214.646 34.0298C213.105 34.0298 211.95 34.2455 211.179 34.6768C210.409 35.1082 210.024 35.6629 210.024 36.3408C210.024 37.1111 210.44 37.6504 211.272 37.9585C212.104 38.2667 213.429 38.5594 215.247 38.8367C217.28 39.1757 218.944 39.5454 220.239 39.946C221.533 40.3158 222.657 41.0091 223.613 42.026C224.568 43.0428 225.046 44.4603 225.046 46.2783C225.046 47.819 224.583 49.1902 223.659 50.392C222.735 51.5937 221.379 52.5335 219.591 53.2114C217.835 53.8585 215.74 54.1821 213.305 54.1821Z" fill="white"/>
<path d="M244.193 28.5757C246.504 28.5757 248.599 29.1149 250.479 30.1934C252.389 31.2411 253.884 32.7356 254.962 34.6768C256.041 36.5873 256.58 38.8213 256.58 41.3789C256.58 43.9364 256.041 46.1859 254.962 48.1271C253.884 50.0376 252.389 51.5321 250.479 52.6106C248.599 53.6582 246.504 54.1821 244.193 54.1821C240.772 54.1821 238.168 53.1036 236.381 50.9466V53.8123H229.494V19.5164H236.705V31.58C238.523 29.5771 241.019 28.5757 244.193 28.5757ZM242.945 48.2658C244.793 48.2658 246.303 47.6495 247.474 46.417C248.676 45.1536 249.277 43.4742 249.277 41.3789C249.277 39.2835 248.676 37.6196 247.474 36.387C246.303 35.1236 244.793 34.492 242.945 34.492C241.096 34.492 239.57 35.1236 238.369 36.387C237.198 37.6196 236.612 39.2835 236.612 41.3789C236.612 43.4742 237.198 45.1536 238.369 46.417C239.57 47.6495 241.096 48.2658 242.945 48.2658Z" fill="white"/>
<path d="M261.407 28.9455H268.617V53.8123H261.407V28.9455ZM265.012 25.4789C263.687 25.4789 262.608 25.0937 261.776 24.3234C260.944 23.553 260.528 22.5978 260.528 21.4577C260.528 20.3176 260.944 19.3623 261.776 18.592C262.608 17.8216 263.687 17.4364 265.012 17.4364C266.337 17.4364 267.415 17.8062 268.247 18.5458C269.079 19.2853 269.495 20.2097 269.495 21.319C269.495 22.5208 269.079 23.5222 268.247 24.3234C267.415 25.0937 266.337 25.4789 265.012 25.4789Z" fill="white"/>
<path d="M291.348 52.6106C290.639 53.1344 289.761 53.535 288.713 53.8123C287.696 54.0588 286.618 54.1821 285.478 54.1821C282.519 54.1821 280.224 53.4271 278.591 51.9172C276.988 50.4074 276.187 48.1888 276.187 45.2614V35.0466H272.351V29.5001H276.187V23.4452H283.398V29.5001H289.591V35.0466H283.398V45.169C283.398 46.2167 283.66 47.0332 284.183 47.6187C284.738 48.1734 285.508 48.4507 286.494 48.4507C287.635 48.4507 288.605 48.1425 289.406 47.5263L291.348 52.6106Z" fill="white"/>
<path d="M298.122 54.1821C296.859 54.1821 295.796 53.7507 294.933 52.8879C294.07 52.0251 293.639 50.9466 293.639 49.6524C293.639 48.3274 294.07 47.2643 294.933 46.4632C295.796 45.6312 296.859 45.2152 298.122 45.2152C299.386 45.2152 300.449 45.6312 301.311 46.4632C302.174 47.2643 302.606 48.3274 302.606 49.6524C302.606 50.9466 302.174 52.0251 301.311 52.8879C300.449 53.7507 299.386 54.1821 298.122 54.1821Z" fill="white"/>
<path d="M51.597 30.716C54.153 30.673 55.687 31.868 55.687 33.917C55.687 36.007 54.153 37.245 51.596 37.244H44.95V30.716H51.597Z" fill="white"/>
<path d="M51.596 42.493C54.75 42.45 56.709 43.773 56.709 45.95C56.709 48.254 54.75 49.576 51.596 49.576H44.95V42.493H51.596Z" fill="white"/>
<path fill-rule="evenodd" clip-rule="evenodd" d="M40.557 79.893C62.5252 79.893 80.334 62.0842 80.334 40.116C80.334 18.1478 62.5252 0.339005 40.557 0.339005C18.5888 0.339005 0.779999 18.1478 0.779999 40.116C0.779999 62.0842 18.5888 79.893 40.557 79.893ZM23.596 25.212L38.082 44.413V25.212H40.826V22.523H45.563V25.212H50.936V22.523H55.674V25.5685C60.0147 26.4683 62.589 29.0232 62.589 32.679C62.589 35.88 60.629 38.397 57.434 39.25C61.31 39.975 63.654 42.876 63.654 46.802C63.654 51.0578 60.6513 53.958 55.674 54.8158V57.791H50.936V55.08H45.563V57.791H40.826V55.081H38.338L38.3372 55.08H38.219V54.9231L23.895 35.921V55.081H17.461V25.212H23.596Z" fill="white"/>
</svg>
