<svg width="234" height="62" viewBox="0 0 234 62" fill="none" xmlns="http://www.w3.org/2000/svg">
<path d="M97.009 16.3398V41.3738H92.252L79.7709 26.1746V41.3738H74.0488V16.3398H78.8408L91.2864 31.5391V16.3398H97.009Z" fill="white"/>
<path d="M121.388 31.8235C121.388 31.8951 121.351 32.3958 121.28 33.3256H106.724C106.987 34.5177 107.606 35.4594 108.584 36.1508C109.562 36.8423 110.777 37.188 112.232 37.188C113.233 37.188 114.115 37.0449 114.878 36.7588C115.665 36.4489 116.392 35.972 117.06 35.3283L120.028 38.547C118.216 40.6212 115.57 41.6584 112.089 41.6584C109.919 41.6584 108 41.2411 106.331 40.4066C104.662 39.5483 103.375 38.3681 102.469 36.8661C101.563 35.3641 101.109 33.6594 101.109 31.752C101.109 29.8685 101.55 28.1757 102.432 26.6737C103.339 25.1478 104.566 23.9676 106.116 23.1331C107.69 22.2748 109.443 21.8457 111.374 21.8457C113.257 21.8457 114.962 22.251 116.487 23.0616C118.013 23.8723 119.206 25.0405 120.064 26.5664C120.946 28.0684 121.388 29.8209 121.388 31.8235ZM111.409 26.0658C110.146 26.0658 109.085 26.4234 108.226 27.1386C107.368 27.8539 106.844 28.8314 106.653 30.0712H116.13C115.94 28.8552 115.415 27.8896 114.556 27.1744C113.698 26.4353 112.649 26.0658 111.409 26.0658Z" fill="white"/>
<path d="M155.649 22.1328L148.675 41.3732H143.311L138.984 29.4284L134.513 41.3732H129.149L122.211 22.1328H127.468L132.01 35.1505L136.731 22.1328H141.451L146.029 35.1505L150.714 22.1328H155.649Z" fill="white"/>
<path d="M164.437 41.6584C162.84 41.6584 161.278 41.4676 159.753 41.0861C158.226 40.6808 157.011 40.1801 156.104 39.5841L157.964 35.5786C158.823 36.127 159.859 36.58 161.076 36.9376C162.291 37.2714 163.484 37.4383 164.652 37.4383C167.012 37.4383 168.193 36.8542 168.193 35.686C168.193 35.1376 167.871 34.7442 167.227 34.5058C166.583 34.2673 165.594 34.0647 164.258 33.8978C162.685 33.6594 161.385 33.3852 160.36 33.0753C159.335 32.7653 158.441 32.217 157.678 31.4302C156.939 30.6433 156.57 29.5228 156.57 28.0684C156.57 26.8525 156.915 25.7796 157.606 24.8497C158.322 23.8961 159.347 23.157 160.682 22.6324C162.041 22.1079 163.638 21.8457 165.474 21.8457C166.833 21.8457 168.18 22.0007 169.516 22.3106C170.874 22.5967 171.995 23.0021 172.878 23.5266L171.018 27.4962C169.325 26.5425 167.477 26.0658 165.474 26.0658C164.282 26.0658 163.388 26.2326 162.792 26.5664C162.196 26.9001 161.898 27.3293 161.898 27.8539C161.898 28.4499 162.22 28.8671 162.864 29.1055C163.508 29.344 164.533 29.5705 165.939 29.785C167.512 30.0473 168.8 30.3334 169.802 30.6433C170.803 30.9295 171.673 31.4659 172.413 32.2527C173.152 33.0395 173.521 34.1362 173.521 35.5429C173.521 36.735 173.163 37.7959 172.448 38.7258C171.733 39.6556 170.684 40.3828 169.301 40.9073C167.942 41.408 166.321 41.6584 164.437 41.6584Z" fill="white"/>
<path d="M188.336 21.8474C190.124 21.8474 191.745 22.2646 193.2 23.0991C194.678 23.9097 195.834 25.0661 196.668 26.5681C197.503 28.0463 197.92 29.7748 197.92 31.7537C197.92 33.7326 197.503 35.4731 196.668 36.9751C195.834 38.4533 194.678 39.6097 193.2 40.4442C191.745 41.2547 190.124 41.6601 188.336 41.6601C185.689 41.6601 183.674 40.8256 182.292 39.1567V41.374H176.963V14.8379H182.542V24.172C183.949 22.6222 185.88 21.8474 188.336 21.8474ZM187.37 37.0824C188.8 37.0824 189.969 36.6056 190.875 35.6519C191.805 34.6744 192.27 33.375 192.27 31.7537C192.27 30.1325 191.805 28.845 190.875 27.8913C189.969 26.9138 188.8 26.4251 187.37 26.4251C185.94 26.4251 184.759 26.9138 183.83 27.8913C182.924 28.845 182.47 30.1325 182.47 31.7537C182.47 33.375 182.924 34.6744 183.83 35.6519C184.759 36.6056 185.94 37.0824 187.37 37.0824Z" fill="white"/>
<path d="M201.656 22.1335H207.234V41.374H201.656V22.1335ZM204.445 19.4513C203.42 19.4513 202.585 19.1533 201.941 18.5573C201.297 17.9612 200.976 17.2221 200.976 16.34C200.976 15.4578 201.297 14.7187 201.941 14.1226C202.585 13.5266 203.42 13.2285 204.445 13.2285C205.47 13.2285 206.304 13.5146 206.948 14.0869C207.592 14.6591 207.914 15.3743 207.914 16.2326C207.914 17.1625 207.592 17.9373 206.948 18.5573C206.304 19.1533 205.47 19.4513 204.445 19.4513Z" fill="white"/>
<path d="M224.823 40.4433C224.274 40.8486 223.595 41.1586 222.784 41.3731C221.997 41.5639 221.163 41.6593 220.281 41.6593C217.991 41.6593 216.216 41.0751 214.952 39.9068C213.712 38.7386 213.092 37.022 213.092 34.757V26.8534H210.124V22.5619H213.092V17.877H218.672V22.5619H223.463V26.8534H218.672V34.6855C218.672 35.4961 218.874 36.1279 219.279 36.5809C219.708 37.0101 220.304 37.2247 221.067 37.2247C221.95 37.2247 222.7 36.9862 223.32 36.5094L224.823 40.4433Z" fill="white"/>
<path d="M230.065 41.6587C229.088 41.6587 228.266 41.325 227.598 40.6574C226.93 39.9898 226.597 39.1553 226.597 38.1539C226.597 37.1287 226.93 36.3062 227.598 35.6863C228.266 35.0426 229.088 34.7207 230.065 34.7207C231.043 34.7207 231.866 35.0426 232.533 35.6863C233.201 36.3062 233.535 37.1287 233.535 38.1539C233.535 39.1553 233.201 39.9898 232.533 40.6574C231.866 41.325 231.043 41.6587 230.065 41.6587Z" fill="white"/>
<path d="M39.3178 23.5028C41.2955 23.4696 42.4824 24.3942 42.4824 25.9796C42.4824 27.5967 41.2955 28.5546 39.3171 28.5538H34.1748V23.5028H39.3178Z" fill="white"/>
<path d="M39.3171 32.616C41.7574 32.5828 43.2732 33.6064 43.2732 35.2908C43.2732 37.0735 41.7574 38.0964 39.3171 38.0964H34.1748V32.616H39.3171Z" fill="white"/>
<path fill-rule="evenodd" clip-rule="evenodd" d="M30.777 61.554C47.7746 61.554 61.554 47.7746 61.554 30.777C61.554 13.7794 47.7746 0 30.777 0C13.7794 0 0 13.7794 0 30.777C0 47.7746 13.7794 61.554 30.777 61.554ZM17.6536 19.2452L28.862 34.1017V19.2452H30.9851V17.1646H34.6503V19.2452H38.8076V17.1646H42.4736V19.521C45.8322 20.2172 47.824 22.1941 47.824 25.0227C47.824 27.4994 46.3075 29.4469 43.8354 30.1069C46.8344 30.6679 48.648 32.9125 48.648 35.9502C48.648 39.2431 46.3247 41.4871 42.4736 42.1508V44.4528H38.8076V42.3552H34.6503V44.4528H30.9851V42.356H29.0601L29.0595 42.3552H28.968V42.2338L17.885 27.5312V42.356H12.9067V19.2452H17.6536Z" fill="white"/>
</svg>
