<svg width="904" height="138" viewBox="0 0 904 138" fill="none" xmlns="http://www.w3.org/2000/svg">
<path d="M47.5001 24.6999C41.6001 25.8999 32.6001 31.4999 28.8001 36.3999C19.8001 47.5999 16.5001 59.4999 17.2001 78.7999C17.5001 88.9999 17.9001 91.2999 20.3001 96.4999C21.9001 99.7999 24.5001 104 26.3001 105.8C38.2001 118.2 63.6001 119.2 75.5001 107.6C79.3001 104 79.9001 102.7 81.0001 96.2999C81.7001 92.3999 82.0001 88.4999 81.7001 87.5999C80.8001 85.1999 76.8001 85.6999 72.9001 88.5999C66.6001 93.2999 62.3001 94.9999 56.5001 94.9999C45.2001 94.9999 41.1001 89.6999 41.0001 75.2999C41.0001 60.8999 44.9001 49.2999 51.0001 45.6999C54.6001 43.4999 61.3001 43.4999 63.1001 45.5999C63.8001 46.4999 64.6001 50.3999 64.9001 54.2999L65.5001 61.4999L71.5001 61.7999C82.1001 62.2999 88.0001 56.8999 88.0001 46.6999C88.0001 32.1999 77.2001 23.8999 58.7001 24.0999C53.6001 24.1999 48.6001 24.3999 47.5001 24.6999Z" fill="white"/>
<path d="M109.801 24.7005C101.701 25.1005 101.001 25.2005 100.601 27.3005C100.401 28.5005 99.0005 46.6005 97.5005 67.5005C95.6005 94.6005 95.1005 106.3 95.9005 108.1C97.6005 112.7 100.601 114 109.101 114H116.801L117.301 109.8C117.701 107.4 118.201 100.7 118.601 94.7005L119.201 84.0005H122.601C125.501 84.0005 126.101 84.4005 126.601 86.7005C131.501 109.1 139.601 118.5 151.101 115.1C155.801 113.7 162.001 108.5 162.001 106.1C162.001 105.1 158.401 99.1005 154.001 92.7005L146.101 81.1005L149.501 79.0005C164.001 70.0005 166.201 40.7005 153.201 30.0005C146.001 24.1005 141.501 23.5005 109.801 24.7005ZM137.201 46.0005C140.001 49.4005 140.501 54.5005 138.501 59.6005C136.501 65.0005 133.101 67.0005 126.001 67.0005H121.001V60.7005C121.001 49.2005 122.001 44.2005 124.401 43.6005C129.001 42.6005 135.401 43.8005 137.201 46.0005Z" fill="white"/>
<path d="M260 24.8993L251.5 25.4993L251.3 30.4993C251 36.0993 248.4 68.9993 246.9 84.8993C246.4 90.6993 246 98.1993 246 101.799C246 107.499 246.3 108.499 248.9 111.099C251.6 113.799 252.4 113.999 259.3 113.999C268 113.999 267.5 114.899 268.5 99.9993L269.2 90.4993L278.4 90.3993C289.1 90.2993 294.4 88.3993 301.4 81.8993C312.2 71.9993 315.9 51.6993 309.5 37.3993C306.9 31.5993 302.7 27.8993 295.7 25.5993C290.8 23.9993 278.4 23.6993 260 24.8993ZM288.3 46.0993C290.7 48.9993 290.6 59.0993 288.1 64.5993C285.5 70.1993 282.7 71.9993 276.3 71.9993H271V66.1993C271 63.0993 271.3 56.7993 271.7 52.2993C272.4 42.9993 272.5 42.8993 281.5 43.5993C285.1 43.7993 287 44.5993 288.3 46.0993Z" fill="white"/>
<path d="M414.2 25.4995C395.1 30.7995 384 49.1995 384 75.3995C384 90.2995 386.9 98.9995 394.3 106.8C401.5 114.2 414.8 117.5 428.5 115.1C445.9 112 457.1 100.7 462.1 80.9995C464.9 69.7995 464.5 50.4995 461.2 41.9995C458.8 35.9995 452.9 29.3995 447 26.3995C442.2 23.9995 421.8 23.3995 414.2 25.4995ZM434.3 45.9995C438.7 49.4995 440.3 55.5995 439.8 66.6995C439.1 78.9995 436.5 86.3995 431 91.3995C427.5 94.4995 426.3 94.9995 421.9 94.9995C417.5 94.9995 416.4 94.5995 413.5 91.6995C409.1 87.2995 407.7 81.5995 408.2 70.4995C409.1 53.6995 416 43.9995 427.1 43.9995C430.2 43.9995 432.6 44.6995 434.3 45.9995Z" fill="white"/>
<path d="M594 24.8993L585.5 25.4993L585.3 30.4993C585 36.0993 582.4 68.9993 580.9 84.8993C580.4 90.6993 580 98.1993 580 101.799C580 107.499 580.3 108.499 582.9 111.099C585.6 113.799 586.4 113.999 593.3 113.999C602 113.999 601.5 114.899 602.5 99.9993L603.2 90.4993L612.4 90.3993C623.1 90.2993 628.4 88.3993 635.4 81.8993C646.2 71.9993 649.9 51.6993 643.5 37.3993C640.9 31.5993 636.7 27.8993 629.7 25.5993C624.8 23.9993 612.4 23.6993 594 24.8993ZM622.3 46.0993C624.7 48.9993 624.6 59.0993 622.1 64.5993C619.5 70.1993 616.7 71.9993 610.3 71.9993H605V66.1993C605 63.0993 605.3 56.7993 605.7 52.2993C606.4 42.9993 606.5 42.8993 615.5 43.5993C619.1 43.7993 621 44.5993 622.3 46.0993Z" fill="white"/>
<path d="M675.5 25.3998C667 28.0998 660.1 33.6998 656.5 40.9998C654.3 45.3998 653.4 56.1998 654.9 61.5998C657.1 69.6998 660.9 73.3998 672.7 78.9998C684.1 84.3998 686 85.9998 686 89.6998C686 93.2998 681.9 95.2998 675.4 94.7998C671 94.3998 668.8 93.4998 664 90.1998C657.7 85.6998 653.7 84.8998 652.5 87.6998C651.1 91.2998 650.7 102.6 651.9 104.8C653.7 108.1 662.7 112.8 670.9 114.6C686.9 118.2 701.3 113.1 707 102C709.7 96.7998 710.5 88.3998 709 82.1998C707.1 74.2998 702.5 69.7998 690.3 63.8998C684.5 61.0998 678.7 57.7998 677.4 56.4998C672.2 51.2998 676.3 43.9998 684.3 43.9998C689.7 43.9998 691.2 45.5998 692 51.8998L692.5 56.4998L697.2 56.7998C705.4 57.2998 710.2 53.4998 711.5 45.3998C712.9 36.2998 707.7 27.6998 699.3 25.1998C694.1 23.6998 680.7 23.7998 675.5 25.3998Z" fill="white"/>
<path d="M167.3 25.7C166.6 25.9 166 26.8 166 27.6C166 29.7 173 46.6 181.6 65.2L188.8 81L188.3 93.4C187.5 111.9 188.9 114 202.4 114H209.8L210.3 110.7C210.6 109 211.2 102.6 211.6 96.6L212.3 85.6L217.9 78.1C229.7 62.1 241.4 38.9 240.8 32.7C240.4 28.4 235.8 25.9 227.1 25.2L220.4 24.8L216.5 35.6C212.4 47.5 204 67 203.1 67C202.5 67 201 62.5 196.3 46.5C191.1 28.4 187.7 24.9 175.4 25.1C171.6 25.1 167.9 25.4 167.3 25.7Z" fill="white"/>
<path d="M320.7 26.2C318.4 28 317 32.4 317 38.1V43H327.5H338V46.7C338 48.8 337.1 60.6 336 73C334.9 85.4 334 98.3 334 101.8C334 107.5 334.3 108.5 336.9 111.1C339.7 113.8 340.3 114 347.8 114H355.8L356.4 107.7C356.7 104.3 357.7 90.9 358.5 78C359.3 65.1 360.3 51.9 360.6 48.7L361.2 43H370C381.9 43 383.3 41.9 383.8 32.1L384.2 25H353.3C330.1 25 322 25.3 320.7 26.2Z" fill="white"/>
<path d="M473.3 27.2C471.8 28.8 471 31.5 470.5 36.2L469.8 43H480.5H491.3L490.7 53.2C490.4 58.9 489.4 72.5 488.5 83.4C487.6 94.4 487.1 104.8 487.5 106.6C488.5 112.1 492 114 501.1 114H508.9L509.4 110.7C509.8 108.1 514.1 46.4 514 43.7C514 43.3 518.2 43 523.4 43C532.4 43 533 42.9 534.9 40.4C536.5 38.3 537 36.3 537 31.4V25H506.2C475.5 25 475.3 25 473.3 27.2Z" fill="white"/>
<path d="M543.7 60.6999C540.9 96.8999 540.5 106.5 541.6 109.5C542.8 112.4 547.6 114 555.4 114C564.1 114 563.5 114.9 564.5 101C566.6 69.5999 568.1 44.5999 568.1 38.8999C568.2 27.3999 565.5 24.9999 553.1 24.9999H546.4L543.7 60.6999Z" fill="white"/>
<path d="M757.6 32.1992C756.8 41.3992 753.3 89.1992 752.7 98.3992C751.7 113.199 753.1 113.999 780.3 113.999C804.4 113.999 803.8 114.299 804.2 103.499L804.5 96.4992L790.3 96.1992L776 95.8992V91.5992C776 89.1992 776.3 85.1992 776.6 82.5992L777.3 77.9992H784.9C795 77.8992 796.2 76.9992 797.1 68.1992C797.5 64.4992 797.6 61.1992 797.3 60.6992C797.1 60.2992 792.6 59.9992 787.3 59.9992H777.7L778.4 53.8992C778.7 50.4992 779 46.6992 779 45.3992C779 43.0992 779.2 43.0992 790.6 42.7992C801.8 42.4992 802.4 42.3992 804.1 39.9992C805.2 38.3992 806 35.1992 806.2 31.4992L806.5 25.4992L782.3 25.1992L758.2 24.9992L757.6 32.1992Z" fill="white"/>
<path d="M820.5 26.2003C819.6 28.6003 816 75.4003 816 84.0003C816 99.2003 820.2 107.5 830.3 112.4C844 119 863.8 115.6 873.5 104.9C882.3 95.2003 884.8 83.6003 886.6 44.8003L887.3 30.2003L884.6 27.5003C882.2 25.1003 881.5 24.9003 873.8 25.2003L865.5 25.5003L865.3 29.0003C863.7 51.4003 861.7 73.7003 860.9 78.4003C859 89.3003 854.7 95.0003 848.3 95.0003C840.5 95.0003 839.2 89.3003 840.9 62.9003C843 31.7003 842.5 28.1003 836.8 26.1003C832.4 24.6003 821.1 24.7003 820.5 26.2003Z" fill="white"/>
<path d="M722.7 93.0996C718.5 95.4996 716.1 105 718.4 110.5C721.1 116.9 730.6 117.9 736.3 112.2C740.8 107.7 741.4 97.4996 737.4 93.5996C735.6 91.7996 725.6 91.3996 722.7 93.0996Z" fill="white"/>
</svg>
