<svg width="50" height="50" viewBox="0 0 50 50" fill="none" xmlns="http://www.w3.org/2000/svg">
<path fill-rule="evenodd" clip-rule="evenodd" d="M13.6401 24.7682C16.7451 22.1809 21.2555 22.1808 24.3602 24.7681C24.7845 25.1217 25.415 25.0644 25.7686 24.6401C26.1222 24.2158 26.0649 23.5853 25.6406 23.2317C21.7941 20.0262 16.2064 20.0265 12.3598 23.2317C11.9355 23.5852 11.8782 24.2158 12.2317 24.6401C12.5853 25.0644 13.2158 25.1217 13.6401 24.7682Z" fill="#999999"/>
<path fill-rule="evenodd" clip-rule="evenodd" d="M24.0013 16.6668C23.0808 16.6668 22.3346 15.9206 22.3346 15.0002C22.3346 14.0797 23.0808 13.3335 24.0013 13.3335C24.9218 13.3335 25.668 14.0797 25.668 15.0002C25.668 15.9206 24.9218 16.6668 24.0013 16.6668Z" fill="#999999"/>
<path fill-rule="evenodd" clip-rule="evenodd" d="M14.0013 16.6668C13.0808 16.6668 12.3346 15.9206 12.3346 15.0002C12.3346 14.0797 13.0808 13.3335 14.0013 13.3335C14.9218 13.3335 15.668 14.0797 15.668 15.0002C15.668 15.9206 14.9218 16.6668 14.0013 16.6668Z" fill="#999999"/>
<path fill-rule="evenodd" clip-rule="evenodd" d="M19 36C28.3888 36 36 28.3888 36 19C36 9.61116 28.3888 2 19 2C9.61116 2 2 9.61116 2 19C2 28.3888 9.61116 36 19 36ZM19 38C29.4934 38 38 29.4934 38 19C38 8.50659 29.4934 0 19 0C8.50659 0 0 8.50659 0 19C0 29.4934 8.50659 38 19 38Z" fill="#999999"/>
<path fill-rule="evenodd" clip-rule="evenodd" d="M31.2929 31.2929C31.6834 30.9024 32.3166 30.9024 32.7071 31.2929L49.7071 48.2929C50.0976 48.6834 50.0976 49.3166 49.7071 49.7071C49.3166 50.0976 48.6834 50.0976 48.2929 49.7071L31.2929 32.7071C30.9024 32.3166 30.9024 31.6834 31.2929 31.2929Z" fill="#999999"/>
</svg>
