<svg width="13" height="13" viewBox="0 0 13 13" fill="none" xmlns="http://www.w3.org/2000/svg">
<path d="M0.415664 10.6347L2.73907 8.41962C2.10787 7.55307 1.73677 6.50078 1.73677 5.36783C1.73677 2.40778 4.26368 0 7.36876 0C10.474 0 13 2.40778 13 5.36783C13 8.32859 10.474 10.7362 7.36876 10.7362C6.51305 10.7362 5.70188 10.553 4.97488 10.226L2.48075 12.6038C2.21185 12.8593 1.85297 13 1.47115 13C1.07979 13 0.710485 12.8534 0.431456 12.588C-0.137628 12.0454 -0.144629 11.1685 0.415664 10.6347ZM10.7477 5.36783C10.7477 3.592 9.23169 2.14676 7.36876 2.14676C5.50553 2.14676 3.98957 3.592 3.98957 5.36783C3.98957 7.14423 5.50553 8.58932 7.36876 8.58932C9.23169 8.58932 10.7477 7.14423 10.7477 5.36783Z" fill="#A0A0A0"/>
</svg>
