<?xml version="1.0" encoding="utf-8"?>
<!-- Generator: Adobe Illustrator 22.1.0, SVG Export Plug-In . SVG Version: 6.00 Build 0)  -->
<svg version="1.1" id="Слой_1" xmlns="http://www.w3.org/2000/svg" xmlns:xlink="http://www.w3.org/1999/xlink" x="0px" y="0px"
	 viewBox="0 0 552 154" style="enable-background:new 0 0 552 154;" xml:space="preserve">
	 <style xmlns="http://www.w3.org/2000/svg">
	     #light:target {
	       fill: #ffffff;
	     }
	   </style>
<g id="light">
<g>
	<path d="M181.6,53.6v9.8h11.1v6.5h-11.1v19.7c0,1.7,0.2,2.9,0.7,3.6c0.5,0.8,1.6,1.1,3.3,1.1c1.8,0,3.7-0.4,5.7-1.2l2.3,6.1
		c-4,2-8.1,3-12.3,3c-4.2,0-7-0.9-8.5-2.7c-1.5-1.8-2.2-4.4-2.2-7.8V69.9h-3.5l-0.9-4.7c0.8-1,2.5-2,5.1-3c0.6-4.3,2.1-7.1,4.4-8.6
		H181.6z"/>
	<path d="M219.7,73c-3.9,0-6.7,0.8-8.2,2.3V93c4.2,0.8,7.1,1.9,8.6,3.3l-0.8,6h-22.3l-0.8-6c0.7-1,2.2-1.9,4.3-2.6V72
		c-1.8-0.6-3.2-1.5-4.3-2.6l0.8-6c2.9-0.6,5.4-0.9,7.7-0.9c2.3,0,4.2,0.1,5.7,0.2v4.9c1.2-1.4,2.7-2.6,4.6-3.5
		c1.9-0.9,3.6-1.4,5.1-1.4c1.5,0,2.6,0.1,3.2,0.4l-0.2,10.1C222.1,73,221,73,219.7,73z"/>
	<path d="M228.1,69.2c0-0.8,0-1.6,0.1-2.5c4.8-2.6,10-3.9,15.6-3.9c5.6,0,9.5,1.1,11.9,3.2c2.4,2.1,3.6,5.6,3.6,10.5V93
		c1.8,0.4,3.2,0.8,4.3,1.3v6.8c-2.6,1.2-6.4,1.9-11.4,1.9c-0.5-1.3-1-3-1.3-4.9c-2.2,3.3-6.3,4.9-12.1,4.9c-3.5,0-6.4-1-8.9-3
		c-2.5-2-3.7-4.8-3.7-8.2c0-3.5,1.2-6.2,3.5-8.2c2.3-2,5.7-3,10.3-3h8.5v-3.7c0-4-2.2-6.1-6.5-6.1c-1.6,0-2.9,0.2-4,0.5
		c-0.1,2.2-0.4,3.9-0.9,5.1h-7.6C228.6,74.3,228.1,72,228.1,69.2z M242.1,95c2.6,0,4.7-0.8,6.3-2.3v-6.4H243c-3.7,0-5.6,1.4-5.6,4.3
		c0,1.3,0.4,2.4,1.2,3.2C239.4,94.6,240.6,95,242.1,95z"/>
	<path d="M286.6,47.1c3-0.7,5.8-1,8.5-1c2.7,0,5,0.1,6.9,0.2V93c1.6,0.3,3,0.7,4.3,1.3v6.1c-3.1,1.7-7.1,2.5-11.8,2.5
		c-0.5-0.3-1-0.7-1.5-1.4c-0.5-0.7-0.8-1.3-0.8-1.9c-1.1,0.9-2.6,1.7-4.4,2.4s-3.6,1-5.4,1c-5.6,0-9.7-1.5-12.2-4.6s-3.8-8-3.8-14.9
		c0-7.8,1.9-13.3,5.8-16.5c3.4-2.8,7.5-4.2,12.5-4.2c2.2,0,4.4,0.3,6.5,0.8v-7.7c-2.4-0.7-4.2-1.6-5.3-2.8L286.6,47.1z M284,95
		c3,0,5.3-0.9,7.2-2.6V71.5c-2.1-0.5-4.4-0.8-6.8-0.8c-2.4,0-4.1,1.1-5.2,3.2c-1.1,2.1-1.6,5.2-1.6,9.4c0,4.2,0.5,7.2,1.6,9
		C280.2,94.1,281.8,95,284,95z"/>
	<path d="M328.3,102.9c-6.2,0-10.9-1.7-14-5c-3.1-3.3-4.7-8.1-4.7-14.5c0-3.8,0.5-7.1,1.6-9.9c1.1-2.8,2.6-4.9,4.4-6.4
		c3.6-2.9,7.9-4.4,12.7-4.4s8.5,1.2,11.1,3.7c2.6,2.5,3.9,6.9,3.9,13.3c0,3.7-1.8,5.6-5.5,5.6h-16.9c0.2,3.3,1.1,5.6,2.5,6.9
		c1.5,1.3,3.8,2,7,2c1.8,0,3.4-0.2,5.1-0.6c1.6-0.4,2.8-0.8,3.5-1.2l1.1-0.6l2.3,6.2c-0.3,0.4-0.8,0.8-1.4,1.4
		c-0.6,0.5-2.1,1.3-4.5,2.2C334.1,102.5,331.3,102.9,328.3,102.9z M333.2,78.4c0.1-0.7,0.2-1.6,0.2-2.6c0-1-0.4-2.1-1.2-3.3
		c-0.8-1.2-2.3-1.8-4.3-1.8c-2.1,0-3.6,0.6-4.7,1.9c-1.1,1.2-1.8,3.3-2.2,6.3L333.2,78.4z"/>
	<path d="M362.8,69.8c-3.4,0-5.1,1-5.1,3c0,1.9,1.8,3.3,5.4,4.3l6.1,1.6c6.3,1.7,9.5,5.3,9.5,11c0,3.9-1.4,7.1-4.1,9.5
		c-2.7,2.5-7.1,3.7-13,3.7c-5.9,0-10.6-0.8-13.9-2.5c-0.1-0.6-0.1-1.1-0.1-1.7c0-2.9,0.6-5.4,1.7-7.7h6.5c0.7,1.2,1.1,2.5,1.3,3.9
		c1,0.3,2.5,0.5,4.4,0.5c4.6,0,6.8-1.3,6.8-3.9c0-0.8-0.3-1.5-0.9-2.1c-0.6-0.5-1.8-1.1-3.7-1.6l-6.1-1.8c-3.2-0.9-5.6-2.2-7.4-3.9
		c-1.8-1.7-2.6-4.3-2.6-7.7c0-3.4,1.4-6.2,4.1-8.4c2.8-2.2,6.7-3.3,11.8-3.3c5.1,0,9.4,0.8,13,2.3c0.1,0.5,0.1,1,0.1,1.6
		c0,2.7-0.6,5.2-1.7,7.5h-6.4c-0.7-1.2-1.1-2.4-1.3-3.7C365.7,70,364.2,69.8,362.8,69.8z"/>
	<path d="M383.8,69.2c0-0.8,0-1.6,0.1-2.5c4.8-2.6,10-3.9,15.6-3.9c5.6,0,9.5,1.1,11.9,3.2c2.4,2.1,3.6,5.6,3.6,10.5V93
		c1.8,0.4,3.2,0.8,4.3,1.3v6.8c-2.6,1.2-6.4,1.9-11.4,1.9c-0.5-1.3-1-3-1.3-4.9c-2.2,3.3-6.3,4.9-12.1,4.9c-3.5,0-6.4-1-8.9-3
		c-2.5-2-3.7-4.8-3.7-8.2c0-3.5,1.2-6.2,3.5-8.2c2.3-2,5.7-3,10.3-3h8.5v-3.7c0-4-2.2-6.1-6.5-6.1c-1.6,0-2.9,0.2-4,0.5
		c-0.1,2.2-0.4,3.9-0.9,5.1h-7.6C384.3,74.3,383.8,72,383.8,69.2z M397.9,95c2.6,0,4.7-0.8,6.3-2.3v-6.4h-5.4
		c-3.7,0-5.6,1.4-5.6,4.3c0,1.3,0.4,2.4,1.2,3.2C395.1,94.6,396.3,95,397.9,95z"/>
	<path d="M422.9,63.4c2.9-0.6,5.4-0.9,7.7-0.9c2.3,0,4.2,0.1,5.7,0.2v3.9c1.3-1.1,3-2,5.2-2.7c2.2-0.7,4.2-1.1,6.2-1.1
		c5.1,0,8.7,1.2,10.7,3.6c2,2.4,3.1,6.5,3.1,12.4v14.9c2,0.8,3.5,1.7,4.3,2.6l-0.8,6H447l-0.8-6c0.7-1,2.2-1.9,4.3-2.6V78.3
		c0-2.8-0.5-4.7-1.4-5.6c-0.9-1-2.5-1.4-4.9-1.4s-4.7,0.8-7,2.5v20c2,0.8,3.4,1.7,4.3,2.6l-0.8,6h-17.9l-0.8-6
		c0.7-1,2.2-1.9,4.3-2.6V72c-1.8-0.6-3.2-1.5-4.3-2.6L422.9,63.4z"/>
	<path d="M482.6,53.6v9.8h11.1v6.5h-11.1v19.7c0,1.7,0.2,2.9,0.7,3.6c0.5,0.8,1.6,1.1,3.3,1.1c1.8,0,3.7-0.4,5.7-1.2l2.3,6.1
		c-4,2-8.1,3-12.3,3c-4.2,0-7-0.9-8.5-2.7c-1.5-1.8-2.2-4.4-2.2-7.8V69.9h-3.5l-0.9-4.7c0.8-1,2.5-2,5.1-3c0.6-4.3,2.1-7.1,4.4-8.6
		H482.6z"/>
	<path d="M499,69.2c0-0.8,0-1.6,0.1-2.5c4.8-2.6,10-3.9,15.6-3.9c5.6,0,9.5,1.1,11.9,3.2c2.4,2.1,3.6,5.6,3.6,10.5V93
		c1.8,0.4,3.2,0.8,4.3,1.3v6.8c-2.6,1.2-6.4,1.9-11.4,1.9c-0.5-1.3-1-3-1.3-4.9c-2.2,3.3-6.3,4.9-12.1,4.9c-3.5,0-6.4-1-8.9-3
		c-2.5-2-3.7-4.8-3.7-8.2c0-3.5,1.2-6.2,3.5-8.2c2.3-2,5.7-3,10.3-3h8.5v-3.7c0-4-2.2-6.1-6.5-6.1c-1.6,0-2.9,0.2-4,0.5
		c-0.1,2.2-0.4,3.9-0.9,5.1h-7.6C499.4,74.3,499,72,499,69.2z M513,95c2.6,0,4.7-0.8,6.3-2.3v-6.4h-5.4c-3.7,0-5.6,1.4-5.6,4.3
		c0,1.3,0.4,2.4,1.2,3.2C510.2,94.6,511.4,95,513,95z"/>
</g>
<g>
	<g>
		<path d="M100.9,87.9c2.4,0.4,5.1-0.1,7.3-0.6c0.7-0.2,1.4-0.4,2-0.7c0.1-0.1,0.3-0.1,0.4-0.2c0.1-0.1,0.2-0.2,0.3-0.3
			c0.9-0.7,1.6-1.7,1.7-3.1c0.4-5.8-6.3-8.6-10.9-6.6c0.3,0,0.6,0,0.9,0c2-0.3,4.2-0.1,5.8,1.2c1.8,1.5,2.3,4.1,1.1,6.1
			c-1.7,2.6-5.9,4-9.7,4c0.2,0,0.4,0,0.6,0C100.5,87.8,100.7,87.9,100.9,87.9z"/>
	</g>
	<g>
		<path d="M56.5,94.9c0.4,0.1,0.6-0.5,0.3-0.7c-1.5-0.7-1.5-1.9-1.2-3.3c0.1-0.6,0.3-1.1,0.2-1.7c-0.2-1.1-1.2-1.9-2.1-2.4
			c-1.8-0.9-4.6-0.7-5,1.6c-0.1,0.4,0.4,0.7,0.7,0.4c0.8-1,2-1.6,3.3-1.1c0.8,0.3,1.5,0.8,1.9,1.6c0.4,0.9,0.1,1.4,0,2.3
			C54.4,93.1,55.1,94.4,56.5,94.9z"/>
	</g>
	<g>
		<path d="M85.3,103.1c1.3,2.8,3.7,3,6.6,3.1c8.8,0.3,18.4-1.7,26.5-4.7c0.7-0.3,0.6-1.3-0.2-1.3c-6.6,0.1-13.3,0-19.9-0.5
			c-1.5-0.1-3-0.2-4.5-0.4c-2.3-0.2-3.1-1.1-4.7-2.7c-2.5-2.4-4.9-4.9-7.4-7.3c-0.7-0.7-1.8,0.4-1.2,1.1
			C81.5,94.7,83.5,99.2,85.3,103.1z M89,98.7c2.1,2,3.2,2.1,6.2,2.3c6.2,0.5,12.5,0.8,18.7,0.7c-6,1.8-12.2,2.9-18.5,3.3
			c-1.8,0.1-3.5,0.2-5.3,0c-3.3-0.3-3.9-2.3-5-5.1c-1.1-2.7-2-5.5-3.3-8.1C84.2,94,86.6,96.4,89,98.7z"/>
	</g>
	<g>
		<path d="M132.2,108.1c-0.2-1.6-0.4-3.3-0.7-4.9c-0.6-3-1.6-5.8-2.1-8.8c-0.1-0.2-0.1-0.4-0.2-0.6c0.1-2.2,0.1-4.3-0.2-6.4
			c-0.5-4-1.8-11.8-6-14c0.8-1.2,1.3-2.6,1.4-3.8c0-0.2,0-0.4,0-0.6c2.7-2.4,4-6.4,4.2-10c0.1-2.8-0.3-6.8-2.6-8.7
			c0.4-0.4,0.8-0.8,1.2-1.2c4.9-6,4.1-14.8-1.7-19.9c-4.9-4.3-12.7-6.5-19.6-5.8c0-0.4,0-0.8-0.3-1.3c-4.6-6.9-13-9.8-21.1-8.9
			c-1.2,0.1-2.3,0.3-3.5,0.6c-9.1-1.2-20.5-1.6-25.9,0.1c-1.8,0.6-9.7,3.5-11.2,4.7c-12.3,9.6-21.6,22.9-26.8,37.6
			c0,0.1,0,0.2,0,0.3c-0.9,3.2-0.6,8.5-0.6,10c0,6.5,0.7,13,2.3,19.3c2.6,10.2,8,20.8,17,26.7c0.5,1.5,1,3.2,1.4,4.1
			c-1.8,0.6-3.5,1.1-5.3,1.7l0,0.2c0.1,0.5,0.2,0.9,0.3,1.4c0,0.2,0.1,0.3,0.2,0.4c0.2,0.2,0.6,0.2,0.9,0.1c1,0,1.9,0.6,2.4,1.4
			s0.8,1.8,1.1,2.7c0.6,2.1,1.1,4.1,1.7,6.2c0.2,0.6,0.4,1.3,0.3,1.9c-0.1,0.7-0.5,1.3-1.1,1.5c-0.2,0.1-0.6,0.1-0.7,0.4
			c0,0.1,0,0.2,0,0.4c0.1,0.5,0.2,1.1,0.3,1.6c1.6-0.3,3.2-0.7,4.8-1c0.4,1.4,0.7,2.8,1.1,4.1c0.8-0.3,1.6-0.5,2.4-0.5
			c-0.4-1.5-0.8-3.1-1.2-4.6c0.8-0.1,1.6-0.4,2.4-0.8c0.4,1.4,0.8,2.8,1.2,4.2c0,0.1,0.1,0.3,0.2,0.3c0.1,0.1,0.3,0,0.4,0
			c0.6-0.2,1.1-0.4,1.7-0.5c-0.3-1.6-0.6-3.1-1-4.7c2.5-0.2,4.8-2.3,5.2-4.7c0.4-2.5-1-5.2-3.3-6.2c0.2-1.3,0.2-2.7-0.3-4
			c-0.4-1.3-1.3-2.4-2.5-3c-1.2-0.6-2.6-0.6-3.9-0.3c-0.1,0-1,0.2-1.1,0.1c-0.1-0.1-0.2-0.2-0.2-0.3c-0.2-0.5-0.5-1.4-0.8-2.3
			c0.1-0.1,0.1-0.2,0.2-0.4c-0.8-5.6-0.5-11.2,2.3-16c-0.2-0.3-0.4-0.7-0.6-1c2.4,3.8,7.7,5.2,11.6,2.4c-2.1,0.8-4.8,0.6-6.7-0.3
			c-1.7-0.8-3.1-2.4-4-4.1c0-0.1-0.1-0.1-0.1-0.2c0-0.1-0.1-0.2-0.1-0.2c-0.7-2.6-0.3-5.4,2.3-6.8c0.2-0.1,0.1-0.3-0.1-0.4
			c0,0-0.1,0-0.2,0c0,0,0,0-0.1,0c0,0,0,0-0.1,0c0,0-0.1,0-0.1,0c0,0,0,0,0,0c0,0,0,0-0.1,0c-1,0.4-2,1-2.6,1.9
			c-0.1-0.1-0.3-0.2-0.5-0.3c-3.4-1-6-3.6-6.4-7.3c-0.4-4,1.8-6.7,4.5-9.3c0.5-0.5,0.2-1.2-0.4-1.3c0.2-1.5,0.8-3.1,1.5-4.7
			c1.1-1.8,2.1-3.8,3.2-5.6c0.7-1,1.3-2,1.8-2.8c0.1-0.1,0.1-0.2,0.2-0.3c1.4-2,2.9-3.9,4.6-5.8c4.1-4.7,8.8-8.9,13.9-12.5
			c6.2-4.3,12.9-7.7,20-10c0.1,0,0.2-0.1,0.3-0.1c5-1.2,10.8-2.7,16.1-2.1c0.2,0.1,0.4,0.1,0.6,0.1c0.4,0.1,0.8,0.1,1.1,0.2
			c3.2,0.1,6.4,0.5,9.5,1.4c2,0.3,3.9,0.9,5.9,2c5.2,2.7,8.9,8.8,6.7,14.7c-0.9,2.5-2.8,4.3-5.1,5.7c-1.5,1.3-3.5,2.1-5.5,2.7
			c-0.4,0.2-0.9,0.3-1.3,0.4c-10.4,1.7-20.2-2.1-29.3-7.1c-0.2-0.1-0.4-0.1-0.5-0.1c-0.3-0.1-0.5,0-0.6,0.1c-0.2,0-0.3,0.1-0.5,0.2
			c-2.1,1.3-4.2,2.5-6.7,2.9c-1.8,0.3-3.5,0.2-5.3,0.2c-0.9-0.8-2.6-0.3-2.6,1.1c0,0,0,0,0,0c0,0,0,0,0,0.1c0,0.1,0,0.3,0,0.4
			c0.9,4.8,1,9.3-1.7,13.6c-0.6,0.9-1.2,1.7-1.9,2.5c-0.9,1-2,1.9-3.1,2.7c-0.7,0.4-1.3,0.8-1.9,1.2c-1-1.1-2.9-0.4-2.5,1.2
			c0.4,1.8,0.7,3.3,0.5,4.8c-0.2,1.3-0.6,2.6-1.2,3.9c-1.3,2.5-3,3.5-6,3.8c-0.2,0-0.4,0.3-0.2,0.5c0,0,1.1,1.1,2.7,0.9
			c0.8,0.4,1.5,0.8,2.1,1.4c0.3,1.2,0.6,2.4,0.9,3.7c0.4,1.6,0.8,3.3,1.1,4.9c-4.8,3.2-4.4,10.2-3.1,15.1c1.8,7,5.2,14.1,10.2,19.4
			c3.5,4,14.4,11.9,34.2,11.4c8.1-0.2,16.2-2.8,22.6-7.8c0.6-0.5,2.1-1.9,3.4-3.1c1.4-1.4,2.7-3.1,3.6-4.9c0.6-1.2,1.1-2.5,1.5-3.9
			C132.1,117.2,132.4,112.6,132.2,108.1z M49.2,125.2c0.2,0.1,0.4,0.4,0.5,0.6c0.4,0.6,0.6,1.2,0.5,1.9c-0.1,0.6-0.5,1.2-1,1.5
			c-0.5,0.4-1.1,0.6-1.7,0.9c-1.2,0.5-2.5,0.8-3.8,1c-0.4-1.5-0.8-3.1-1.3-4.6l0,0c0.1-0.1,0.2-0.1,0.3-0.2c1.3-0.4,2.7-0.7,4-1.1
			c0.4-0.1,0.9-0.2,1.3-0.3C48.5,125,48.9,125,49.2,125.2z M44.1,118.4c0.5-0.1,1.1-0.3,1.6-0.1c0.8,0.3,1.1,1.2,1.3,2
			c0.1,0.8,0.1,1.8-0.5,2.3c-0.3,0.2-0.7,0.4-1.1,0.5c-1.1,0.3-2.2,0.6-3.3,1c-0.1,0-0.1,0-0.2,0c-0.1,0-0.1-0.1-0.1-0.2
			c-0.4-1.4-0.9-2.9-1.3-4.3l0,0C41.6,119.1,42.8,118.8,44.1,118.4z M40.8,113.6c0.2,0.5,0.3,1.1,0.5,1.8c-0.8,0.2-1.2,0.3-2,0.5
			c-0.2-0.7-0.4-1.3-0.6-2c0.1,0,0.2,0.1,0.4,0.1c0,0,0,0,0,0C39.7,114,40.3,113.9,40.8,113.6z M98.8,21.2c-12.3,1.7-24,6.5-34,13.8
			c-5.2,3.8-10,8.3-14,13.4c-3.6,4.5-7.7,10-9.5,15.6c-3.7-1.3-3.6-5.3-3.2-8.8c0.7-3.4,2.2-6.6,4-9.5c4.3-7,10.4-12.6,17.1-17.3
			c6.7-4.8,14.2-9.6,22.3-11.3c6-1.2,12.7-0.3,17.3,3.6C98.9,20.9,98.9,21,98.8,21.2C98.8,21.2,98.8,21.2,98.8,21.2z M126.4,58.9
			c-0.2,2.1-0.9,3.8-1.8,5.5c0-1.3-0.1-2.1-0.1-2.1c0-1.8-1.6-3.2-3.4-2.9c-0.2,0-0.5,0.1-0.7,0.1c0-0.5-0.1-1.1-0.1-1.6
			c-0.1-1.2-0.1-2.7-0.6-3.9c0.1-0.1,0.2-0.1,0.3-0.2c0.1-0.1,0.3-0.2,0.5-0.2c1.5-0.3,2.6-1.1,3.9-1.9c0.3-0.2,0.8-0.2,1.1,0
			C125.8,54.1,126.7,56.4,126.4,58.9z M70,65.7c0.8-1,1.4-2.2,1.9-3.4c0.1,0.6,0.8,1,1.4,1c2.1-4.9,7.5-9.4,12.9-10.7
			c-2.3-0.7-5.5,0.9-7.3,2c-2.7,1.6-4.8,3.8-6.5,6.4c1.1-3.1,1.4-6.6,0.7-9.7c4,0.9,9.2-1,12.1-3.3c8.4,5.6,22.2,9.8,32.4,6.5
			c0,0,0,0,0.1,0c-0.2,1.3,0.1,2.7,0.2,4c0,0.5,0,1.1-0.1,1.6c-4.5,0.8-10,1.7-13.4,2.3c-1.2,0.2-2,1.5-1.7,2.7
			c0.2,0.6,0.4,1.4,0.6,2.2c-1.7-0.2-3.9,0.3-5.5,1.3c0-1.1-0.1-2.1-0.2-2.9c-0.1-1.4-1.4-2.4-2.8-2.2c-4.8,0.8-13.2,2.2-18.7,3.1
			c-2,0.4-3.2,2.4-2.5,4.3c0,0,1.2,3.9,2.8,7.5c-0.1-0.1-0.1-0.2-0.2-0.3c-1.6-2.9-2.2-6.2-3.9-9c-0.1-0.1-0.2,0-0.2,0.1
			c0.1,0.6,0.2,1.3,0.4,2c-0.1-0.1-0.1-0.3-0.2-0.4c-0.2-0.5-0.4-1.3-0.8-1.7c-0.1-0.1-0.4-0.1-0.5,0.1c0,0,0,0.1,0,0.1
			c-0.1,0-0.2,0-0.3,0.1c-1.8,1-3.6,2-5.5,2.9c-1,0.5-2.1,1-3.2,1.5c0-0.6-0.1-1.1-0.3-1.7C65.1,71.5,68.5,67.8,70,65.7z M59.4,82.1
			c0.9-1.2,1.7-2.7,2.3-4.4c1.5-0.5,2.9-1.3,4.3-2c2.1-1,4.2-2,6.3-3c0,0.1,0.1,0.1,0.1,0.2c0.2,0.3,0.6,0.1,0.7-0.1
			c0.7,2.6,1.8,5.4,3.3,7.3c2,2.7,5.4,3.8,8.7,3.8c2.2,0.2,4.5-0.1,6.4-0.7c0.8-0.3,1.6-0.8,2.4-1.4c2.7-2.3,4.2-5.9,4.1-9.5
			c0-0.3,0-0.7,0-1c0.7-0.7,1.5-1.3,2.5-1.7c0.7-0.3,1.3-0.4,1.9-0.4c0.6,0,1.1,0.1,1.7,0.1c0.2,0.5,0.3,1,0.5,1.4
			c1,3.1,3.3,5.6,6.3,6.8c0.8,0.3,1.7,0.5,2.4,0.5c2.3,0,4.9-0.8,7.1-2c0.6-0.3,1.1-0.8,1.6-1.3c3.4,4,4.3,9.7,4.3,14.8
			c0,5.9-1.6,11-3.9,16.3c-0.1,0.3-0.2,0.6-0.1,0.9c-7.7,7.2-20.2,9.8-31.1,8.1c-7-1.1-13.6-4.2-18.7-9.1c-1.4-1.3-2.6-2.8-3.8-4.3
			c-0.4-0.6-0.8-1.2-1.2-1.9c-0.4-0.7-0.8-1.3-1.3-1.9c-0.1-0.1-0.1-0.2-0.2-0.3c-0.7-0.7-1.4-1.4-2.7-1.8c-0.1-0.1-0.2-0.1-0.4-0.2
			c-0.7-1.5-3.4-9.3-4.3-12.5C59,82.7,59.2,82.4,59.4,82.1z M57.1,85.1c-0.1-0.3,0.1-0.5,0.4-0.6c0.3-0.1,0.6,0,0.7,0.3
			c1.1,3.5,2.3,6.9,3.7,10.3c-0.8-0.2-1.7-0.2-2.6,0C58.4,91.8,58.1,88.4,57.1,85.1z M130.3,117c-0.1,0.9-0.3,1.7-0.5,2.5
			c-0.2,1-0.5,1.9-0.8,2.8c-0.4,1.3-0.9,2.4-1.8,3.9c-9.8,14.3-33.8,15.9-48.8,9.7c-10.9-4.4-18.6-14.3-20.9-25.8
			c-0.7-3.2-1.6-8.1,0.7-10.9c0.2-0.2,0.3-0.4,0.5-0.6c1.8-0.9,3.8-0.9,5.5-0.2c1.2,1.4,2.4,2.7,3.6,4.2c0.1,0.1,0.1,0.2,0.2,0.3
			c0.3,0.4,0.7,0.9,1,1.3c2.2,2.5,4.6,4.8,7.4,6.6c5.5,3.7,12.1,5.7,18.8,6c9.1,0.5,18.3-1.7,25.5-7c0-0.1,0.1-0.1,0.2-0.2
			c1.6-1.2,3.1-2.5,4.5-3.9c0.8-0.8,1.4-1.7,2.1-2.6c0.4-0.6,0.9-1.2,1.3-1.9c-0.3,0.4-0.7,0.8-1.1,1.2c0,0-0.1,0.1-0.1,0.1
			c0.6-1.6,1-3.3,1.3-5c1,4.4,2.2,8.7,2.2,13.3C130.9,113,130.7,115,130.3,117z"/>
	</g>
</g>
</g>
</svg>
