<svg width="978" height="253" viewBox="0 0 978 253" fill="none" xmlns="http://www.w3.org/2000/svg">
<path d="M317.564 85.8789V104.202H338.318V116.355H317.564V153.188C317.564 156.367 317.938 158.611 318.873 159.919C319.808 161.415 321.864 161.976 325.043 161.976C328.408 161.976 331.961 161.228 335.7 159.732L340.001 171.138C332.522 174.877 324.856 176.747 317.003 176.747C309.15 176.747 303.915 175.064 301.111 171.699C298.306 168.333 296.997 163.472 296.997 157.115V116.355H290.453L288.771 107.568C290.266 105.698 293.445 103.828 298.306 101.958C299.428 93.9187 302.232 88.6835 306.533 85.8789H317.564Z" fill="white"/>
<path d="M388.811 122.13C381.519 122.13 376.284 123.626 373.48 126.43V159.524C381.332 161.02 386.755 163.077 389.559 165.694L388.063 176.913H346.369L344.873 165.694C346.182 163.825 348.986 162.142 352.913 160.833V120.26C349.547 119.138 346.93 117.456 344.873 115.399L346.369 104.181C351.791 103.059 356.465 102.498 360.766 102.498C365.066 102.498 368.618 102.685 371.423 102.872V112.034C373.667 109.416 376.471 107.172 380.024 105.49C383.576 103.807 386.755 102.872 389.559 102.872C392.364 102.872 394.42 103.059 395.542 103.62L395.168 122.504C393.299 122.13 391.242 122.13 388.811 122.13Z" fill="white"/>
<path d="M404.509 115.017C404.509 113.521 404.509 112.025 404.695 110.343C413.67 105.481 423.393 103.051 433.863 103.051C444.333 103.051 451.625 105.107 456.113 109.034C460.6 112.96 462.843 119.504 462.843 128.666V159.516C466.209 160.264 468.827 161.012 470.883 161.947V174.661C466.022 176.904 458.917 178.213 449.569 178.213C448.634 175.783 447.699 172.604 447.138 169.052C443.025 175.222 435.359 178.213 424.514 178.213C417.97 178.213 412.548 176.343 407.874 172.604C403.2 168.865 400.956 163.629 400.956 157.272C400.956 150.728 403.2 145.68 407.5 141.941C411.8 138.201 418.157 136.332 426.758 136.332H442.651V129.414C442.651 121.935 438.537 118.008 430.497 118.008C427.506 118.008 425.075 118.382 423.019 118.943C422.832 123.057 422.271 126.235 421.336 128.479H407.126C405.443 124.552 404.509 120.252 404.509 115.017ZM430.684 163.255C435.546 163.255 439.472 161.76 442.464 158.955V146.989H432.367C425.449 146.989 421.897 149.607 421.897 155.029C421.897 157.459 422.645 159.516 424.14 161.012C425.636 162.508 427.88 163.255 430.684 163.255Z" fill="white"/>
<path d="M513.86 73.7154C519.469 72.4066 524.704 71.8457 529.753 71.8457C534.801 71.8457 539.101 72.0327 542.654 72.2196V159.535C545.645 160.096 548.263 160.844 550.693 161.966V173.371C544.897 176.55 537.418 178.045 528.631 178.045C527.696 177.484 526.761 176.737 525.826 175.428C524.891 174.119 524.33 172.997 524.33 171.875C522.274 173.558 519.469 175.054 516.104 176.363C512.738 177.671 509.373 178.232 506.007 178.232C495.537 178.232 487.871 175.428 483.197 169.632C478.522 163.835 476.092 154.674 476.092 141.773C476.092 127.189 479.644 116.906 486.936 110.923C493.293 105.687 500.959 103.07 510.308 103.07C514.421 103.07 518.534 103.631 522.461 104.566V90.1689C517.973 88.8601 514.608 87.1773 512.551 84.9337L513.86 73.7154ZM508.999 163.275C514.608 163.275 518.908 161.592 522.461 158.413V119.336C518.534 118.402 514.234 117.841 509.747 117.841C505.259 117.841 502.081 119.897 500.024 123.824C497.967 127.75 497.033 133.546 497.033 141.399C497.033 149.252 497.967 154.861 500.024 158.226C501.894 161.592 504.885 163.275 508.999 163.275Z" fill="white"/>
<path d="M591.853 178.039C580.261 178.039 571.473 174.861 565.677 168.691C559.881 162.521 556.89 153.546 556.89 141.58C556.89 134.475 557.825 128.305 559.881 123.07C561.938 117.835 564.742 113.908 568.108 111.104C574.839 105.682 582.879 102.877 591.853 102.877C600.828 102.877 607.746 105.121 612.607 109.795C617.468 114.469 619.899 122.696 619.899 134.662C619.899 141.58 616.533 145.132 609.615 145.132H578.017C578.391 151.302 580.074 155.603 582.692 158.033C585.496 160.464 589.797 161.773 595.78 161.773C599.145 161.773 602.137 161.399 605.315 160.651C608.307 159.903 610.55 159.155 611.859 158.407L613.916 157.286L618.216 168.878C617.655 169.626 616.72 170.374 615.599 171.495C614.477 172.43 611.672 173.926 607.185 175.609C602.698 177.291 597.462 178.039 591.853 178.039ZM601.015 132.231C601.202 130.923 601.389 129.24 601.389 127.37C601.389 125.5 600.641 123.444 599.145 121.2C597.649 118.956 594.845 117.835 591.105 117.835C587.179 117.835 584.374 118.956 582.318 121.387C580.261 123.631 578.952 127.557 578.204 133.166L601.015 132.231Z" fill="white"/>
<path d="M656.368 116.152C650.011 116.152 646.832 118.022 646.832 121.761C646.832 125.313 650.198 127.931 656.929 129.801L668.334 132.792C680.113 135.971 686.096 142.702 686.096 153.359C686.096 160.651 683.479 166.634 678.43 171.121C673.382 175.796 665.155 178.039 654.124 178.039C643.093 178.039 634.305 176.544 628.135 173.365C627.948 172.243 627.948 171.308 627.948 170.187C627.948 164.764 629.07 160.09 631.127 155.79H643.28C644.589 158.033 645.337 160.464 645.71 163.082C647.58 163.643 650.385 164.017 653.937 164.017C662.538 164.017 666.651 161.586 666.651 156.725C666.651 155.229 666.09 153.92 664.968 152.798C663.847 151.863 661.603 150.742 658.051 149.807L646.645 146.441C640.662 144.758 636.175 142.328 632.81 139.149C629.444 135.971 627.948 131.11 627.948 124.753C627.948 118.396 630.566 113.16 635.614 109.047C640.849 104.934 648.141 102.877 657.677 102.877C667.212 102.877 675.252 104.373 681.983 107.177C682.17 108.112 682.17 109.047 682.17 110.169C682.17 115.217 681.048 119.891 678.991 124.192H667.025C665.716 121.948 664.969 119.704 664.595 117.274C661.79 116.526 658.985 116.152 656.368 116.152Z" fill="white"/>
<path d="M695.631 115.017C695.631 113.521 695.631 112.025 695.818 110.343C704.792 105.481 714.515 103.051 724.985 103.051C735.455 103.051 742.747 105.107 747.235 109.034C751.722 112.96 753.966 119.504 753.966 128.666V159.516C757.331 160.264 759.949 161.012 762.005 161.947V174.661C757.144 176.904 750.039 178.213 740.691 178.213C739.756 175.783 738.821 172.604 738.26 169.052C734.147 175.222 726.481 178.213 715.636 178.213C709.093 178.213 703.67 176.343 698.996 172.604C694.322 168.865 692.078 163.629 692.078 157.272C692.078 150.728 694.322 145.68 698.622 141.941C702.922 138.201 709.279 136.332 717.88 136.332H733.773V129.414C733.773 121.935 729.659 118.008 721.62 118.008C718.628 118.008 716.197 118.382 714.141 118.943C713.954 123.057 713.393 126.235 712.458 128.479H698.248C696.565 124.552 695.631 120.252 695.631 115.017ZM721.993 163.255C726.855 163.255 730.781 161.76 733.773 158.955V146.989H723.676C716.758 146.989 713.206 149.607 713.206 155.029C713.206 157.459 713.954 159.516 715.45 161.012C716.758 162.508 719.002 163.255 721.993 163.255Z" fill="white"/>
<path d="M768.722 104.181C774.144 103.059 778.818 102.498 783.119 102.498C787.419 102.498 790.971 102.685 793.776 102.872V110.164C796.207 108.107 799.385 106.424 803.498 105.116C807.612 103.807 811.351 103.059 815.091 103.059C824.626 103.059 831.357 105.303 835.097 109.79C838.836 114.277 840.893 121.943 840.893 132.974V160.833C844.632 162.329 847.437 164.012 848.932 165.694L847.437 176.913H813.782L812.286 165.694C813.595 163.825 816.399 162.142 820.326 160.833V132.039C820.326 126.804 819.391 123.252 817.708 121.569C816.026 119.699 813.034 118.952 808.547 118.952C804.059 118.952 799.759 120.447 795.459 123.626V161.02C799.198 162.516 801.816 164.199 803.498 165.881L802.003 177.1H768.535L767.039 165.881C768.348 164.012 771.152 162.329 775.079 161.02V120.26C771.713 119.138 769.096 117.456 767.039 115.399L768.722 104.181Z" fill="white"/>
<path d="M880.324 85.8789V104.202H901.078V116.355H880.324V153.188C880.324 156.367 880.698 158.611 881.633 159.919C882.567 161.415 884.624 161.976 887.803 161.976C891.168 161.976 894.721 161.228 898.46 159.732L902.76 171.138C895.281 174.877 887.616 176.747 879.763 176.747C871.91 176.747 866.675 175.064 863.87 171.699C861.066 168.333 859.757 163.472 859.757 157.115V116.355H853.213L851.53 107.568C853.026 105.698 856.205 103.828 861.066 101.958C862.188 93.9187 864.992 88.6835 869.293 85.8789H880.324Z" fill="white"/>
<path d="M911.031 115.017C911.031 113.521 911.031 112.025 911.218 110.343C920.193 105.481 929.915 103.051 940.385 103.051C950.856 103.051 958.148 105.107 962.635 109.034C967.122 112.96 969.366 119.504 969.366 128.666V159.516C972.731 160.264 975.349 161.012 977.406 161.947V174.661C972.544 176.904 965.439 178.213 956.091 178.213C955.156 175.783 954.221 172.604 953.66 169.052C949.547 175.222 941.881 178.213 931.037 178.213C924.493 178.213 919.071 176.343 914.396 172.604C909.722 168.865 907.479 163.629 907.479 157.272C907.479 150.728 909.722 145.68 914.023 141.941C918.323 138.201 924.68 136.332 933.281 136.332H949.173V129.414C949.173 121.935 945.06 118.008 937.02 118.008C934.028 118.008 931.598 118.382 929.541 118.943C929.354 123.057 928.793 126.235 927.858 128.479H913.649C911.779 124.552 911.031 120.252 911.031 115.017ZM937.207 163.255C942.068 163.255 945.995 161.76 948.986 158.955V146.989H938.89C931.972 146.989 928.419 149.607 928.419 155.029C928.419 157.459 929.167 159.516 930.663 161.012C931.972 162.508 934.215 163.255 937.207 163.255Z" fill="white"/>
<path d="M102.394 22.6497C101.082 23.0384 100.043 23.1292 98.9166 24.0509C97.4307 26.0321 91.2461 31.8646 90.5872 34.1707C90.0678 35.9888 85.0033 37.0016 83.6072 37.6997C77.8232 40.5917 75.2876 46.2212 72.19 51.556C69.0859 56.902 61.1537 59.8122 58.8522 65.5659C55.1719 74.7666 52.3485 84.1376 48.629 93.4363C46.3544 99.1228 48.7219 105.695 49.0442 111.496C49.109 112.663 49.9783 113.598 49.9783 114.766C49.9783 118.494 48.7957 121.874 47.8506 125.482C45.9841 132.609 44.3103 139.497 43.2059 146.786C42.6004 150.782 43.0752 154.751 43.9065 158.67C44.7736 162.758 44.4955 166.845 45.2039 170.918C46.074 175.921 47.5083 180.288 49.7707 184.878C51.6296 188.649 54.3318 192.539 55.0901 196.71C55.2786 197.747 55.4065 199.277 56.0502 200.135C57.8082 202.479 63.9747 203.378 66.4814 204.261C74.7926 207.189 82.8581 209.6 89.8347 214.978C93.6412 217.912 96.5902 221.894 100.785 224.319C105.701 227.161 110.041 229.848 114.226 233.634C115.747 235.01 117.799 237.698 119.675 238.435C121.675 239.22 123.995 239.66 126.084 240.147C127.743 240.534 129.226 241.481 130.859 241.808C134.387 242.514 137.709 242.742 141.316 242.742C147.198 242.742 153.035 243.209 158.909 243.209H167.42C171.442 243.209 174.969 241.99 178.863 241.341C180.734 241.029 182.63 239.94 184.494 239.94C186.485 239.94 188.797 239.396 190.773 238.902C195.601 237.695 201.13 234.871 203.877 230.598C204.822 229.128 206.221 228.071 207.172 226.576C209.193 223.402 210.952 220.031 212.881 216.794C214.37 214.296 216.2 212.133 217.552 209.58C219.15 206.561 219.787 202.746 221.6 199.616C223.13 196.973 222.624 194.4 222.326 191.495C221.581 184.23 219.233 177.222 219.965 169.906C220.313 166.42 218.423 162.767 218.097 159.345C217.587 153.999 213.919 150.14 213.919 144.762C213.919 142.626 213.314 141.822 212.258 140.013C211.792 139.215 210.229 136.718 209.482 136.718C207.833 136.718 208.958 127.075 209.093 125.923C209.505 122.402 210.635 117.638 212.985 114.766C213.794 113.777 213.452 112.186 213.452 110.977C213.452 107.518 214.26 104.022 214.749 100.598C215.52 95.2051 218.123 90.1102 218.123 84.6399C218.123 82.5209 218.703 80.383 218.59 78.3345C218.409 75.0829 211.934 73.8946 212.622 69.7716C213.204 66.2794 214.386 62.9955 214.386 59.4183C214.386 55.6966 213.452 51.8274 213.452 47.9751C213.452 46.4963 211.521 45.2548 210.649 44.1348C209.938 43.2195 209.788 42.3909 209.041 41.6438C206.961 39.564 204.467 37.9846 201.749 36.5579C196.596 33.8524 191.576 31.115 186.362 28.4621C183.873 27.1957 181.461 26.7049 178.733 26.023C176.716 25.5187 172.35 25.6169 172.35 22.52C172.35 20.6745 170.603 21.3174 168.977 21.0409C162.637 19.9636 156.496 17.8541 150.19 16.7076C144.158 15.6108 137.531 15.0597 131.352 15.2804C129.376 15.351 126.017 16.8494 124.476 18.0828C121.674 20.324 115.847 18.5719 112.41 19.7176C109.141 20.8073 105.723 21.6634 102.394 22.6497Z" fill="white"/>
<path d="M230.703 184.964V183.584C230.013 180.823 230.013 178.062 229.323 174.611C228.633 171.851 227.943 169.09 227.252 167.02C226.562 164.259 225.872 161.498 225.182 158.738V158.048C225.182 154.597 225.182 150.456 224.492 146.315C223.111 133.892 219.661 124.92 214.829 119.398C215.52 118.018 215.52 117.328 215.52 115.948C220.351 110.426 223.111 102.834 223.802 94.5525C223.802 90.4115 223.802 83.5098 221.041 78.6787C231.393 64.8754 229.323 45.5508 215.52 33.818C206.548 25.5361 192.744 20.7049 178.941 20.7049C169.969 8.28197 155.475 1.38033 139.602 1.38033C137.531 1.38033 135.461 1.38033 133.39 1.38033C131.32 1.38033 129.249 2.07049 127.179 2.07049C117.516 0.690164 107.854 0 99.5721 0C89.9098 0 82.318 0.690164 77.4868 2.76066C77.4868 2.76066 58.8524 8.97213 54.0213 12.423C30.5557 31.0574 11.9213 56.5934 1.5688 85.5803C1.5688 86.2705 0.878641 86.9607 0.878641 87.6508C0.188477 93.8623 0.188477 101.454 0.188477 105.595C0.188477 106.285 0.188477 106.975 0.188477 106.975C0.188477 120.089 1.5688 133.202 5.01962 144.934C8.47044 158.048 16.7524 182.203 36.7672 196.697C36.077 196.697 35.3868 197.387 34.0065 197.387C31.2459 198.077 29.1754 200.838 29.1754 203.598V204.289C29.1754 204.979 29.1754 204.979 29.1754 205.669V207.049V207.739C29.1754 209.12 29.8655 210.5 31.2459 212.57C32.6262 213.951 34.6967 214.641 36.7672 214.641C36.7672 215.331 37.4573 216.021 37.4573 216.711V217.402C38.1475 218.782 38.1475 220.852 38.8377 222.923C39.5278 224.993 39.5278 226.374 40.218 228.444C38.8377 229.825 38.1475 231.205 37.4573 231.895C37.4573 232.585 36.7672 233.275 36.7672 233.966V234.656C36.7672 235.346 36.7672 235.346 36.7672 236.036V237.416V238.797C37.4573 242.248 40.218 244.318 43.6688 244.318C44.359 244.318 44.359 244.318 45.0491 244.318C45.7393 244.318 47.1196 243.628 47.8098 243.628C47.8098 244.318 47.8098 245.008 48.5 245.008C49.1901 247.079 50.5704 248.459 51.9508 249.149C52.6409 249.839 54.0213 249.839 54.7114 249.839C55.4016 249.839 56.0918 249.839 57.4721 249.149C58.1622 249.149 58.8524 248.459 59.5426 248.459C60.9229 248.459 62.9934 247.769 63.6836 247.079H64.3737C65.0639 247.079 65.7541 247.079 65.7541 247.079C66.4442 247.079 66.4442 247.079 67.1344 247.079H67.8245C68.5147 247.079 68.5147 247.079 69.2049 246.389C71.2754 246.389 72.6557 245.008 74.036 243.628C75.4163 242.248 75.4163 240.177 75.4163 238.107C75.4163 237.416 74.7262 236.036 74.7262 235.346C78.8672 232.585 82.318 228.444 83.0082 222.923C83.0082 221.543 83.0082 220.162 83.0082 219.472C85.0786 222.923 87.8393 226.374 90.6 229.134C94.0508 232.585 113.375 252.6 156.166 252.6C157.546 252.6 158.236 252.6 159.616 252.6C176.87 251.91 193.434 246.389 205.857 236.726C207.238 236.036 209.308 233.966 211.379 231.895L212.759 230.515C216.21 227.064 218.97 222.923 221.041 219.472C222.421 216.711 223.111 213.951 224.492 211.19C230.013 204.289 230.703 196.007 230.703 184.964ZM169.279 37.2689C169.969 37.2689 170.659 37.2689 171.349 37.959C177.561 37.959 182.392 38.6492 187.223 40.0295H187.913C191.364 40.7197 194.125 41.4098 196.885 42.7902C203.787 46.241 209.308 53.8328 206.547 62.1148C205.857 64.8754 203.097 66.9459 199.646 69.0164L198.956 69.7066C196.885 71.7771 193.434 72.4672 191.364 73.1574C190.674 73.1574 190.674 73.1574 189.984 73.8475C189.984 73.8475 189.984 73.8475 189.293 73.8475C186.533 74.5377 183.772 74.5377 181.011 74.5377C168.588 74.5377 155.475 70.3967 138.911 61.4246C137.531 60.7344 136.151 60.7344 135.461 60.7344C134.77 60.7344 134.77 60.7344 134.08 60.7344C132.7 60.7344 132.01 60.7344 130.629 61.4246C129.939 61.4246 129.249 62.1148 129.249 62.1148C129.249 62.1148 129.249 62.1148 128.559 62.1148C125.108 64.1852 122.348 66.2557 118.897 66.2557C117.516 66.2557 115.446 66.2557 114.066 66.2557H111.995C110.615 65.5656 109.234 65.5656 108.544 65.5656C106.474 65.5656 103.713 66.2557 102.333 67.6361C100.262 69.7066 98.8819 71.777 98.8819 75.2279V75.918C98.8819 76.6082 98.8819 76.6082 98.8819 77.2984C100.952 86.2705 100.262 92.482 96.8114 98.0033C96.1213 99.3836 94.7409 100.764 94.0508 102.144C93.3606 103.525 91.2901 104.215 89.9098 106.285C89.9098 106.285 89.9098 106.285 89.2196 106.285C88.5295 106.285 88.5295 106.285 87.8393 106.285C85.0786 106.285 82.318 107.666 80.2475 109.736C78.177 111.807 78.177 115.257 78.8672 118.018C79.5573 120.779 79.5573 122.849 79.5573 124.23C79.5573 125.61 78.8672 127.68 78.177 129.751C77.4868 131.821 76.1065 132.511 72.6557 133.202C70.5852 133.202 68.5147 134.582 67.1344 135.962C66.4442 135.962 65.754 135.962 65.0639 135.962H64.3737H63.6836C62.9934 135.962 61.6131 135.962 60.9229 136.652C59.5426 137.343 58.1622 138.033 57.4721 138.723C55.4016 137.343 53.3311 135.272 52.6409 131.821C51.9508 128.37 54.0213 124.92 58.8524 120.089C60.9229 117.328 62.3032 113.877 60.9229 111.116V110.426C61.6131 109.046 61.6131 107.666 62.3032 106.285C62.9934 104.905 64.3737 102.834 65.0639 101.454C65.754 100.074 67.1344 98.0033 67.8245 96.623C69.2049 95.2426 69.895 93.1721 70.5852 92.482L71.2754 91.7918C74.036 88.341 76.1065 84.8902 79.5573 81.4393C87.1491 73.1574 95.4311 65.5656 104.403 59.3541C115.446 51.7623 127.869 45.5508 139.602 41.4098H140.982C147.884 40.0295 156.166 37.959 163.067 37.959C164.447 37.959 165.138 37.959 166.518 37.959C167.898 37.2689 168.588 37.2689 169.279 37.2689ZM205.167 182.203V181.513C205.167 182.203 205.167 182.203 205.167 182.203ZM118.897 107.666C118.207 107.666 116.826 108.356 116.136 109.046C116.826 108.356 117.516 107.666 118.897 107.666C121.657 106.975 124.418 106.975 127.179 106.285C124.418 106.975 120.967 106.975 118.897 107.666ZM169.279 109.046C168.588 109.046 167.898 109.046 167.208 109.046C167.208 109.046 167.208 109.046 167.898 109.046C168.588 109.046 169.279 109.046 169.279 109.046ZM163.067 98.0033C163.067 98.0033 163.067 98.6934 162.377 98.6934C160.307 96.623 157.546 95.2426 154.095 95.2426C153.405 95.2426 152.715 95.2426 152.715 95.2426C145.123 96.623 132.01 98.6934 122.348 100.074C126.488 94.5525 132.7 89.7213 139.602 88.341C141.672 87.6508 143.052 86.9607 143.743 85.5803C151.334 89.0311 160.307 92.482 169.969 93.8623C167.208 93.8623 164.447 95.2426 163.067 98.0033ZM158.926 105.595C158.926 104.905 158.926 104.215 158.236 103.525C158.926 104.905 158.926 105.595 158.926 105.595ZM158.236 103.525L157.546 102.834C157.546 102.834 157.546 103.525 158.236 103.525ZM156.856 102.144L156.166 101.454C156.166 102.144 156.166 102.144 156.856 102.144ZM154.785 102.144C154.095 102.144 154.095 102.144 153.405 102.144H154.095C154.785 101.454 154.785 102.144 154.785 102.144ZM135.461 81.4393C134.77 80.7492 134.77 81.4393 135.461 81.4393ZM108.544 112.497C105.093 114.567 101.643 115.948 98.1918 118.018C101.643 116.638 105.093 114.567 108.544 112.497ZM140.292 140.103C139.602 140.103 138.911 140.103 137.531 140.103C136.841 140.103 135.461 140.103 134.77 140.103C136.841 140.103 138.911 140.103 140.292 140.103ZM170.659 112.497C171.349 113.187 171.349 114.567 171.349 115.257C171.349 114.567 171.349 113.877 170.659 112.497C169.279 112.497 168.588 112.497 167.208 112.497C168.588 112.497 169.969 112.497 170.659 112.497ZM183.772 127.68C184.462 127.68 185.152 128.37 185.843 128.37C185.152 128.37 184.462 128.37 183.772 127.68C182.392 126.99 181.011 126.3 179.631 125.61C181.011 126.99 182.392 127.68 183.772 127.68ZM181.011 86.9607C182.392 86.9607 184.462 86.9607 185.843 86.9607C184.462 86.9607 183.082 86.9607 181.011 86.9607ZM188.603 86.2705C191.364 85.5803 193.434 85.5803 196.195 84.8902C194.125 85.5803 191.364 86.2705 188.603 86.2705ZM173.42 86.9607C175.49 86.9607 177.561 87.6508 179.631 87.6508C178.251 86.9607 176.18 86.9607 173.42 86.9607ZM165.828 85.5803C167.898 86.2705 169.279 86.2705 171.349 86.2705C169.279 86.2705 167.898 85.5803 165.828 85.5803ZM143.052 77.2984C144.433 77.9885 145.813 78.6787 147.884 79.3689C146.503 78.6787 144.433 77.9885 143.052 77.2984ZM149.954 80.059C152.025 80.7492 154.095 81.4393 156.166 82.1295C154.095 82.1295 152.025 81.4393 149.954 80.059ZM135.461 72.4672C137.531 73.8475 138.911 74.5377 140.982 75.918C139.602 75.2279 137.531 73.8475 135.461 72.4672ZM126.488 77.2984H127.179C127.179 77.2984 127.179 77.2984 126.488 77.2984ZM131.32 75.2279C131.32 75.2279 132.01 75.2279 132.01 74.5377C132.01 75.2279 132.01 75.2279 131.32 75.2279ZM116.826 79.3689C117.516 79.3689 117.516 79.3689 116.826 79.3689ZM198.956 178.062C198.956 178.752 198.956 178.752 198.956 178.752C189.293 187.034 174.8 191.175 159.616 191.175C156.166 191.175 152.025 191.175 148.574 190.485C136.151 188.415 125.798 183.584 117.516 175.302C115.446 173.231 113.375 170.47 111.305 168.4C110.615 167.71 109.925 166.33 109.234 165.639C108.544 164.259 107.164 162.879 106.474 161.498C106.474 160.808 105.784 160.808 105.093 160.118C103.713 158.738 102.333 157.357 99.5721 155.977C98.1918 151.836 95.4311 144.934 94.0508 139.413C95.4311 137.343 96.1213 135.272 97.5016 133.202C98.8819 132.511 100.262 131.821 101.643 131.131L103.023 130.441L108.544 127.68C109.925 131.131 111.305 133.892 113.375 136.652C117.516 142.864 125.798 146.315 134.77 146.315C135.461 146.315 136.841 146.315 137.531 146.315C141.672 146.315 145.123 145.625 149.264 144.244C151.334 143.554 153.405 142.174 155.475 140.793C161.687 135.962 165.138 127.68 165.828 120.089C168.588 126.3 174.11 131.821 180.321 133.892C181.702 134.582 184.462 135.272 187.223 135.272C192.054 135.272 196.885 133.892 201.716 131.821C203.787 136.652 205.167 142.174 205.167 149.766C205.857 161.498 202.407 170.47 198.956 178.062ZM199.646 187.034C198.956 187.725 198.266 187.725 197.575 188.415C198.266 187.725 198.956 187.034 199.646 187.034ZM193.434 190.485C192.744 191.175 192.054 191.175 191.364 191.866C192.054 191.175 192.744 190.485 193.434 190.485ZM187.223 193.246C186.533 193.246 185.843 193.936 185.152 193.936C185.843 193.936 186.533 193.936 187.223 193.246ZM170.659 197.387C169.969 197.387 169.279 197.387 168.588 197.387C169.279 198.077 169.969 198.077 170.659 197.387ZM163.757 198.767C163.067 198.767 162.377 198.767 160.997 198.767C161.687 198.767 163.067 198.767 163.757 198.767ZM98.8819 164.259C98.1918 163.569 97.5016 163.569 96.8114 162.879C97.5016 162.879 98.1918 163.569 98.8819 164.259ZM203.097 93.8623H203.787H204.477C203.787 93.8623 203.097 93.8623 203.097 93.8623ZM207.928 96.623C207.928 95.9328 207.238 95.9328 207.238 95.2426C207.928 95.9328 207.928 95.9328 207.928 96.623ZM206.547 95.2426C205.857 95.2426 205.857 94.5525 205.167 94.5525C205.857 94.5525 206.547 94.5525 206.547 95.2426ZM183.082 81.4393C183.772 81.4393 184.462 81.4393 184.462 81.4393C183.772 81.4393 183.082 81.4393 183.082 81.4393ZM141.672 70.3967C142.362 70.3967 143.052 71.0869 143.743 71.0869C143.052 71.0869 142.362 71.0869 141.672 70.3967ZM154.095 75.918C154.785 75.918 155.475 76.6082 156.166 76.6082C156.166 76.6082 154.785 76.6082 154.095 75.918ZM160.997 78.6787C161.687 78.6787 162.377 79.3689 163.067 79.3689C162.377 78.6787 161.687 78.6787 160.997 78.6787ZM120.277 73.1574C121.657 73.1574 122.347 72.4672 123.728 72.4672C123.038 73.1574 121.657 73.1574 120.277 73.1574ZM114.756 73.8475H115.446C115.446 73.8475 115.446 73.8475 114.756 73.8475ZM107.854 73.1574C108.544 73.1574 108.544 73.1574 109.234 73.1574C108.544 73.1574 107.854 73.1574 107.854 73.1574ZM85.0786 141.484C85.0786 140.793 84.3885 140.793 84.3885 140.793C84.3885 140.793 85.0786 141.484 85.0786 141.484ZM94.0508 166.33H93.3606C93.3606 166.33 93.3606 166.33 94.0508 166.33ZM159.616 201.528H158.926C157.546 201.528 155.475 201.528 154.095 201.528C156.166 201.528 158.236 201.528 159.616 201.528ZM165.828 201.528C164.447 201.528 163.757 201.528 162.377 201.528C163.757 201.528 165.138 201.528 165.828 201.528ZM201.716 188.415C200.336 189.795 198.266 190.485 196.885 191.866C198.956 190.485 200.336 189.795 201.716 188.415ZM195.505 192.556C194.125 193.246 193.434 193.936 192.054 194.626C192.744 193.936 194.125 193.246 195.505 192.556ZM189.293 195.316C187.913 196.007 187.223 196.007 185.843 196.697C187.223 196.697 188.603 196.007 189.293 195.316ZM178.251 199.457C176.87 199.457 176.18 200.148 174.8 200.148C175.49 200.148 176.87 199.457 178.251 199.457ZM172.039 200.148C170.659 200.148 169.969 200.148 168.588 200.838C169.969 200.838 170.659 200.838 172.039 200.148ZM205.167 180.823C207.238 175.992 209.308 171.161 210.688 166.33C212.069 161.498 212.759 155.977 212.759 150.456C212.759 145.625 212.069 140.793 211.379 135.962C212.759 140.793 212.759 145.625 212.759 150.456C212.759 155.977 212.069 160.808 210.688 166.33C209.308 171.851 207.238 175.992 205.167 180.823ZM62.3032 197.387C62.9934 197.387 62.9934 197.387 62.3032 197.387ZM60.2327 162.189C59.5426 161.498 59.5426 160.808 58.8524 160.118C58.8524 160.118 58.8524 160.808 59.5426 160.808C59.5426 160.808 59.5426 160.808 58.8524 160.118C59.5426 161.498 60.2327 162.189 60.2327 162.189ZM58.8524 198.077H58.1622C58.1622 198.077 58.1622 198.077 58.8524 198.077ZM61.6131 163.569L62.3032 164.259C62.3032 163.569 61.6131 163.569 61.6131 163.569ZM63.6836 161.498C65.0639 162.879 66.4442 164.259 67.8245 164.949C68.5147 165.639 69.895 165.639 71.2754 166.33C69.895 166.33 69.2049 165.639 67.8245 164.949C66.4442 163.569 65.0639 162.879 63.6836 161.498ZM58.8524 98.0033C59.5426 95.9328 60.9229 94.5525 61.6131 92.482C60.9229 94.5525 60.2327 95.9328 58.8524 98.0033ZM137.531 33.818C138.221 33.818 138.221 33.818 138.221 33.818C138.911 33.818 138.221 33.818 137.531 33.818ZM159.616 29.6771C160.307 29.6771 161.687 29.6771 162.377 29.6771C160.997 29.6771 160.307 29.6771 159.616 29.6771ZM145.123 32.4377C145.813 32.4377 146.503 32.4377 147.193 31.7475C146.503 31.7475 145.813 32.4377 145.123 32.4377ZM152.025 31.0574C152.715 31.0574 154.095 31.0574 154.785 30.3672C154.095 30.3672 152.715 31.0574 152.025 31.0574ZM93.3606 42.7902C83.0082 50.382 73.3459 59.3541 65.7541 69.0164C62.3032 73.1574 58.8524 77.9885 55.4016 83.5098C56.7819 80.059 58.1622 75.918 60.9229 71.777C67.8245 60.7344 77.4868 51.0721 91.2901 41.4098C103.713 32.4377 116.826 24.1557 130.629 21.3951C132.7 20.7049 135.461 20.7049 137.531 20.7049C121.657 25.5361 106.474 33.1279 93.3606 42.7902ZM71.2754 73.8475C74.7262 69.0164 78.8672 64.8754 83.6983 60.7344C78.8672 64.1852 74.7262 69.0164 71.2754 73.8475C67.8245 77.9885 64.3737 82.8197 60.9229 87.6508C64.3737 82.1295 67.8245 77.9885 71.2754 73.8475ZM49.1901 196.007C50.5704 196.007 51.2606 196.007 52.6409 195.316C51.9508 196.007 50.5704 196.007 49.1901 196.007C48.5 196.007 48.5 196.007 48.5 196.007C49.1901 196.007 49.1901 196.007 49.1901 196.007ZM60.2327 204.289C59.5426 204.289 58.8524 204.289 58.8524 204.289C59.5426 204.289 60.2327 204.289 60.2327 204.289ZM69.895 220.162C69.895 220.852 69.895 221.543 69.895 222.233C69.895 222.923 69.895 223.613 69.2049 223.613C69.2049 222.923 69.895 222.233 69.895 222.233C70.5852 220.852 69.895 220.852 69.895 220.162ZM69.895 191.866C67.8245 190.485 65.0639 190.485 62.9934 190.485C62.3032 183.584 62.3032 178.062 63.6836 172.541C65.7541 173.231 68.5147 173.921 70.5852 174.611C69.895 180.823 71.2754 187.034 71.9655 191.175C71.9655 192.556 72.6557 193.246 72.6557 194.626C71.9655 193.246 71.2754 192.556 69.895 191.866ZM76.7967 158.738C76.1065 158.738 76.1065 158.738 75.4163 158.738C74.036 158.738 72.6557 158.738 71.2754 158.048C69.895 157.357 68.5147 155.977 67.1344 153.907C66.4442 151.836 67.1344 150.456 68.5147 149.766C69.2049 149.075 69.895 149.075 70.5852 148.385C71.9655 149.075 73.3459 149.766 75.4163 149.766C75.4163 151.146 76.1065 152.526 76.1065 153.907C76.7967 155.287 76.7967 156.667 76.7967 158.738ZM78.177 165.639H77.4868C77.4868 165.639 77.4868 165.639 78.177 165.639ZM72.6557 140.793C72.6557 140.793 73.3459 140.793 73.3459 141.484C73.3459 141.484 72.6557 141.484 72.6557 140.793ZM74.036 141.484C74.036 141.484 74.7262 141.484 74.7262 142.174C74.7262 142.174 74.036 142.174 74.036 141.484ZM76.7967 142.174H76.1065H75.4163C76.1065 142.174 76.7967 142.174 76.7967 142.174C78.177 142.864 79.5573 143.554 80.9377 144.934C81.6278 147.005 82.318 149.766 82.318 151.836C81.6278 149.075 80.9377 147.005 80.9377 144.934C80.2475 143.554 78.8672 142.864 76.7967 142.174ZM88.5295 166.33C87.8393 166.33 86.459 167.02 85.7688 167.02C87.1491 167.02 87.8393 166.33 88.5295 166.33ZM91.2901 166.33C90.6 166.33 89.9098 166.33 89.2196 166.33C90.6 166.33 90.6 166.33 91.2901 166.33ZM90.6 173.231C91.2901 173.231 91.2901 173.231 91.9803 173.231H92.6704C92.6704 173.921 93.3606 173.921 93.3606 174.611C94.7409 175.992 96.1213 177.372 97.5016 179.443L98.1918 180.133L98.8819 181.513L99.5721 182.893C99.5721 182.893 99.5721 182.893 99.5721 183.584C105.093 189.795 109.925 193.936 114.756 197.387C125.798 204.979 138.911 209.12 153.405 209.81C154.785 209.81 156.856 209.81 158.236 209.81C176.18 209.81 192.054 204.979 205.167 195.316L205.857 194.626C208.618 192.556 210.688 190.485 213.449 188.415C213.449 189.795 213.449 190.485 213.449 191.866C212.759 196.007 212.759 198.767 212.069 202.218V202.908C212.069 204.289 211.379 204.979 211.379 206.359C210.688 208.43 210.688 209.81 209.998 211.19C209.308 213.261 208.618 214.641 207.238 216.711C198.266 229.825 178.941 238.107 156.166 238.107C145.123 238.107 133.39 236.036 124.418 231.895C106.474 224.993 93.3606 208.43 89.2196 188.415C89.2196 180.133 88.5295 175.302 90.6 173.231ZM216.9 172.541C216.21 173.921 215.52 175.302 214.139 175.992C215.52 174.611 216.21 173.231 216.9 172.541ZM203.787 32.4377L204.477 33.1279C204.477 33.1279 204.477 33.1279 203.787 32.4377ZM195.505 28.9869C196.195 28.9869 196.195 28.9869 196.885 29.6771C196.885 29.6771 196.195 29.677 195.505 28.9869ZM172.039 30.3672C178.251 30.3672 183.772 31.0574 189.984 33.1279C183.772 31.7475 177.561 31.0574 172.039 30.3672ZM162.377 13.8033C163.067 14.4934 164.447 15.1836 165.138 15.8738C163.757 14.4934 163.067 13.8033 162.377 13.8033ZM156.856 18.6344C158.236 19.3246 160.307 20.7049 161.687 21.3951C159.616 20.7049 158.236 19.3246 156.856 18.6344ZM134.77 14.4934C135.461 14.4934 136.841 14.4934 137.531 14.4934C136.841 13.8033 135.461 14.4934 134.77 14.4934ZM138.911 13.8033C140.292 13.8033 142.362 13.8033 143.743 13.8033C141.672 14.4934 140.292 14.4934 138.911 13.8033ZM145.123 14.4934C147.193 14.4934 148.574 15.1836 150.644 15.8738C148.574 15.1836 146.503 15.1836 145.123 14.4934ZM150.644 15.8738C152.025 16.5639 153.405 17.2541 154.785 17.9443C154.095 17.2541 152.025 16.5639 150.644 15.8738ZM128.559 15.1836C129.939 15.1836 131.32 14.4934 132.7 14.4934C131.32 14.4934 129.939 14.4934 128.559 15.1836ZM45.0491 199.457C44.359 198.077 44.359 196.697 43.6688 195.316C44.359 196.697 45.0491 198.077 45.0491 199.457ZM76.1065 167.02C76.7967 167.02 76.7967 167.02 77.4868 167.02C76.7967 167.02 76.1065 167.02 76.1065 167.02ZM80.2475 164.949C80.9377 164.949 80.9377 164.949 80.2475 164.949C80.9377 164.259 80.9377 164.259 81.6278 163.569C80.9377 164.259 80.9377 164.949 80.2475 165.639C80.2475 165.639 80.2475 165.639 80.2475 164.949ZM85.0786 160.808C84.3885 161.498 83.0081 162.189 82.318 162.879C83.0081 162.189 83.6983 161.498 85.0786 160.808ZM126.488 242.248C124.418 241.557 123.038 240.867 121.657 240.177C123.038 240.867 125.108 241.557 126.488 242.248ZM118.207 238.797C116.826 238.107 115.446 237.416 114.066 236.726C115.446 237.416 116.826 238.797 118.207 238.797ZM105.784 231.895C104.403 231.205 103.713 230.515 103.023 229.825C103.023 230.515 104.403 231.205 105.784 231.895ZM138.221 241.557C136.151 240.867 134.08 240.867 132.01 240.177C134.08 240.867 136.151 241.557 138.221 241.557ZM207.928 225.684C206.547 227.064 205.167 227.754 204.477 229.134C205.857 228.444 207.238 227.064 207.928 225.684ZM196.885 234.656C194.815 236.036 192.744 236.726 190.674 237.416C192.054 236.726 194.125 235.346 196.885 234.656ZM181.011 240.867C179.631 241.557 177.561 241.557 175.49 242.248C177.561 241.557 178.941 240.867 181.011 240.867ZM165.828 242.938C163.067 242.938 160.997 242.938 158.236 242.938C160.997 243.628 163.067 243.628 165.828 242.938ZM209.998 224.303C211.379 222.923 213.449 220.852 214.139 218.782C212.759 220.852 211.379 222.923 209.998 224.303ZM217.59 158.738C217.59 154.597 217.59 150.456 216.9 147.005C218.28 150.456 218.28 154.597 217.59 158.738ZM188.603 27.6066C187.913 27.6066 187.913 27.6066 187.223 27.6066C187.223 27.6066 187.913 27.6066 188.603 27.6066ZM178.941 26.2262C177.561 26.2262 175.49 26.2262 174.11 26.2262C176.18 26.9164 177.561 26.2262 178.941 26.2262ZM174.11 24.1557C173.42 22.7754 172.039 21.3951 170.659 20.0148C171.349 21.3951 172.729 22.7754 174.11 24.1557ZM150.644 8.97213C149.264 8.97213 148.574 8.28197 147.193 8.28197C148.574 8.28197 149.264 8.28197 150.644 8.97213ZM100.262 6.90164C98.8819 6.90164 98.1918 6.90164 96.8114 6.90164C97.5016 6.90164 98.8819 6.90164 100.262 6.90164ZM90.6 6.90164C91.9803 6.90164 92.6704 6.90164 94.0508 6.90164C93.3606 6.90164 91.9803 6.90164 90.6 6.90164ZM83.6983 8.28197C82.318 8.28197 80.9377 8.97213 79.5573 8.97213C80.2475 8.97213 82.318 8.28197 83.6983 8.28197ZM13.3016 150.456C14.6819 155.287 16.7524 160.118 18.8229 164.259C16.7524 160.118 15.3721 155.287 13.3016 150.456ZM38.1475 208.43H38.8377C38.1475 208.43 38.1475 208.43 38.1475 208.43ZM42.9786 210.5C42.2885 209.81 41.5983 209.12 40.9082 208.43C42.2885 209.12 42.2885 209.81 42.9786 210.5C43.6688 211.88 44.359 213.951 45.0491 215.331C44.359 213.951 44.359 212.57 42.9786 210.5ZM45.7393 235.346C45.7393 234.656 45.7393 234.656 45.7393 234.656C45.7393 233.966 46.4295 233.966 47.1196 233.966C47.8098 233.966 47.8098 233.275 48.5 232.585C47.8098 233.275 47.8098 233.275 47.1196 233.966C46.4295 233.966 45.7393 233.966 45.7393 234.656C45.7393 234.656 45.7393 234.656 45.7393 235.346C45.7393 236.036 46.4295 237.416 46.4295 238.107C45.7393 237.416 45.7393 236.036 45.7393 235.346ZM56.7819 244.318C56.0918 241.557 55.4016 239.487 54.7114 236.726C56.0918 238.797 56.0918 241.557 56.7819 244.318C58.1622 243.628 59.5426 243.628 61.6131 243.628C60.2327 242.938 58.8524 243.628 56.7819 244.318ZM77.4868 182.203C77.4868 182.893 77.4868 183.584 78.177 184.964C78.177 184.274 77.4868 183.584 77.4868 182.203ZM78.177 185.654C78.177 187.034 78.8672 187.725 78.8672 189.105C78.8672 188.415 78.177 187.034 78.177 185.654ZM98.1918 225.684C98.8819 226.374 100.262 227.754 100.952 228.444C99.5721 227.754 98.8819 226.374 98.1918 225.684ZM158.926 247.079C156.856 247.079 155.475 247.079 153.405 247.079C156.166 247.079 158.926 247.079 162.377 247.079C160.997 247.079 159.616 247.079 158.926 247.079ZM130.629 243.628C132.7 244.318 134.08 244.318 136.151 245.008C134.08 244.318 132.7 243.628 130.629 243.628Z" fill="white"/>
<path d="M164.642 148.868C164.227 148.868 163.892 149.204 163.892 149.618C163.892 150.032 164.227 150.368 164.642 150.368H164.644H164.646H164.648H164.65H164.653H164.655H164.657H164.659H164.661H164.664H164.666H164.668H164.67H164.672H164.674H164.677H164.679H164.681H164.683H164.685H164.688H164.69H164.692H164.694H164.696H164.699H164.701H164.703H164.705H164.707H164.71H164.712H164.714H164.716H164.718H164.72H164.723H164.725H164.727H164.729H164.731H164.734H164.736H164.738H164.74H164.742H164.745H164.747H164.749H164.751H164.753H164.756H164.758H164.76H164.762H164.764H164.766H164.769H164.771H164.773H164.775H164.777H164.78H164.782H164.784H164.786H164.788H164.791H164.793H164.795H164.797H164.799H164.802H164.804H164.806H164.808H164.81H164.813H164.815H164.817H164.819H164.821H164.823H164.826H164.828H164.83H164.832H164.834H164.837H164.839H164.841H164.843H164.845H164.848H164.85H164.852H164.854H164.856H164.859H164.861H164.863H164.865H164.867H164.869H164.872H164.874H164.876H164.878H164.88H164.883H164.885H164.887H164.889H164.891H164.894H164.896H164.898H164.9H164.902H164.905H164.907H164.909H164.911H164.913H164.915H164.918H164.92H164.922H164.924H164.926H164.929H164.931H164.933H164.935H164.937H164.94H164.942H164.944H164.946H164.948H164.951H164.953H164.955H164.957H164.959H164.961H164.964H164.966H164.968H164.97H164.972H164.975H164.977H164.979H164.981H164.983H164.986H164.988H164.99H164.992H164.994H164.997H164.999H165.001H165.003H165.005H165.008H165.01H165.012H165.014H165.016H165.018H165.021H165.023H165.025H165.027H165.029H165.032H165.034H165.036H165.038H165.04H165.043H165.045H165.047H165.049H165.051H165.054H165.056H165.058H165.06H165.062H165.064H165.067H165.069H165.071H165.073H165.075H165.078H165.08H165.082H165.084H165.086H165.089H165.091H165.093H165.095H165.097H165.1H165.102H165.104H165.106H165.108H165.11H165.113H165.115H165.117H165.119H165.121H165.124H165.126H165.128H165.13H165.132H165.135H165.137H165.139H165.141H165.143H165.146H165.148H165.15H165.152H165.154H165.157H165.159H165.161H165.163H165.165H165.167H165.17H165.172H165.174H165.176H165.178H165.181H165.183H165.185H165.187H165.189H165.192H165.194H165.196H165.198H165.2H165.203H165.205H165.207H165.209H165.211H165.213H165.216H165.218H165.22H165.222H165.224H165.227H165.229H165.231H165.233H165.235H165.238H165.24H165.242H165.244H165.246H165.249H165.251H165.253H165.255H165.257H165.259H165.262H165.264H165.266H165.268H165.27H165.273H165.275H165.277H165.279H165.281H165.284H165.286H165.288H165.29H165.292H165.295H165.297H165.299H165.301H165.303H165.305H165.308H165.31H165.312H165.314H165.316H165.319H165.321H165.323H165.325H165.327H165.33H165.332H165.334H165.336H165.338H165.341H165.343H165.345H165.347H165.349H165.352H165.354H165.356H165.358H165.36H165.362H165.365H165.367H165.369H165.371H165.373H165.376H165.378H165.38H165.382H165.384H165.387H165.389H165.391H165.393H165.395H165.398H165.4H165.402H165.404H165.406H165.408H165.411H165.413H165.415H165.417H165.419H165.422H165.424H165.426H165.428H165.43H165.433H165.435H165.437H165.439H165.441H165.444H165.446H165.448H165.45H165.452H165.454H165.457H165.459H165.461H165.463H165.465H165.468H165.47H165.472H165.474H165.476H165.479H165.481H165.483H165.485H165.487H165.49H165.492H165.494H165.496H165.498H165.5H165.503H165.503C165.807 150.572 166.209 150.725 166.629 150.74C171.263 151.499 176.417 150.532 180.513 149.601C180.527 149.598 180.54 149.595 180.553 149.591L180.59 149.58C181.873 149.214 183.238 148.824 184.422 148.232C184.478 148.204 184.53 148.169 184.578 148.128C184.6 148.119 184.632 148.107 184.698 148.086L184.708 148.082C184.771 148.061 184.874 148.027 184.975 147.981C185.085 147.931 185.231 147.851 185.365 147.717L185.435 147.647L185.505 147.577L185.645 147.437L185.893 147.189C187.691 145.778 189.118 143.734 189.322 140.884L189.322 140.882C189.72 135.112 186.567 130.839 182.243 128.53C177.944 126.233 172.422 125.834 167.895 127.802C167.569 127.944 167.387 128.295 167.46 128.643C167.532 128.991 167.839 129.24 168.194 129.24H168.197H168.201H168.204H168.207H168.21H168.214H168.217H168.22H168.224H168.227H168.23H168.233H168.237H168.24H168.243H168.247H168.25H168.253H168.256H168.26H168.263H168.266H168.27H168.273H168.276H168.279H168.283H168.286H168.289H168.293H168.296H168.299H168.302H168.306H168.309H168.312H168.316H168.319H168.322H168.326H168.329H168.332H168.335H168.339H168.342H168.345H168.349H168.352H168.355H168.358H168.362H168.365H168.368H168.372H168.375H168.378H168.381H168.385H168.388H168.391H168.395H168.398H168.401H168.404H168.408H168.411H168.414H168.418H168.421H168.424H168.427H168.431H168.434H168.437H168.441H168.444H168.447H168.45H168.454H168.457H168.46H168.464H168.467H168.47H168.473H168.477H168.48H168.483H168.487H168.49H168.493H168.496H168.5H168.503H168.506H168.51H168.513H168.516H168.519H168.523H168.526H168.529H168.533H168.536H168.539H168.542H168.546H168.549H168.552H168.556H168.559H168.562H168.565H168.569H168.572H168.575H168.579H168.582H168.585H168.588H168.592H168.595H168.598H168.602H168.605H168.608H168.611H168.615H168.618H168.621H168.625H168.628H168.631H168.634H168.638H168.641H168.644H168.648H168.651H168.654H168.657H168.661H168.664H168.667H168.671H168.674H168.677H168.68H168.684H168.687H168.69H168.694H168.697H168.7H168.703H168.707H168.71H168.713H168.717H168.72H168.723H168.726H168.73H168.733H168.736H168.74H168.743H168.746H168.749H168.753H168.756H168.759H168.763H168.766H168.769H168.772H168.776H168.779H168.782H168.786H168.789H168.792H168.795H168.799H168.802H168.805H168.809H168.812H168.815H168.818H168.822H168.825H168.828H168.832H168.835H168.838H168.842H168.845H168.848H168.851H168.855H168.858H168.861H168.865H168.868H168.871H168.874H168.878H168.881H168.884H168.888H168.891H168.894H168.897H168.901H168.904H168.907H168.911H168.914H168.917H168.92H168.924H168.927H168.93H168.934H168.937H168.94H168.943H168.947H168.95H168.953H168.957H168.96H168.963H168.966H168.97H168.973H168.976H168.98H168.983H168.986H168.989H168.993H168.996H168.999H169.003H169.006H169.009H169.012H169.016H169.019H169.022H169.026H169.029H169.032H169.035H169.039H169.042H169.045H169.049H169.052H169.055H169.058H169.062H169.065H169.068H169.072H169.075H169.078H169.081H169.085H169.088H169.091H169.095H169.098H169.101H169.104H169.108H169.111H169.114H169.118H169.121H169.124H169.127H169.131H169.134H169.137H169.141H169.144H169.147H169.15H169.154H169.157H169.16H169.164H169.167H169.17H169.173H169.177H169.18H169.183H169.187H169.19H169.193H169.196H169.2H169.203H169.206H169.21H169.213H169.216H169.219H169.223H169.226H169.229H169.233H169.236H169.239H169.242H169.246H169.249H169.252H169.256H169.259H169.262H169.265H169.269H169.272H169.275H169.279H169.282H169.285H169.288H169.292H169.295H169.298H169.302H169.305H169.308H169.311H169.315H169.318H169.321H169.325H169.328H169.331H169.334H169.338H169.341H169.344H169.348H169.351H169.354H169.358H169.361H169.364H169.367H169.371H169.374H169.377H169.381H169.384H169.387H169.39H169.394H169.397H169.4H169.404H169.407H169.41H169.413H169.417H169.42H169.423H169.427H169.43H169.433H169.436H169.44H169.443H169.446H169.45H169.453H169.456H169.459H169.463H169.466H169.469H169.473H169.476H169.479H169.482H169.486H169.489H169.492H169.496H169.499H169.502H169.505H169.509H169.512H169.515H169.519H169.522H169.525H169.528H169.532H169.535H169.538H169.542H169.545H169.548H169.551H169.555H169.558H169.561H169.565H169.568H169.571H169.574H169.578H169.581H169.584H169.588H169.591H169.594H169.597H169.601H169.604H169.607H169.611H169.614H169.617H169.62H169.624H169.627H169.63H169.634H169.637H169.64H169.643H169.647H169.65H169.653H169.657H169.66H169.663H169.666H169.67H169.673H169.676H169.68H169.683H169.686H169.689H169.693H169.696H169.699H169.703H169.706H169.709H169.712H169.716H169.719H169.722H169.726H169.729H169.732H169.735H169.739H169.742H169.745H169.749H169.752H169.755H169.758H169.762H169.765H169.768H169.772H169.775H169.778H169.781H169.785H169.788H169.791H169.795H169.798H169.801H169.804H169.808H169.811H169.814H169.818H169.821H169.824H169.827H169.831H169.834H169.837H169.841H169.844H169.847H169.85H169.854H169.857H169.86H169.864H169.867H169.87H169.873H169.877C169.914 129.24 169.951 129.237 169.988 129.232C173.629 128.686 177.488 129.075 180.245 131.313C183.334 133.89 184.176 138.337 182.142 141.741C180.668 143.988 178.07 145.775 174.911 147.002C171.755 148.228 168.109 148.868 164.642 148.868ZM184.561 148.136C184.56 148.136 184.561 148.135 184.562 148.135C184.561 148.135 184.561 148.136 184.561 148.136Z" fill="black" stroke="white" stroke-width="1.5" stroke-linejoin="round"/>
<path d="M83.4798 163.792C83.5029 163.8 83.5264 163.807 83.5502 163.813C84.4058 164.027 84.9974 163.446 85.2034 162.911C85.3958 162.41 85.3841 161.603 84.709 161.153C84.6775 161.132 84.6445 161.113 84.6102 161.097C83.3806 160.523 82.8495 159.798 82.6338 158.989C82.4021 158.12 82.506 157.055 82.7827 155.764C82.7851 155.752 82.7873 155.741 82.7891 155.73C82.8323 155.471 82.8868 155.219 82.9451 154.957C82.9509 154.931 82.9568 154.904 82.9627 154.878C83.0148 154.644 83.0696 154.398 83.1144 154.151C83.216 153.593 83.2763 152.984 83.1631 152.305L83.1632 152.305L83.1612 152.294C82.7225 149.881 80.5756 148.238 78.8611 147.285C78.8516 147.28 78.842 147.275 78.8323 147.27C77.0116 146.36 74.6838 145.998 72.6724 146.462C70.629 146.934 68.8571 148.285 68.4136 150.78C68.0858 152.205 69.8624 153.335 70.9875 152.21C71.007 152.191 71.0255 152.17 71.0428 152.149C72.4142 150.434 74.3366 149.546 76.358 150.323L76.3579 150.323L76.3638 150.326C77.7344 150.84 78.8606 151.665 79.5012 152.935C79.809 153.634 79.8418 154.15 79.7845 154.685C79.7546 154.964 79.7004 155.246 79.635 155.588L79.6271 155.629C79.5602 155.978 79.4854 156.375 79.4351 156.824C79.0238 159.933 80.4923 162.725 83.4798 163.792Z" fill="black" stroke="white" stroke-width="1.5" stroke-linejoin="round"/>
<path d="M136.842 178.723L136.843 178.725C138.144 181.526 140.027 183.066 142.313 183.904C144.546 184.723 147.143 184.861 149.838 184.954L149.838 184.954C166.411 185.519 184.459 181.755 199.671 176.12C199.683 176.116 199.695 176.111 199.706 176.106C200.675 175.691 201.132 174.758 201.019 173.894C200.963 173.463 200.763 173.041 200.408 172.726C200.049 172.408 199.574 172.237 199.037 172.236L199.025 172.237C186.7 172.423 174.197 172.236 161.886 171.304V171.304L161.879 171.303C159.071 171.116 156.291 170.93 153.515 170.56C153.504 170.559 153.492 170.558 153.481 170.557C151.434 170.379 150.108 169.897 148.942 169.134C147.839 168.412 146.86 167.431 145.535 166.102C145.412 165.979 145.287 165.854 145.159 165.725L145.148 165.715C142.817 163.477 140.532 161.192 138.241 158.901L138.238 158.898C135.951 156.611 133.658 154.318 131.317 152.07C130.837 151.594 130.251 151.397 129.671 151.444C129.112 151.49 128.611 151.757 128.241 152.111C127.56 152.762 127.115 153.966 127.856 154.995C129.758 163.07 133.502 171.485 136.842 178.723ZM143.922 170.723L143.924 170.725C145.932 172.638 147.522 173.698 149.372 174.307C151.185 174.903 153.203 175.045 155.978 175.23C165.727 176.016 175.614 176.539 185.416 176.575C175.937 179.041 166.216 180.587 156.363 181.212C156.362 181.213 156.361 181.213 156.36 181.213L156.211 181.221C152.894 181.405 149.823 181.576 146.581 181.216L146.566 181.214C143.657 180.95 142.034 179.958 140.87 178.482C139.774 177.093 139.058 175.255 138.164 172.962C138.061 172.698 137.956 172.428 137.847 172.151L137.847 172.151L137.844 172.143C137.174 170.498 136.537 168.814 135.896 167.12C135.051 164.885 134.2 162.632 133.255 160.428C135.309 162.371 137.363 164.367 139.42 166.367C140.918 167.823 142.418 169.282 143.922 170.723Z" fill="black" stroke="white" stroke-width="1.5" stroke-linejoin="round"/>
<path d="M223.505 185.161C223.131 182.17 222.757 178.991 222.196 176C221.075 170.391 219.205 165.155 218.27 159.546C218.083 159.172 218.083 158.798 217.896 158.424C218.083 154.311 218.083 150.385 217.522 146.458C216.587 138.979 214.157 124.396 206.304 120.282C207.8 118.039 208.734 115.421 208.921 113.177C208.921 112.803 208.921 112.43 208.921 112.056C213.97 107.568 216.4 100.089 216.774 93.3585C216.961 88.1233 216.213 80.6445 211.913 77.092C212.661 76.3441 213.409 75.5962 214.157 74.8484C223.318 63.6301 221.822 47.1766 210.978 37.6411C201.817 29.6014 187.233 25.488 174.332 26.7968C174.332 26.0489 174.332 25.301 173.771 24.3662C165.17 11.4652 149.465 6.043 134.32 7.72574C132.076 7.91271 130.02 8.28665 127.776 8.84757C110.762 6.60391 89.4469 5.85603 79.3504 9.03454C75.985 10.1564 61.2142 15.5785 58.4097 17.8222C35.4122 35.7714 18.0239 60.6386 8.30142 88.1233C8.30142 88.3103 8.30142 88.4973 8.30142 88.6842C6.61868 94.6673 7.17959 104.577 7.17959 107.381C7.17959 119.534 8.48839 131.688 11.4799 143.467C16.3412 162.538 26.4376 182.357 43.265 193.388C44.1999 196.193 45.1347 199.371 45.8826 201.054C42.5171 202.176 39.3386 203.111 35.9731 204.232V204.606C36.1601 205.541 36.3471 206.289 36.5341 207.224C36.5341 207.598 36.721 207.785 36.908 207.972C37.2819 208.346 38.0298 208.346 38.5907 208.159C40.4604 208.159 42.1432 209.281 43.078 210.776C44.0129 212.272 44.5738 214.142 45.1347 215.825C46.2565 219.751 47.1914 223.49 48.3132 227.417C48.6872 228.539 49.0611 229.847 48.8741 230.969C48.6872 232.278 47.9393 233.4 46.8175 233.774C46.4435 233.961 45.6956 233.961 45.5087 234.522C45.5087 234.709 45.5087 234.896 45.5087 235.27C45.6956 236.204 45.8826 237.326 46.0696 238.261C49.0611 237.7 52.0527 236.952 55.0442 236.391C55.7921 239.009 56.353 241.627 57.1009 244.057C58.5966 243.496 60.0924 243.122 61.5882 243.122C60.8403 240.318 60.0924 237.326 59.3445 234.522C60.8403 234.335 62.3361 233.774 63.8318 233.026C64.5797 235.644 65.3276 238.261 66.0755 240.879C66.0755 241.066 66.2625 241.44 66.4494 241.44C66.6364 241.627 67.0103 241.44 67.1973 241.44C68.3191 241.066 69.254 240.692 70.3758 240.505C69.8149 237.513 69.254 234.709 68.5061 231.717C73.1804 231.343 77.4807 227.417 78.2286 222.929C78.9765 218.255 76.3589 213.207 72.0586 211.337C72.4325 208.907 72.4325 206.289 71.4977 203.858C70.7498 201.428 69.067 199.371 66.8234 198.249C64.5797 197.127 61.9621 197.127 59.5315 197.688C59.3445 197.688 57.6618 198.062 57.4748 197.875C57.2878 197.688 57.1009 197.501 57.1009 197.314C56.7269 196.38 56.166 194.697 55.6051 193.014C55.7921 192.827 55.7921 192.64 55.979 192.266C54.4833 181.796 55.0442 171.325 60.2794 162.351C59.9054 161.79 59.5315 161.042 59.1576 160.481C63.6449 167.586 73.5543 170.204 80.8462 164.968C76.9198 166.464 71.8716 166.09 68.3191 164.408C65.1406 162.912 62.523 159.92 60.8403 156.742C60.8403 156.555 60.6533 156.555 60.6533 156.368C60.6533 156.181 60.4664 155.994 60.4664 155.994C59.1576 151.133 59.9054 145.897 64.7667 143.28C65.1406 143.093 64.9537 142.719 64.5797 142.532C64.5797 142.532 64.3927 142.532 64.2058 142.532C64.2058 142.532 64.2058 142.532 64.0188 142.532C64.0188 142.532 64.0188 142.532 63.8318 142.532H63.6449C63.6449 142.532 63.6449 142.532 63.4579 142.532C61.5882 143.28 59.7185 144.402 58.5966 146.084C58.4097 145.897 58.0357 145.71 57.6618 145.523C51.3048 143.654 46.4435 138.792 45.6956 131.875C44.9478 124.396 49.0611 119.347 54.1093 114.486C55.0442 113.551 54.4833 112.243 53.3615 112.056C53.7354 109.251 54.8572 106.26 56.166 103.268C58.2227 99.9025 60.0924 96.1631 62.1491 92.7976C63.4579 90.9279 64.5797 89.0582 65.5146 87.5624C65.7015 87.3754 65.7015 87.1885 65.8885 87.0015C68.5061 83.2621 71.3107 79.7096 74.4892 76.1572C82.155 67.3695 90.9426 59.5167 100.478 52.7858C112.07 44.746 124.597 38.389 137.872 34.0887C138.059 34.0887 138.246 33.9017 138.433 33.9017C147.782 31.658 158.626 28.8535 168.536 29.9753C168.91 30.1623 169.284 30.1623 169.657 30.1623C170.405 30.3492 171.153 30.3492 171.714 30.5362C177.697 30.7232 183.68 31.4711 189.476 33.1538C193.216 33.7147 196.768 34.8365 200.508 36.8932C210.23 41.9415 217.148 53.3467 213.035 64.378C211.352 69.0523 207.8 72.4177 203.499 75.0353C200.695 77.466 196.955 78.9617 193.216 80.0836C192.468 80.4575 191.533 80.6445 190.785 80.8314C171.34 84.0099 153.017 76.9051 136.003 67.5565C135.629 67.3695 135.255 67.3695 135.068 67.3695C134.507 67.1825 134.133 67.3695 133.946 67.5565C133.572 67.5565 133.385 67.7435 133.011 67.9304C129.085 70.3611 125.158 72.6047 120.484 73.3526C117.119 73.9135 113.94 73.7265 110.575 73.7265C108.892 72.2308 105.713 73.1656 105.713 75.7832C105.713 75.7832 105.713 75.7832 105.713 75.9702C105.713 76.1572 105.713 76.5311 105.713 76.7181C107.396 85.6927 107.583 94.1064 102.535 102.146C101.413 103.829 100.291 105.325 98.9824 106.82C97.2997 108.69 95.243 110.373 93.1863 111.869C91.8775 112.617 90.7557 113.364 89.6338 114.112C87.7641 112.056 84.2117 113.364 84.9596 116.356C85.7075 119.721 86.2684 122.526 85.8944 125.331C85.5205 127.761 84.7726 130.192 83.6508 132.622C81.2202 137.297 78.0416 139.166 72.4325 139.727C72.0586 139.727 71.6846 140.288 72.0586 140.662C72.0586 140.662 74.1152 142.719 77.1068 142.345C78.6026 143.093 79.9113 143.841 81.0332 144.963C81.5941 147.206 82.155 149.45 82.7159 151.88C83.4638 154.872 84.2117 158.051 84.7726 161.042C75.798 167.025 76.5459 180.113 78.9765 189.275C82.342 202.363 88.699 215.638 98.0475 225.547C104.592 233.026 124.971 247.797 161.992 246.862C177.136 246.488 192.281 241.627 204.247 232.278C205.369 231.343 208.174 228.726 210.604 226.482C213.222 223.864 215.652 220.686 217.335 217.32C218.457 215.077 219.392 212.646 220.14 210.028C223.318 202.176 223.879 193.575 223.505 185.161ZM68.3191 217.133C68.6931 217.32 69.067 217.881 69.254 218.255C70.0019 219.377 70.3758 220.499 70.1889 221.808C70.0019 222.929 69.254 224.051 68.3191 224.612C67.3843 225.36 66.2625 225.734 65.1406 226.295C62.897 227.23 60.4664 227.791 58.0357 228.165C57.2878 225.36 56.54 222.369 55.6051 219.564C55.7921 219.377 55.9791 219.377 56.166 219.19C58.5966 218.442 61.2142 217.881 63.6449 217.133C64.3927 216.946 65.3276 216.759 66.0755 216.572C67.0103 216.759 67.7582 216.759 68.3191 217.133ZM58.7836 204.419C59.7185 204.232 60.8403 203.858 61.7752 204.232C63.2709 204.793 63.8318 206.476 64.2058 207.972C64.3927 209.468 64.3927 211.337 63.2709 212.272C62.71 212.646 61.9621 213.02 61.2142 213.207C59.1576 213.768 57.1009 214.329 55.0442 215.077C54.8572 215.077 54.8572 215.077 54.6703 215.077C54.4833 215.077 54.4833 214.89 54.4833 214.703C53.7354 212.085 52.8005 209.281 52.0527 206.663C54.1093 205.728 56.353 205.167 58.7836 204.419ZM52.6136 195.445C52.9875 196.38 53.1745 197.501 53.5484 198.81C52.0527 199.184 51.3048 199.371 49.809 199.745C49.4351 198.436 49.0611 197.314 48.6872 196.006C48.8741 196.006 49.0611 196.193 49.4351 196.193C50.5569 196.193 51.6787 196.006 52.6136 195.445ZM161.057 22.6834C138.059 25.8619 116.184 34.8365 97.4866 48.4854C87.7641 55.5903 78.7895 64.004 71.3107 73.5396C64.5797 81.9533 56.9139 92.2367 53.5484 102.707C46.6305 100.276 46.8175 92.7976 47.5653 86.2536C48.8741 79.8966 51.6787 73.9135 55.0442 68.4914C63.0839 55.4034 74.4892 44.933 87.0163 36.1453C99.5433 27.1707 113.566 18.1961 128.711 15.0176C139.929 12.774 152.456 14.4567 161.057 21.7486C161.244 22.1225 161.244 22.3095 161.057 22.6834ZM212.661 93.1715C212.287 97.0979 210.978 100.276 209.295 103.455C209.295 101.024 209.108 99.5286 209.108 99.5286C209.108 96.1631 206.117 93.5455 202.751 94.1064C202.377 94.1064 201.817 94.2934 201.443 94.2934C201.443 93.3585 201.256 92.2367 201.256 91.3018C201.069 89.0582 201.069 86.2536 200.134 84.01C200.321 83.823 200.508 83.823 200.695 83.636C200.882 83.449 201.256 83.2621 201.63 83.2621C204.434 82.7012 206.491 81.2054 208.921 79.7096C209.482 79.3357 210.417 79.3357 210.978 79.7096C211.539 84.1969 213.222 88.4973 212.661 93.1715ZM107.209 105.886C108.705 104.016 109.827 101.772 110.762 99.5286C110.949 100.65 112.257 101.398 113.379 101.398C117.306 92.2367 127.402 83.823 137.498 81.3924C133.198 80.0836 127.215 83.0751 123.85 85.1318C118.801 88.1233 114.875 92.2367 111.696 97.0979C113.753 91.3018 114.314 84.7578 113.005 78.9617C120.484 80.6445 130.207 77.092 135.629 72.7917C151.334 83.2621 177.136 91.1149 196.207 84.9448C196.207 84.9448 196.207 84.9448 196.394 84.9448C196.02 87.3754 196.581 89.993 196.768 92.4237C196.768 93.3585 196.768 94.4803 196.581 95.4152C188.168 96.911 177.884 98.5937 171.527 99.7155C169.284 100.089 167.788 102.52 168.349 104.764C168.723 105.886 169.097 107.381 169.471 108.877C166.292 108.503 162.179 109.438 159.187 111.308C159.187 109.251 159 107.381 158.813 105.886C158.626 103.268 156.196 101.398 153.578 101.772C144.603 103.268 128.898 105.886 118.614 107.568C114.875 108.316 112.631 112.056 113.94 115.608C113.94 115.608 116.184 122.9 119.175 129.631C118.988 129.444 118.988 129.257 118.801 129.07C115.81 123.648 114.688 117.478 111.509 112.243C111.323 112.056 111.136 112.243 111.136 112.43C111.322 113.551 111.509 114.86 111.883 116.169C111.696 115.982 111.696 115.608 111.509 115.421C111.136 114.486 110.762 112.99 110.014 112.243C109.827 112.056 109.266 112.056 109.079 112.43V112.617C108.892 112.617 108.705 112.617 108.518 112.804C105.152 114.673 101.787 116.543 98.2345 118.226C96.3648 119.161 94.3081 120.095 92.2514 121.03C92.2514 119.908 92.0645 118.974 91.6905 117.852C98.0475 116.73 104.405 109.812 107.209 105.886ZM87.3902 136.549C89.0729 134.305 90.5687 131.501 91.6905 128.322C94.4951 127.387 97.1127 125.891 99.7303 124.583C103.657 122.713 107.583 120.843 111.509 118.974C111.509 119.161 111.696 119.161 111.696 119.347C112.07 119.908 112.818 119.534 113.005 119.161C114.314 124.022 116.371 129.257 119.175 132.809C122.915 137.858 129.272 139.914 135.442 139.914C139.555 140.288 143.855 139.727 147.408 138.606C148.904 138.045 150.399 137.11 151.895 135.988C156.943 131.688 159.748 124.957 159.561 118.226C159.561 117.665 159.561 116.917 159.561 116.356C160.87 115.047 162.366 113.925 164.235 113.177C165.544 112.617 166.666 112.43 167.788 112.43C168.91 112.43 169.844 112.617 170.966 112.617C171.34 113.551 171.527 114.486 171.901 115.234C173.771 121.03 178.071 125.705 183.68 127.948C185.176 128.509 186.859 128.883 188.168 128.883C192.468 128.883 197.329 127.387 201.443 125.144C202.564 124.583 203.499 123.648 204.434 122.713C210.791 130.192 212.474 140.849 212.474 150.385C212.474 161.416 209.482 170.952 205.182 180.861C204.995 181.422 204.808 181.983 204.995 182.544C190.598 196.006 167.227 200.867 146.847 197.688C133.759 195.632 121.419 189.836 111.883 180.674C109.266 178.243 107.022 175.439 104.779 172.634C104.031 171.512 103.283 170.391 102.535 169.082C101.787 167.773 101.039 166.651 100.104 165.529C99.9173 165.342 99.9173 165.155 99.7303 164.968C98.4215 163.66 97.1127 162.351 94.6821 161.603C94.4951 161.416 94.3081 161.416 93.9342 161.229C92.6254 158.424 87.5772 143.841 85.8944 137.858C86.6423 137.671 87.0163 137.11 87.3902 136.549ZM83.0899 142.158C82.9029 141.597 83.2768 141.223 83.8377 141.036C84.3987 140.849 84.9596 141.036 85.1465 141.597C87.2032 148.141 89.4469 154.498 92.0645 160.855C90.5687 160.481 88.886 160.481 87.2032 160.855C85.5205 154.685 84.9596 148.328 83.0899 142.158ZM219.953 201.802C219.766 203.484 219.392 204.98 219.018 206.476C218.644 208.346 218.083 210.028 217.522 211.711C216.774 214.142 215.839 216.199 214.157 219.003C195.833 245.74 150.96 248.731 122.915 237.139C102.535 228.913 88.1381 210.402 83.8377 188.901C82.5289 182.918 80.8462 173.756 85.1465 168.521C85.5205 168.147 85.7075 167.773 86.0814 167.399C89.4469 165.716 93.1863 165.716 96.3648 167.025C98.6085 169.643 100.852 172.073 103.096 174.878C103.283 175.065 103.283 175.252 103.47 175.439C104.031 176.187 104.779 177.122 105.339 177.869C109.453 182.544 113.94 186.844 119.175 190.21C129.459 197.127 141.799 200.867 154.326 201.428C171.34 202.363 188.542 198.249 202.003 188.34C202.003 188.153 202.19 188.153 202.377 187.966C205.369 185.722 208.174 183.292 210.791 180.674C212.287 179.178 213.409 177.495 214.718 175.813C215.465 174.691 216.4 173.569 217.148 172.26C216.587 173.008 215.839 173.756 215.091 174.504L214.904 174.691C216.026 171.699 216.774 168.521 217.335 165.342C219.205 173.569 221.448 181.609 221.448 190.21C221.075 194.323 220.701 198.062 219.953 201.802Z" fill="black"/>
</svg>
