<?xml version="1.0" standalone="no"?>
<!DOCTYPE svg PUBLIC "-//W3C//DTD SVG 20010904//EN"
 "http://www.w3.org/TR/2001/REC-SVG-20010904/DTD/svg10.dtd">
<svg version="1.0" xmlns="http://www.w3.org/2000/svg"
 width="300.000000pt" height="84.000000pt" viewBox="0 0 300.000000 84.000000"
 preserveAspectRatio="xMidYMid meet">

<g transform="translate(0.000000,84.000000) scale(0.100000,-0.100000)"
fill="#000000" stroke="none">
<path d="M784 544 c-109 -53 -70 -224 51 -224 122 0 160 172 50 224 -41 20
-62 20 -101 0z m90 -50 c25 -24 31 -64 15 -93 -12 -21 -22 -26 -54 -26 -32 0
-42 5 -54 26 -25 45 6 109 54 109 13 0 31 -7 39 -16z"/>
<path d="M2131 547 c-81 -41 -87 -173 -9 -213 73 -38 158 6 158 80 l0 36 -50
0 c-43 0 -50 -3 -50 -20 0 -15 7 -20 25 -20 30 0 32 -11 7 -33 -25 -23 -45
-21 -70 6 -42 45 -18 127 37 127 15 0 32 -5 39 -12 8 -8 15 -8 27 2 23 19 18
30 -20 46 -42 17 -63 18 -94 1z"/>
<path d="M2594 546 c-45 -20 -64 -52 -64 -109 0 -42 5 -54 34 -83 27 -27 42
-34 73 -34 86 0 142 77 112 156 -25 66 -95 97 -155 70z m88 -53 c20 -18 24
-73 8 -104 -13 -24 -66 -26 -92 -2 -24 22 -24 77 2 103 24 24 57 26 82 3z"/>
<path d="M130 435 l0 -115 41 0 c122 0 184 126 99 203 -25 22 -39 27 -85 27
l-55 0 0 -115z m101 57 c41 -34 18 -122 -33 -122 -16 0 -18 9 -18 70 0 77 9
85 51 52z"/>
<path d="M320 435 l0 -115 65 0 c61 0 65 1 65 23 0 19 -5 22 -37 22 -34 0 -38
3 -38 25 0 22 5 25 38 28 29 3 37 7 37 23 0 16 -7 19 -40 19 -36 0 -40 3 -40
25 0 23 4 25 40 25 33 0 40 3 40 20 0 18 -7 20 -65 20 l-65 0 0 -115z"/>
<path d="M475 463 c-3 -49 -9 -100 -11 -115 -5 -24 -2 -28 19 -28 20 0 25 6
31 38 3 20 6 50 6 66 0 39 11 26 35 -42 27 -77 44 -74 75 13 13 39 25 63 27
55 1 -8 5 -41 8 -72 6 -54 8 -58 32 -58 21 0 24 3 19 28 -3 15 -8 66 -12 115
-6 87 -6 87 -34 87 -25 0 -30 -7 -50 -60 -12 -33 -26 -60 -30 -60 -4 0 -18 27
-30 60 -20 54 -25 60 -50 60 l-28 0 -7 -87z"/>
<path d="M1010 530 c0 -16 7 -20 30 -20 l30 0 0 -95 c0 -95 0 -95 25 -95 25 0
25 0 25 95 0 95 0 95 25 95 18 0 25 5 25 20 0 18 -7 20 -80 20 -73 0 -80 -2
-80 -20z"/>
<path d="M1180 435 l0 -115 25 0 c23 0 25 4 25 45 0 25 3 45 8 45 4 -1 22 -21
40 -45 30 -42 36 -45 78 -45 38 0 46 4 56 25 9 21 18 25 55 25 37 0 45 -4 55
-25 10 -23 16 -25 80 -25 110 0 158 36 158 120 -1 74 -43 110 -129 110 l-51 0
0 -107 -1 -108 -42 105 c-38 92 -46 105 -69 108 -23 3 -28 -4 -64 -94 -22 -54
-44 -99 -49 -100 -6 -2 -20 10 -33 27 l-23 29 20 26 c12 15 21 39 21 54 0 43
-28 60 -98 60 l-62 0 0 -115z m106 60 c8 -20 -13 -45 -37 -45 -14 0 -19 7 -19
30 0 25 4 30 25 30 14 0 28 -7 31 -15z m404 -5 c39 -39 15 -120 -36 -120 -23
0 -24 2 -24 70 0 63 2 70 20 70 11 0 29 -9 40 -20z m-205 -52 c6 -25 5 -28
-19 -28 -30 0 -29 -2 -15 39 12 35 24 31 34 -11z"/>
<path d="M1780 435 l0 -115 25 0 25 0 0 115 0 115 -25 0 -25 0 0 -115z"/>
<path d="M1850 435 l0 -115 25 0 c24 0 25 2 25 70 0 39 3 70 8 70 4 0 25 -31
48 -68 32 -52 46 -68 67 -70 l27 -3 0 115 0 116 -25 0 c-24 0 -25 -2 -25 -72
l-1 -73 -46 73 c-40 61 -51 72 -75 72 l-28 0 0 -115z"/>
<path d="M2360 435 l0 -115 53 0 c73 0 101 17 105 62 2 28 -2 40 -20 52 -17
12 -20 18 -10 28 19 19 15 66 -7 78 -11 5 -42 10 -70 10 l-51 0 0 -115z m78
76 c19 -11 11 -45 -11 -49 -13 -3 -17 3 -17 27 0 32 6 37 28 22z m20 -100 c23
-14 10 -46 -21 -49 -24 -3 -27 0 -27 27 0 32 19 41 48 22z"/>
<path d="M2760 530 c0 -15 7 -20 25 -20 25 0 25 0 25 -95 0 -95 0 -95 25 -95
25 0 25 0 25 95 l0 95 30 0 c23 0 30 4 30 20 0 18 -7 20 -80 20 -73 0 -80 -2
-80 -20z"/>
</g>
</svg>
