<svg width="138" height="129" viewBox="0 0 138 129" fill="none" xmlns="http://www.w3.org/2000/svg">
<circle cx="71.0527" cy="64.7734" r="64" fill="#FFE03A"/>
<path d="M58.3271 35.351C72.7963 28.9159 72.8041 28.7576 77.7341 38.1467L103.065 33.4316C103.065 33.4316 89.129 19.9013 78.4319 21.0788C68.8611 22.1324 58.3271 35.351 58.3271 35.351Z" fill="#CB2228" stroke="black"/>
<path d="M59.579 40.6216C59.2896 40.0726 58.8252 39.6571 58.1856 39.3751L58.1982 39.3325C58.7888 39.3219 59.3215 39.2016 59.7674 38.9165C60.2133 38.6315 60.5598 38.2243 60.7237 37.6705C60.9381 36.9462 60.8112 36.3062 60.3556 35.708C60.0284 35.2868 59.4972 34.9442 58.816 34.6499L59.2196 33.2865L58.0978 32.9544L57.7068 34.2752L57.0005 34.0661L57.3914 32.7454L56.2696 32.4133L55.8787 33.734L53.1364 32.9223L52.6698 34.4987L53.5423 34.757C53.8747 34.8554 54.0483 35.1848 53.9474 35.5256L52.3206 41.0217C52.2197 41.3625 51.8947 41.5444 51.5623 41.446L50.6898 41.1877L50.2232 42.7641L52.9654 43.5758L52.5745 44.8966L53.6963 45.2286L54.0873 43.9079L54.7936 44.117L54.4027 45.4377L55.5245 45.7698L55.9154 44.449C56.7717 44.6098 57.5121 44.5509 58.1368 44.2725C58.9114 43.9457 59.4582 43.3198 59.723 42.4251C59.9248 41.7434 59.8684 41.1707 59.579 40.6216ZM57.0614 35.845C57.1029 35.8573 57.186 35.8819 57.2276 35.8942C57.7262 36.0418 58.1038 36.2926 58.2485 36.5671C58.4058 36.799 58.4133 37.0792 58.325 37.3775C58.2241 37.7183 58.0653 37.9493 57.7945 38.1009C57.7404 38.1312 57.6862 38.1615 57.6862 38.1615C57.3739 38.3007 57.0036 38.3301 56.5466 38.1949C56.5466 38.1949 56.5466 38.1949 56.505 38.1826L55.8402 37.9858L55.5909 37.912L56.2846 35.5687L56.5339 35.6425L57.074 35.8024L57.0614 35.845ZM56.7701 42.4778C56.6744 42.4958 56.5661 42.5564 56.4703 42.5744C56.1832 42.6284 55.8671 42.6275 55.4932 42.5169L55.2855 42.4554L54.5791 42.2463L54.3298 42.1725L55.0991 39.5736L55.3484 39.6474L56.0547 39.8565L56.2625 39.9179C56.6364 40.0286 56.9147 40.1573 57.1261 40.3589C57.1966 40.4261 57.2671 40.4933 57.325 40.6032C57.5528 40.9023 57.5891 41.2374 57.463 41.6635C57.3495 42.0469 57.124 42.3508 56.7701 42.4778Z" fill="black"/>
<path d="M87.4996 29.7491C82.605 30.9511 75.8717 35.5577 75.8717 35.5577C75.8717 35.5577 73.8415 38.5504 74.8347 39.9817C75.4894 40.925 77.4582 41.1911 77.4582 41.1911C77.4582 41.1911 84.5787 38.8121 89.2749 37.4885C94.6823 35.9643 103.201 34.5055 103.201 34.5055C103.201 34.5055 103.756 32.9994 103.553 32.0616C103.175 30.3143 99.9309 29.4611 99.9309 29.4611C99.9309 29.4611 92.2358 28.5859 87.4996 29.7491Z" fill="white" stroke="black"/>
<path d="M80.319 38.5462C80.2693 38.8912 76.0259 38.8082 74.5262 39.0324L75.2645 40.0192L77.2966 41.1923L90.1796 37.3254C94.4326 36.3239 103.025 34.3334 103.37 34.3831C103.715 34.4328 103.617 33.685 103.556 33.0893L84.0798 36.8869L78.287 37.3731C78.6561 37.8665 80.3687 38.2012 80.319 38.5462Z" fill="black" fill-opacity="0.33"/>
<path d="M20.9404 61.5173C34.6608 54.8891 41.8105 53.6738 53.7752 54.6997C43.7456 62.4413 38.2346 66.8997 29.1385 75.6229L20.9404 61.5173Z" fill="#CB2228" stroke="black"/>
<path fill-rule="evenodd" clip-rule="evenodd" d="M127.984 30.9118C87.3417 33.8503 64.4959 41.355 28.9762 75.3369L34.6749 85.1423L34.674 85.1428L40.4126 95.0168C87.5218 80.9758 105.351 64.8403 128.023 30.981L128.165 30.8988C128.135 30.901 128.104 30.9032 128.074 30.9054C128.091 30.8805 128.107 30.8556 128.124 30.8307L127.984 30.9118Z" fill="#C4C4C4"/>
<path d="M127.984 30.9118L128.021 31.4105L128.136 31.4022L128.236 31.3441L127.984 30.9118ZM28.9762 75.3369L28.6305 74.9757L28.3461 75.2478L28.5439 75.5882L28.9762 75.3369ZM34.6749 85.1423L34.9262 85.5746L35.3585 85.3233L35.1072 84.891L34.6749 85.1423ZM34.674 85.1428L34.4227 84.7105L33.9904 84.9618L34.2417 85.3941L34.674 85.1428ZM40.4126 95.0168L39.9803 95.268L40.1781 95.6084L40.5554 95.496L40.4126 95.0168ZM128.023 30.981L127.772 30.5487L127.672 30.6068L127.608 30.7028L128.023 30.981ZM128.165 30.8988L128.416 31.3311L128.129 30.4001L128.165 30.8988ZM128.074 30.9054L127.659 30.6272L127.089 31.4776L128.11 31.4041L128.074 30.9054ZM128.124 30.8307L128.54 31.1088L127.873 30.3984L128.124 30.8307ZM127.948 30.4131C107.606 31.8839 91.6695 34.5001 76.3631 41.0231C61.0561 47.5464 46.415 57.9611 28.6305 74.9757L29.3218 75.6982C47.0571 58.7308 61.5987 48.4022 76.7552 41.9431C91.9124 35.4836 107.721 32.8782 128.021 31.4105L127.948 30.4131ZM28.5439 75.5882L34.2426 85.3935L35.1072 84.891L29.4085 75.0857L28.5439 75.5882ZM34.9252 85.5751L34.9262 85.5746L34.4237 84.71L34.4227 84.7105L34.9252 85.5751ZM40.8449 94.7655L35.1063 84.8916L34.2417 85.3941L39.9803 95.268L40.8449 94.7655ZM127.608 30.7028C116.284 47.6146 106.195 60.0604 93.0793 70.0328C79.9644 80.0047 63.7917 87.5269 40.2698 94.5376L40.5554 95.496C64.1427 88.4657 80.4394 80.8997 93.6846 70.8288C106.929 60.7583 117.091 48.2067 128.439 31.2592L127.608 30.7028ZM128.275 31.4133L128.416 31.3311L127.914 30.4665L127.772 30.5487L128.275 31.4133ZM128.129 30.4001C128.099 30.4023 128.068 30.4045 128.038 30.4067L128.11 31.4041C128.14 31.4019 128.17 31.3997 128.201 31.3975L128.129 30.4001ZM127.708 30.5527C127.692 30.5776 127.675 30.6024 127.659 30.6272L128.49 31.1835C128.506 31.1586 128.523 31.1337 128.54 31.1088L127.708 30.5527ZM128.236 31.3441L128.375 31.263L127.873 30.3984L127.733 30.4795L128.236 31.3441Z" fill="black"/>
<path d="M33.2066 80.183C64.0446 52.8822 84.112 42.0199 126.295 31.7422C77.455 37.0157 59.2855 49.58 30.7472 75.9513L33.2066 80.183Z" fill="white" fill-opacity="0.65"/>
<circle cx="90.2425" cy="53.3197" r="9.28897" transform="rotate(59.8353 90.2425 53.3197)" fill="#3773B6" stroke="black"/>
<path d="M98.2296 52.4495L82.7888 51.0449C82.3288 52.421 82.2483 53.1481 82.4603 54.5381L97.9011 55.9428C98.4832 54.5638 98.4805 53.8545 98.2296 52.4495Z" fill="white" fill-opacity="0.42"/>
<path d="M97.7648 50.8359L84.1445 49.3168C84.2305 48.6849 84.3894 48.4204 84.7925 47.9966L97.5026 49.5731C97.8478 50.057 97.9427 50.3104 97.7648 50.8359Z" fill="white" fill-opacity="0.6"/>
<path d="M48.61 109.123C61.1609 100.483 65.756 94.872 70.7873 83.9682C59.096 88.8506 52.4941 91.4321 40.4119 95.0174L48.61 109.123Z" fill="#851317" stroke="black"/>
<g clip-path="url(#clip0)">
<path d="M27.5559 82.2676C28.4473 82.6327 29.4315 83.2156 30.3624 83.9992C30.5566 84.158 30.4716 84.4792 30.2389 84.5465C29.5157 84.763 28.7965 85.0452 28.1109 85.4436C24.5817 87.4947 23.0318 91.7242 22.5687 93.1483C22.4943 93.4293 22.6566 93.7086 22.9229 93.7576C24.364 94.0749 28.8062 94.8219 32.3608 92.756C33.1479 92.2985 33.8612 91.7141 34.4541 91.0978C34.6277 90.929 34.9341 90.9886 35.0014 91.2213C35.5331 93.188 35.5936 94.987 35.4825 95.731C34.3839 101.906 28.0332 103.661 24.0172 103.413C19.5023 103.184 15.2337 102.268 11.3974 104.668C10.9552 104.959 10.3553 104.628 10.3224 104.104C10.0733 99.9349 12.3187 95.6748 14.7976 93.4529C13.4834 93.0618 12.0073 93.4442 10.8754 94.0681C10.3422 94.378 9.66445 93.8548 9.84935 93.2378C11.2901 88.5283 18.2143 78.5259 27.5559 82.2676Z" fill="#F47B36"/>
</g>
<path d="M36.5748 89.2279C50.0325 82.35 55.6175 78.1606 63.2038 70.9209C51.2472 75.5112 44.482 78.459 33.2956 83.5857L36.5748 89.2279Z" fill="#D8464B" stroke="black"/>
<defs>
<clipPath id="clip0">
<rect width="42.5607" height="42.5607" fill="white" transform="translate(15.5137 114.672) scale(0.69) rotate(-120.165)"/>
</clipPath>
</defs>
</svg>
