<svg width="30" height="30" viewBox="0 0 30 30" fill="none" xmlns="http://www.w3.org/2000/svg">
<circle cx="15" cy="15" r="15" fill="#E5E5E5"/>
<mask id="mask0" mask-type="alpha" maskUnits="userSpaceOnUse" x="0" y="0" width="30" height="30">
<circle cx="15" cy="15" r="15" fill="#C3C3C3"/>
</mask>
<g mask="url(#mask0)">
<path d="M15 18.5C18.1562 18.5 20.7143 15.926 20.7143 12.75C20.7143 9.57402 18.1562 7 15 7C11.8438 7 9.28571 9.57402 9.28571 12.75C9.28571 15.926 11.8438 18.5 15 18.5ZM19 19.9375H18.2545C17.2634 20.3957 16.1607 20.6562 15 20.6562C13.8393 20.6562 12.7411 20.3957 11.7455 19.9375H11C7.6875 19.9375 5 22.6418 5 25.975V27.8438C5 29.0342 5.95982 30 7.14286 30H22.8571C24.0402 30 25 29.0342 25 27.8438V25.975C25 22.6418 22.3125 19.9375 19 19.9375Z" fill="#7A7A7A"/>
</g>
</svg>
